<?xml version="1.0" standalone="no"?>
 <!DOCTYPE svg PUBLIC "-//W3C//DTD SVG 1.1//EN" 
 "http://www.w3.org/Graphics/SVG/1.1/DTD/svg11.dtd"> 
<svg xmlns="http://www.w3.org/2000/svg" version="1.1" 
    width="29.7002cm" height="21.0007cm" viewBox="0 0 116930 82680 ">
<title>SVG Picture created as simple_lqfp64-F.Cu.svg date 2016/03/23 21:16:53 </title>
  <desc>Picture generated by PCBNEW </desc>
<g style="fill:#000000; fill-opacity:1;stroke:#000000; stroke-opacity:1;
stroke-linecap:round; stroke-linejoin:round; "
 transform="translate(0 0) scale(1 1)">
</g>
<g style="fill:#000000; fill-opacity:0.0; 
stroke:#000000; stroke-width:-0.000393701; stroke-opacity:1; 
stroke-linecap:round; stroke-linejoin:round;">
</g>
<g style="fill:#000000; fill-opacity:0.0; 
stroke:#000000; stroke-width:0; stroke-opacity:1; 
stroke-linecap:round; stroke-linejoin:round;">
</g>
<g style="fill:#000000; fill-opacity:1.0; 
stroke:#000000; stroke-width:0; stroke-opacity:1; 
stroke-linecap:round; stroke-linejoin:round;">
<polyline style="fill-rule:evenodd;"
points="48760,21640
48760,20760
49640,20760
49640,21640
48760,21640
" /> 
<polyline style="fill-rule:evenodd;"
points="52012,23246
52012,22753
52603,22753
52603,23246
52012,23246
" /> 
<polyline style="fill-rule:evenodd;"
points="52996,23246
52996,22753
53587,22753
53587,23246
52996,23246
" /> 
<polyline style="fill-rule:evenodd;"
points="52012,26046
52012,25553
52603,25553
52603,26046
52012,26046
" /> 
<polyline style="fill-rule:evenodd;"
points="52996,26046
52996,25553
53587,25553
53587,26046
52996,26046
" /> 
<polyline style="fill-rule:evenodd;"
points="55587,22753
55587,23246
54996,23246
54996,22753
55587,22753
" /> 
<polyline style="fill-rule:evenodd;"
points="54603,22753
54603,23246
54012,23246
54012,22753
54603,22753
" /> 
<polyline style="fill-rule:evenodd;"
points="54587,24653
54587,25146
53996,25146
53996,24653
54587,24653
" /> 
<polyline style="fill-rule:evenodd;"
points="53603,24653
53603,25146
53012,25146
53012,24653
53603,24653
" /> 
<polyline style="fill-rule:evenodd;"
points="63800,38400
64600,38400
64600,39200
63800,39200
63800,38400
" /> 
</g>
<g style="fill:#000000; fill-opacity:1.0; 
stroke:#000000; stroke-width:800; stroke-opacity:1; 
stroke-linecap:round; stroke-linejoin:round;">
</g>
<g style="fill:#000000; fill-opacity:0.0; 
stroke:#000000; stroke-width:800; stroke-opacity:1; 
stroke-linecap:round; stroke-linejoin:round;">
<path d="M63200 38800
L63200 38800
" />
</g>
<g style="fill:#000000; fill-opacity:0.0; 
stroke:#000000; stroke-width:0; stroke-opacity:1; 
stroke-linecap:round; stroke-linejoin:round;">
</g>
<g style="fill:#000000; fill-opacity:1.0; 
stroke:#000000; stroke-width:0; stroke-opacity:1; 
stroke-linecap:round; stroke-linejoin:round;">
<polyline style="fill-rule:evenodd;"
points="65840,20200
65160,20200
65160,19400
65840,19400
65840,20200
" /> 
</g>
<g style="fill:#000000; fill-opacity:1.0; 
stroke:#000000; stroke-width:680; stroke-opacity:1; 
stroke-linecap:round; stroke-linejoin:round;">
</g>
<g style="fill:#000000; fill-opacity:0.0; 
stroke:#000000; stroke-width:680; stroke-opacity:1; 
stroke-linecap:round; stroke-linejoin:round;">
<path d="M66500 19860
L66500 19740
" />
<path d="M67500 19860
L67500 19740
" />
</g>
<g style="fill:#000000; fill-opacity:0.0; 
stroke:#000000; stroke-width:0; stroke-opacity:1; 
stroke-linecap:round; stroke-linejoin:round;">
</g>
<g style="fill:#000000; fill-opacity:1.0; 
stroke:#000000; stroke-width:0; stroke-opacity:1; 
stroke-linecap:round; stroke-linejoin:round;">
<polyline style="fill-rule:evenodd;"
points="51860,38400
52540,38400
52540,39200
51860,39200
51860,38400
" /> 
</g>
<g style="fill:#000000; fill-opacity:1.0; 
stroke:#000000; stroke-width:680; stroke-opacity:1; 
stroke-linecap:round; stroke-linejoin:round;">
</g>
<g style="fill:#000000; fill-opacity:0.0; 
stroke:#000000; stroke-width:680; stroke-opacity:1; 
stroke-linecap:round; stroke-linejoin:round;">
<path d="M51200 38740
L51200 38860
" />
<path d="M50200 38740
L50200 38860
" />
<path d="M49200 38740
L49200 38860
" />
</g>
<g style="fill:#000000; fill-opacity:0.0; 
stroke:#000000; stroke-width:0; stroke-opacity:1; 
stroke-linecap:round; stroke-linejoin:round;">
</g>
<g style="fill:#000000; fill-opacity:1.0; 
stroke:#000000; stroke-width:0; stroke-opacity:1; 
stroke-linecap:round; stroke-linejoin:round;">
<polyline style="fill-rule:evenodd;"
points="70100,29590
70100,28910
70900,28910
70900,29590
70100,29590
" /> 
</g>
<g style="fill:#000000; fill-opacity:1.0; 
stroke:#000000; stroke-width:680; stroke-opacity:1; 
stroke-linecap:round; stroke-linejoin:round;">
</g>
<g style="fill:#000000; fill-opacity:0.0; 
stroke:#000000; stroke-width:680; stroke-opacity:1; 
stroke-linecap:round; stroke-linejoin:round;">
<path d="M70440 30250
L70560 30250
" />
<path d="M70440 31250
L70560 31250
" />
<path d="M70440 32250
L70560 32250
" />
</g>
<g style="fill:#000000; fill-opacity:0.0; 
stroke:#000000; stroke-width:0; stroke-opacity:1; 
stroke-linecap:round; stroke-linejoin:round;">
</g>
<g style="fill:#000000; fill-opacity:1.0; 
stroke:#000000; stroke-width:0; stroke-opacity:1; 
stroke-linecap:round; stroke-linejoin:round;">
<polyline style="fill-rule:evenodd;"
points="54460,20240
54460,19360
55340,19360
55340,20240
54460,20240
" /> 
<polyline style="fill-rule:evenodd;"
points="54340,39200
53660,39200
53660,38400
54340,38400
54340,39200
" /> 
</g>
<g style="fill:#000000; fill-opacity:1.0; 
stroke:#000000; stroke-width:680; stroke-opacity:1; 
stroke-linecap:round; stroke-linejoin:round;">
</g>
<g style="fill:#000000; fill-opacity:0.0; 
stroke:#000000; stroke-width:680; stroke-opacity:1; 
stroke-linecap:round; stroke-linejoin:round;">
<path d="M55000 38860
L55000 38740
" />
<path d="M56000 38860
L56000 38740
" />
<path d="M57000 38860
L57000 38740
" />
</g>
<g style="fill:#000000; fill-opacity:0.0; 
stroke:#000000; stroke-width:0; stroke-opacity:1; 
stroke-linecap:round; stroke-linejoin:round;">
</g>
<g style="fill:#000000; fill-opacity:1.0; 
stroke:#000000; stroke-width:0; stroke-opacity:1; 
stroke-linecap:round; stroke-linejoin:round;">
<polyline style="fill-rule:evenodd;"
points="70900,27410
70900,28090
70100,28090
70100,27410
70900,27410
" /> 
</g>
<g style="fill:#000000; fill-opacity:1.0; 
stroke:#000000; stroke-width:680; stroke-opacity:1; 
stroke-linecap:round; stroke-linejoin:round;">
</g>
<g style="fill:#000000; fill-opacity:0.0; 
stroke:#000000; stroke-width:680; stroke-opacity:1; 
stroke-linecap:round; stroke-linejoin:round;">
<path d="M70560 26750
L70440 26750
" />
<path d="M70560 25750
L70440 25750
" />
</g>
<g style="fill:#000000; fill-opacity:0.0; 
stroke:#000000; stroke-width:0; stroke-opacity:1; 
stroke-linecap:round; stroke-linejoin:round;">
</g>
<g style="fill:#000000; fill-opacity:1.0; 
stroke:#000000; stroke-width:0; stroke-opacity:1; 
stroke-linecap:round; stroke-linejoin:round;">
<polyline style="fill-rule:evenodd;"
points="70900,38410
70900,39090
70100,39090
70100,38410
70900,38410
" /> 
</g>
<g style="fill:#000000; fill-opacity:1.0; 
stroke:#000000; stroke-width:680; stroke-opacity:1; 
stroke-linecap:round; stroke-linejoin:round;">
</g>
<g style="fill:#000000; fill-opacity:0.0; 
stroke:#000000; stroke-width:680; stroke-opacity:1; 
stroke-linecap:round; stroke-linejoin:round;">
<path d="M70560 37750
L70440 37750
" />
<path d="M70560 36750
L70440 36750
" />
<path d="M70560 35750
L70440 35750
" />
<path d="M70560 34750
L70440 34750
" />
<path d="M70560 33750
L70440 33750
" />
</g>
<g style="fill:#000000; fill-opacity:0.0; 
stroke:#000000; stroke-width:0; stroke-opacity:1; 
stroke-linecap:round; stroke-linejoin:round;">
</g>
<g style="fill:#000000; fill-opacity:1.0; 
stroke:#000000; stroke-width:0; stroke-opacity:1; 
stroke-linecap:round; stroke-linejoin:round;">
<polyline style="fill-rule:evenodd;"
points="62360,19400
63040,19400
63040,20200
62360,20200
62360,19400
" /> 
</g>
<g style="fill:#000000; fill-opacity:1.0; 
stroke:#000000; stroke-width:680; stroke-opacity:1; 
stroke-linecap:round; stroke-linejoin:round;">
</g>
<g style="fill:#000000; fill-opacity:0.0; 
stroke:#000000; stroke-width:680; stroke-opacity:1; 
stroke-linecap:round; stroke-linejoin:round;">
<path d="M61700 19740
L61700 19860
" />
<path d="M60700 19740
L60700 19860
" />
<path d="M59700 19740
L59700 19860
" />
<path d="M58700 19740
L58700 19860
" />
<path d="M57700 19740
L57700 19860
" />
<path d="M56700 19740
L56700 19860
" />
</g>
<g style="fill:#000000; fill-opacity:0.0; 
stroke:#000000; stroke-width:0; stroke-opacity:1; 
stroke-linecap:round; stroke-linejoin:round;">
</g>
<g style="fill:#000000; fill-opacity:1.0; 
stroke:#000000; stroke-width:0; stroke-opacity:1; 
stroke-linecap:round; stroke-linejoin:round;">
<polyline style="fill-rule:evenodd;"
points="59140,39200
58460,39200
58460,38400
59140,38400
59140,39200
" /> 
</g>
<g style="fill:#000000; fill-opacity:1.0; 
stroke:#000000; stroke-width:680; stroke-opacity:1; 
stroke-linecap:round; stroke-linejoin:round;">
</g>
<g style="fill:#000000; fill-opacity:0.0; 
stroke:#000000; stroke-width:680; stroke-opacity:1; 
stroke-linecap:round; stroke-linejoin:round;">
<path d="M59800 38860
L59800 38740
" />
<path d="M60800 38860
L60800 38740
" />
<path d="M61800 38860
L61800 38740
" />
</g>
<g style="fill:#000000; fill-opacity:0.0; 
stroke:#000000; stroke-width:0; stroke-opacity:1; 
stroke-linecap:round; stroke-linejoin:round;">
</g>
<g style="fill:#000000; fill-opacity:1.0; 
stroke:#000000; stroke-width:0; stroke-opacity:1; 
stroke-linecap:round; stroke-linejoin:round;">
<polyline style="fill-rule:evenodd;"
points="71300,21460
71300,22140
70500,22140
70500,21460
71300,21460
" /> 
</g>
<g style="fill:#000000; fill-opacity:1.0; 
stroke:#000000; stroke-width:680; stroke-opacity:1; 
stroke-linecap:round; stroke-linejoin:round;">
</g>
<g style="fill:#000000; fill-opacity:0.0; 
stroke:#000000; stroke-width:680; stroke-opacity:1; 
stroke-linecap:round; stroke-linejoin:round;">
<path d="M70960 20800
L70840 20800
" />
<path d="M70960 19800
L70840 19800
" />
</g>
<g style="fill:#000000; fill-opacity:0.0; 
stroke:#000000; stroke-width:0; stroke-opacity:1; 
stroke-linecap:round; stroke-linejoin:round;">
</g>
<g style="fill:#000000; fill-opacity:1.0; 
stroke:#000000; stroke-width:0; stroke-opacity:1; 
stroke-linecap:round; stroke-linejoin:round;">
<polyline style="fill-rule:evenodd;"
points="65940,39200
65260,39200
65260,38400
65940,38400
65940,39200
" /> 
</g>
<g style="fill:#000000; fill-opacity:1.0; 
stroke:#000000; stroke-width:680; stroke-opacity:1; 
stroke-linecap:round; stroke-linejoin:round;">
</g>
<g style="fill:#000000; fill-opacity:0.0; 
stroke:#000000; stroke-width:680; stroke-opacity:1; 
stroke-linecap:round; stroke-linejoin:round;">
<path d="M66600 38860
L66600 38740
" />
<path d="M67600 38860
L67600 38740
" />
</g>
<g style="fill:#000000; fill-opacity:0.0; 
stroke:#000000; stroke-width:0; stroke-opacity:1; 
stroke-linecap:round; stroke-linejoin:round;">
</g>
<g style="fill:#000000; fill-opacity:1.0; 
stroke:#000000; stroke-width:0; stroke-opacity:1; 
stroke-linecap:round; stroke-linejoin:round;">
<polyline style="fill-rule:evenodd;"
points="73345,24531
73345,24728
72439,24728
72439,24531
73345,24531
" /> 
<polyline style="fill-rule:evenodd;"
points="73345,24216
73345,24413
72439,24413
72439,24216
73345,24216
" /> 
<polyline style="fill-rule:evenodd;"
points="73345,23901
73345,24098
72439,24098
72439,23901
73345,23901
" /> 
<polyline style="fill-rule:evenodd;"
points="73345,23586
73345,23783
72439,23783
72439,23586
73345,23586
" /> 
<polyline style="fill-rule:evenodd;"
points="73345,23271
73345,23468
72439,23468
72439,23271
73345,23271
" /> 
<polyline style="fill-rule:evenodd;"
points="73423,25358
73423,26145
72439,26145
72439,25358
73423,25358
" /> 
<polyline style="fill-rule:evenodd;"
points="75588,25358
75588,26145
74604,26145
74604,25358
75588,25358
" /> 
<polyline style="fill-rule:evenodd;"
points="73423,21854
73423,22641
72439,22641
72439,21854
73423,21854
" /> 
<polyline style="fill-rule:evenodd;"
points="75588,21854
75588,22641
74604,22641
74604,21854
75588,21854
" /> 
<polyline style="fill-rule:evenodd;"
points="50160,20240
50160,19360
51040,19360
51040,20240
50160,20240
" /> 
<polyline style="fill-rule:evenodd;"
points="72060,20240
72060,19360
72940,19360
72940,20240
72060,20240
" /> 
<polyline style="fill-rule:evenodd;"
points="48760,20240
48760,19360
49640,19360
49640,20240
48760,20240
" /> 
<polyline style="fill-rule:evenodd;"
points="51560,20240
51560,19360
52440,19360
52440,20240
51560,20240
" /> 
<polyline style="fill-rule:evenodd;"
points="48760,23040
48760,22160
49640,22160
49640,23040
48760,23040
" /> 
<polyline style="fill-rule:evenodd;"
points="48760,33040
48760,32160
49640,32160
49640,33040
48760,33040
" /> 
<polyline style="fill-rule:evenodd;"
points="48760,37240
48760,36360
49640,36360
49640,37240
48760,37240
" /> 
<polyline style="fill-rule:evenodd;"
points="48760,35840
48760,34960
49640,34960
49640,35840
48760,35840
" /> 
<polyline style="fill-rule:evenodd;"
points="48760,31640
48760,30760
49640,30760
49640,31640
48760,31640
" /> 
<polyline style="fill-rule:evenodd;"
points="48760,34440
48760,33560
49640,33560
49640,34440
48760,34440
" /> 
<polyline style="fill-rule:evenodd;"
points="72560,27740
72560,26860
73440,26860
73440,27740
72560,27740
" /> 
<polyline style="fill-rule:evenodd;"
points="50829,29870
50829,29358
51440,29358
51440,29870
50829,29870
" /> 
<polyline style="fill-rule:evenodd;"
points="53959,29870
53959,29358
54570,29358
54570,29870
53959,29870
" /> 
<polyline style="fill-rule:evenodd;"
points="50829,31641
50829,31129
51440,31129
51440,31641
50829,31641
" /> 
<polyline style="fill-rule:evenodd;"
points="53959,31641
53959,31129
54570,31129
54570,31641
53959,31641
" /> 
<circle cx="52300" cy="21979" r="492" /> 
</g>
<g style="fill:#000000; fill-opacity:1.0; 
stroke:#000000; stroke-width:39.3701; stroke-opacity:1; 
stroke-linecap:round; stroke-linejoin:round;">
</g>
<g style="fill:#000000; fill-opacity:1.0; 
stroke:#000000; stroke-width:0; stroke-opacity:1; 
stroke-linecap:round; stroke-linejoin:round;">
<circle cx="52300" cy="26821" r="492" /> 
</g>
<g style="fill:#000000; fill-opacity:1.0; 
stroke:#000000; stroke-width:39.3701; stroke-opacity:1; 
stroke-linecap:round; stroke-linejoin:round;">
</g>
<g style="fill:#000000; fill-opacity:1.0; 
stroke:#000000; stroke-width:0; stroke-opacity:1; 
stroke-linecap:round; stroke-linejoin:round;">
<circle cx="56000" cy="23000" r="250" /> 
</g>
<g style="fill:#000000; fill-opacity:1.0; 
stroke:#000000; stroke-width:39.3701; stroke-opacity:1; 
stroke-linecap:round; stroke-linejoin:round;">
</g>
<g style="fill:#000000; fill-opacity:1.0; 
stroke:#000000; stroke-width:0; stroke-opacity:1; 
stroke-linecap:round; stroke-linejoin:round;">
<circle cx="56000" cy="24000" r="250" /> 
</g>
<g style="fill:#000000; fill-opacity:1.0; 
stroke:#000000; stroke-width:39.3701; stroke-opacity:1; 
stroke-linecap:round; stroke-linejoin:round;">
</g>
<g style="fill:#000000; fill-opacity:1.0; 
stroke:#000000; stroke-width:0; stroke-opacity:1; 
stroke-linecap:round; stroke-linejoin:round;">
<polyline style="fill-rule:evenodd;"
points="58559,28072
58559,27974
58952,27974
58952,28072
58559,28072
" /> 
<polyline style="fill-rule:evenodd;"
points="58559,28269
58559,28171
58952,28171
58952,28269
58559,28269
" /> 
<polyline style="fill-rule:evenodd;"
points="58559,28466
58559,28368
58952,28368
58952,28466
58559,28466
" /> 
<polyline style="fill-rule:evenodd;"
points="58559,28663
58559,28564
58952,28564
58952,28663
58559,28663
" /> 
<polyline style="fill-rule:evenodd;"
points="58559,28860
58559,28761
58952,28761
58952,28860
58559,28860
" /> 
<polyline style="fill-rule:evenodd;"
points="58559,29057
58559,28958
58952,28958
58952,29057
58559,29057
" /> 
<polyline style="fill-rule:evenodd;"
points="58559,29253
58559,29155
58952,29155
58952,29253
58559,29253
" /> 
<polyline style="fill-rule:evenodd;"
points="58559,29450
58559,29352
58952,29352
58952,29450
58559,29450
" /> 
<polyline style="fill-rule:evenodd;"
points="58559,29647
58559,29549
58952,29549
58952,29647
58559,29647
" /> 
<polyline style="fill-rule:evenodd;"
points="58559,29844
58559,29746
58952,29746
58952,29844
58559,29844
" /> 
<polyline style="fill-rule:evenodd;"
points="58559,30041
58559,29942
58952,29942
58952,30041
58559,30041
" /> 
<polyline style="fill-rule:evenodd;"
points="58559,30238
58559,30139
58952,30139
58952,30238
58559,30238
" /> 
<polyline style="fill-rule:evenodd;"
points="58559,30435
58559,30336
58952,30336
58952,30435
58559,30435
" /> 
<polyline style="fill-rule:evenodd;"
points="58559,30631
58559,30533
58952,30533
58952,30631
58559,30631
" /> 
<polyline style="fill-rule:evenodd;"
points="58559,30828
58559,30730
58952,30730
58952,30828
58559,30828
" /> 
<polyline style="fill-rule:evenodd;"
points="58559,31025
58559,30927
58952,30927
58952,31025
58559,31025
" /> 
<polyline style="fill-rule:evenodd;"
points="59572,31940
59474,31940
59474,31547
59572,31547
59572,31940
" /> 
<polyline style="fill-rule:evenodd;"
points="59769,31940
59671,31940
59671,31547
59769,31547
59769,31940
" /> 
<polyline style="fill-rule:evenodd;"
points="59966,31940
59868,31940
59868,31547
59966,31547
59966,31940
" /> 
<polyline style="fill-rule:evenodd;"
points="60163,31940
60064,31940
60064,31547
60163,31547
60163,31940
" /> 
<polyline style="fill-rule:evenodd;"
points="60360,31940
60261,31940
60261,31547
60360,31547
60360,31940
" /> 
<polyline style="fill-rule:evenodd;"
points="60557,31940
60458,31940
60458,31547
60557,31547
60557,31940
" /> 
<polyline style="fill-rule:evenodd;"
points="60753,31940
60655,31940
60655,31547
60753,31547
60753,31940
" /> 
<polyline style="fill-rule:evenodd;"
points="60950,31940
60852,31940
60852,31547
60950,31547
60950,31940
" /> 
<polyline style="fill-rule:evenodd;"
points="61147,31940
61049,31940
61049,31547
61147,31547
61147,31940
" /> 
<polyline style="fill-rule:evenodd;"
points="61344,31940
61246,31940
61246,31547
61344,31547
61344,31940
" /> 
<polyline style="fill-rule:evenodd;"
points="61541,31940
61442,31940
61442,31547
61541,31547
61541,31940
" /> 
<polyline style="fill-rule:evenodd;"
points="61738,31940
61639,31940
61639,31547
61738,31547
61738,31940
" /> 
<polyline style="fill-rule:evenodd;"
points="61935,31940
61836,31940
61836,31547
61935,31547
61935,31940
" /> 
<polyline style="fill-rule:evenodd;"
points="62131,31940
62033,31940
62033,31547
62131,31547
62131,31940
" /> 
<polyline style="fill-rule:evenodd;"
points="62328,31940
62230,31940
62230,31547
62328,31547
62328,31940
" /> 
<polyline style="fill-rule:evenodd;"
points="62525,31940
62427,31940
62427,31547
62525,31547
62525,31940
" /> 
<polyline style="fill-rule:evenodd;"
points="63047,31025
63047,30927
63440,30927
63440,31025
63047,31025
" /> 
<polyline style="fill-rule:evenodd;"
points="63047,30828
63047,30730
63440,30730
63440,30828
63047,30828
" /> 
<polyline style="fill-rule:evenodd;"
points="63047,30631
63047,30533
63440,30533
63440,30631
63047,30631
" /> 
<polyline style="fill-rule:evenodd;"
points="63047,30435
63047,30336
63440,30336
63440,30435
63047,30435
" /> 
<polyline style="fill-rule:evenodd;"
points="63047,30238
63047,30139
63440,30139
63440,30238
63047,30238
" /> 
<polyline style="fill-rule:evenodd;"
points="63047,30041
63047,29942
63440,29942
63440,30041
63047,30041
" /> 
<polyline style="fill-rule:evenodd;"
points="63047,29844
63047,29746
63440,29746
63440,29844
63047,29844
" /> 
<polyline style="fill-rule:evenodd;"
points="63047,29647
63047,29549
63440,29549
63440,29647
63047,29647
" /> 
<polyline style="fill-rule:evenodd;"
points="63047,29450
63047,29352
63440,29352
63440,29450
63047,29450
" /> 
<polyline style="fill-rule:evenodd;"
points="63047,29253
63047,29155
63440,29155
63440,29253
63047,29253
" /> 
<polyline style="fill-rule:evenodd;"
points="63047,29057
63047,28958
63440,28958
63440,29057
63047,29057
" /> 
<polyline style="fill-rule:evenodd;"
points="63047,28860
63047,28761
63440,28761
63440,28860
63047,28860
" /> 
<polyline style="fill-rule:evenodd;"
points="63047,28663
63047,28564
63440,28564
63440,28663
63047,28663
" /> 
<polyline style="fill-rule:evenodd;"
points="63047,28466
63047,28368
63440,28368
63440,28466
63047,28466
" /> 
<polyline style="fill-rule:evenodd;"
points="63047,28269
63047,28171
63440,28171
63440,28269
63047,28269
" /> 
<polyline style="fill-rule:evenodd;"
points="63047,28072
63047,27974
63440,27974
63440,28072
63047,28072
" /> 
<polyline style="fill-rule:evenodd;"
points="62525,27452
62427,27452
62427,27059
62525,27059
62525,27452
" /> 
<polyline style="fill-rule:evenodd;"
points="62328,27452
62230,27452
62230,27059
62328,27059
62328,27452
" /> 
<polyline style="fill-rule:evenodd;"
points="62131,27452
62033,27452
62033,27059
62131,27059
62131,27452
" /> 
<polyline style="fill-rule:evenodd;"
points="61935,27452
61836,27452
61836,27059
61935,27059
61935,27452
" /> 
<polyline style="fill-rule:evenodd;"
points="61738,27452
61639,27452
61639,27059
61738,27059
61738,27452
" /> 
<polyline style="fill-rule:evenodd;"
points="61541,27452
61442,27452
61442,27059
61541,27059
61541,27452
" /> 
<polyline style="fill-rule:evenodd;"
points="61344,27452
61246,27452
61246,27059
61344,27059
61344,27452
" /> 
<polyline style="fill-rule:evenodd;"
points="61147,27452
61049,27452
61049,27059
61147,27059
61147,27452
" /> 
<polyline style="fill-rule:evenodd;"
points="60950,27452
60852,27452
60852,27059
60950,27059
60950,27452
" /> 
<polyline style="fill-rule:evenodd;"
points="60753,27452
60655,27452
60655,27059
60753,27059
60753,27452
" /> 
<polyline style="fill-rule:evenodd;"
points="60557,27452
60458,27452
60458,27059
60557,27059
60557,27452
" /> 
<polyline style="fill-rule:evenodd;"
points="60360,27452
60261,27452
60261,27059
60360,27059
60360,27452
" /> 
<polyline style="fill-rule:evenodd;"
points="60163,27452
60064,27452
60064,27059
60163,27059
60163,27452
" /> 
<polyline style="fill-rule:evenodd;"
points="59966,27452
59868,27452
59868,27059
59966,27059
59966,27452
" /> 
<polyline style="fill-rule:evenodd;"
points="59769,27452
59671,27452
59671,27059
59769,27059
59769,27452
" /> 
<polyline style="fill-rule:evenodd;"
points="59572,27452
59474,27452
59474,27059
59572,27059
59572,27452
" /> 
<polyline style="fill-rule:evenodd;"
points="53060,20240
53060,19360
53940,19360
53940,20240
53060,20240
" /> 
<polyline style="fill-rule:evenodd;"
points="63660,20240
63660,19360
64540,19360
64540,20240
63660,20240
" /> 
<polyline style="fill-rule:evenodd;"
points="68460,20240
68460,19360
69340,19360
69340,20240
68460,20240
" /> 
<polyline style="fill-rule:evenodd;"
points="73753,28212
74246,28212
74246,28803
73753,28803
73753,28212
" /> 
<polyline style="fill-rule:evenodd;"
points="73753,29196
74246,29196
74246,29787
73753,29787
73753,29196
" /> 
<polyline style="fill-rule:evenodd;"
points="71812,32646
71812,32153
72403,32153
72403,32646
71812,32646
" /> 
<polyline style="fill-rule:evenodd;"
points="72796,32646
72796,32153
73387,32153
73387,32646
72796,32646
" /> 
<polyline style="fill-rule:evenodd;"
points="73287,20653
73287,21146
72696,21146
72696,20653
73287,20653
" /> 
<polyline style="fill-rule:evenodd;"
points="72303,20653
72303,21146
71712,21146
71712,20653
72303,20653
" /> 
<polyline style="fill-rule:evenodd;"
points="73388,28981
73388,29966
72994,29966
72994,28981
73388,28981
" /> 
<polyline style="fill-rule:evenodd;"
points="72797,28981
72797,29966
72403,29966
72403,28981
72797,28981
" /> 
<polyline style="fill-rule:evenodd;"
points="72206,28981
72206,29966
71812,29966
71812,28981
72206,28981
" /> 
<polyline style="fill-rule:evenodd;"
points="72993,30242
72993,31817
72206,31817
72206,30242
72993,30242
" /> 
<polyline style="fill-rule:evenodd;"
points="72206,30252
72403,29957
72797,29957
72994,30252
72206,30252
" /> 
<polyline style="fill-rule:evenodd;"
points="48760,24440
48760,23560
49640,23560
49640,24440
48760,24440
" /> 
<polyline style="fill-rule:evenodd;"
points="48760,27240
48760,26360
49640,26360
49640,27240
48760,27240
" /> 
<polyline style="fill-rule:evenodd;"
points="48760,25840
48760,24960
49640,24960
49640,25840
48760,25840
" /> 
<polyline style="fill-rule:evenodd;"
points="48760,28840
48760,27960
49640,27960
49640,28840
48760,28840
" /> 
<polyline style="fill-rule:evenodd;"
points="48760,30240
48760,29360
49640,29360
49640,30240
48760,30240
" /> 
<polyline style="fill-rule:evenodd;"
points="72706,35406
73493,35406
73493,36193
72706,36193
72706,35406
" /> 
<circle cx="72100" cy="35800" r="393.701" /> 
</g>
<g style="fill:#000000; fill-opacity:1.0; 
stroke:#000000; stroke-width:39.3701; stroke-opacity:1; 
stroke-linecap:round; stroke-linejoin:round;">
</g>
<g style="fill:#000000; fill-opacity:1.0; 
stroke:#000000; stroke-width:0; stroke-opacity:1; 
stroke-linecap:round; stroke-linejoin:round;">
<polyline style="fill-rule:evenodd;"
points="73377,34369
73022,34369
73022,33896
73377,33896
73377,34369
" /> 
<polyline style="fill-rule:evenodd;"
points="73377,33503
73022,33503
73022,33030
73377,33030
73377,33503
" /> 
<circle cx="69900" cy="23100" r="295.276" /> 
</g>
<g style="fill:#000000; fill-opacity:1.0; 
stroke:#000000; stroke-width:39.3701; stroke-opacity:1; 
stroke-linecap:round; stroke-linejoin:round;">
</g>
<g style="fill:#000000; fill-opacity:1.0; 
stroke:#000000; stroke-width:0; stroke-opacity:1; 
stroke-linecap:round; stroke-linejoin:round;">
<circle cx="65500" cy="25300" r="295.276" /> 
</g>
<g style="fill:#000000; fill-opacity:1.0; 
stroke:#000000; stroke-width:39.3701; stroke-opacity:1; 
stroke-linecap:round; stroke-linejoin:round;">
</g>
<g style="fill:#000000; fill-opacity:1.0; 
stroke:#000000; stroke-width:0; stroke-opacity:1; 
stroke-linecap:round; stroke-linejoin:round;">
<circle cx="52400" cy="32600" r="295.276" /> 
</g>
<g style="fill:#000000; fill-opacity:1.0; 
stroke:#000000; stroke-width:39.3701; stroke-opacity:1; 
stroke-linecap:round; stroke-linejoin:round;">
</g>
<g style="fill:#000000; fill-opacity:1.0; 
stroke:#000000; stroke-width:0; stroke-opacity:1; 
stroke-linecap:round; stroke-linejoin:round;">
<circle cx="64700" cy="26700" r="295.276" /> 
</g>
<g style="fill:#000000; fill-opacity:1.0; 
stroke:#000000; stroke-width:39.3701; stroke-opacity:1; 
stroke-linecap:round; stroke-linejoin:round;">
</g>
<g style="fill:#000000; fill-opacity:1.0; 
stroke:#000000; stroke-width:0; stroke-opacity:1; 
stroke-linecap:round; stroke-linejoin:round;">
<circle cx="59200" cy="25500" r="295.276" /> 
</g>
<g style="fill:#000000; fill-opacity:1.0; 
stroke:#000000; stroke-width:39.3701; stroke-opacity:1; 
stroke-linecap:round; stroke-linejoin:round;">
</g>
<g style="fill:#000000; fill-opacity:1.0; 
stroke:#000000; stroke-width:98.4252; stroke-opacity:1; 
stroke-linecap:round; stroke-linejoin:round;">
</g>
<g style="fill:#000000; fill-opacity:0.0; 
stroke:#000000; stroke-width:98.4252; stroke-opacity:1; 
stroke-linecap:round; stroke-linejoin:round;">
<path d="M52300 21979
L51321 21979
" />
<path d="M57607 29007
L58755 29007
" />
<path d="M56700 28100
L57607 29007
" />
<path d="M52300 28100
L56700 28100
" />
<path d="M51300 27100
L52300 28100
" />
<path d="M51300 22000
L51300 27100
" />
<path d="M51321 21979
L51300 22000
" />
<path d="M52300 22992
L52307 23000
" />
<path d="M52300 21979
L52300 22992
" />
<path d="M62279 31744
L62279 32079
" />
<path d="M59600 30200
L59600 30188
" />
<path d="M62400 30200
L59600 30200
" />
<path d="M62800 30600
L62400 30200
" />
<path d="M62800 31200
L62800 30600
" />
<path d="M63200 31600
L62800 31200
" />
<path d="M63200 32200
L63200 31600
" />
<path d="M62400 32200
L63200 32200
" />
<path d="M62279 32079
L62400 32200
" />
<path d="M54264 29614
L53514 29614
" />
<path d="M50100 26800
L49200 26800
" />
<path d="M51800 28500
L50100 26800
" />
<path d="M52400 28500
L51800 28500
" />
<path d="M53514 29614
L52400 28500
" />
</g>
<g style="fill:#000000; fill-opacity:0.0; 
stroke:#000000; stroke-width:393.701; stroke-opacity:1; 
stroke-linecap:round; stroke-linejoin:round;">
<path d="M73191 29474
L73981 29474
" />
</g>
<g style="fill:#000000; fill-opacity:0.0; 
stroke:#000000; stroke-width:98.4252; stroke-opacity:1; 
stroke-linecap:round; stroke-linejoin:round;">
<path d="M73981 29474
L74000 29492
" />
<path d="M63244 28220
L64079 28220
" />
<path d="M69900 23100
L72000 23100
" />
<path d="M65500 26800
L65500 25300
" />
<path d="M64079 28220
L65500 26800
" />
</g>
<g style="fill:#000000; fill-opacity:0.0; 
stroke:#000000; stroke-width:393.701; stroke-opacity:1; 
stroke-linecap:round; stroke-linejoin:round;">
<path d="M49200 19800
L49200 21200
" />
<path d="M49200 21200
L49200 22600
" />
<path d="M49200 24000
L49200 22600
" />
<path d="M49200 25400
L49200 24000
" />
<path d="M49200 26800
L49200 25400
" />
<path d="M73092 32400
L73092 33159
" />
</g>
<g style="fill:#000000; fill-opacity:0.0; 
stroke:#000000; stroke-width:98.4252; stroke-opacity:1; 
stroke-linecap:round; stroke-linejoin:round;">
<path d="M73092 33159
L73200 33266
" />
</g>
<g style="fill:#000000; fill-opacity:0.0; 
stroke:#000000; stroke-width:393.701; stroke-opacity:1; 
stroke-linecap:round; stroke-linejoin:round;">
<path d="M74000 29492
L74000 32300
" />
<path d="M73900 32400
L73092 32400
" />
</g>
<g style="fill:#000000; fill-opacity:0.0; 
stroke:#000000; stroke-width:98.4252; stroke-opacity:1; 
stroke-linecap:round; stroke-linejoin:round;">
<path d="M74000 32300
L73900 32400
" />
</g>
<g style="fill:#000000; fill-opacity:0.0; 
stroke:#000000; stroke-width:393.701; stroke-opacity:1; 
stroke-linecap:round; stroke-linejoin:round;">
<path d="M75096 25752
L75096 29396
" />
<path d="M74999 29492
L74000 29492
" />
</g>
<g style="fill:#000000; fill-opacity:0.0; 
stroke:#000000; stroke-width:98.4252; stroke-opacity:1; 
stroke-linecap:round; stroke-linejoin:round;">
<path d="M75096 29396
L74999 29492
" />
<path d="M72892 23685
L75096 23685
" />
<path d="M75100 23700
L75096 23700
" />
<path d="M75100 23689
L75100 23700
" />
<path d="M75096 23685
L75100 23689
" />
</g>
<g style="fill:#000000; fill-opacity:0.0; 
stroke:#000000; stroke-width:393.701; stroke-opacity:1; 
stroke-linecap:round; stroke-linejoin:round;">
<path d="M75096 22248
L75096 23700
" />
<path d="M75096 23700
L75096 25752
" />
<path d="M72992 20900
L73748 20900
" />
<path d="M73748 20900
L75096 22248
" />
<path d="M72992 20900
L72992 20292
" />
</g>
<g style="fill:#000000; fill-opacity:0.0; 
stroke:#000000; stroke-width:98.4252; stroke-opacity:1; 
stroke-linecap:round; stroke-linejoin:round;">
<path d="M72992 20292
L72500 19800
" />
<path d="M72892 23685
L72015 23685
" />
<path d="M72015 23685
L72000 23670
" />
<path d="M72000 23670
L72000 23100
" />
<path d="M72992 21492
L72992 20900
" />
<path d="M72000 23100
L72000 21600
" />
<path d="M72000 21600
L72100 21500
" />
<path d="M72100 21500
L73000 21500
" />
<path d="M73000 21500
L72992 21492
" />
</g>
<g style="fill:#000000; fill-opacity:0.0; 
stroke:#000000; stroke-width:393.701; stroke-opacity:1; 
stroke-linecap:round; stroke-linejoin:round;">
<path d="M52000 19800
L52000 18600
" />
<path d="M52000 18600
L55800 18600
" />
<path d="M50600 19800
L52000 19800
" />
<path d="M49200 19800
L50600 19800
" />
</g>
<g style="fill:#000000; fill-opacity:0.0; 
stroke:#000000; stroke-width:98.4252; stroke-opacity:1; 
stroke-linecap:round; stroke-linejoin:round;">
<path d="M53292 23000
L53292 20807
" />
<path d="M53292 20807
L53084 20600
" />
<path d="M53084 20600
L52000 20600
" />
<path d="M52000 20600
L52000 19800
" />
<path d="M53307 24900
L53307 25784
" />
<path d="M53307 25784
L53292 25800
" />
<path d="M53292 23000
L53292 24884
" />
<path d="M53292 24884
L53307 24900
" />
<path d="M53292 23000
L54307 23000
" />
</g>
<g style="fill:#000000; fill-opacity:0.0; 
stroke:#000000; stroke-width:393.701; stroke-opacity:1; 
stroke-linecap:round; stroke-linejoin:round;">
<path d="M70900 19800
L70900 18600
" />
<path d="M70900 18600
L55800 18600
" />
</g>
<g style="fill:#000000; fill-opacity:0.0; 
stroke:#000000; stroke-width:98.4252; stroke-opacity:1; 
stroke-linecap:round; stroke-linejoin:round;">
<path d="M59720 27255
L59720 25120
" />
<path d="M55800 21200
L55800 18600
" />
<path d="M59720 25120
L55800 21200
" />
<path d="M59688 30188
L59688 28251
" />
<path d="M59688 28251
L59720 28220
" />
<path d="M58755 30188
L59600 30188
" />
<path d="M59600 30188
L59688 30188
" />
<path d="M59720 30220
L59720 31744
" />
<path d="M59688 30188
L59720 30220
" />
<path d="M60311 27255
L60311 28220
" />
<path d="M60300 28200
L60300 28220
" />
<path d="M60300 28209
L60300 28200
" />
<path d="M60311 28220
L60300 28209
" />
<path d="M63244 28220
L60300 28220
" />
<path d="M60300 28220
L59720 28220
" />
<path d="M59720 28220
L59720 27255
" />
</g>
<g style="fill:#000000; fill-opacity:0.0; 
stroke:#000000; stroke-width:393.701; stroke-opacity:1; 
stroke-linecap:round; stroke-linejoin:round;">
<path d="M72500 19800
L70900 19800
" />
</g>
<g style="fill:#000000; fill-opacity:0.0; 
stroke:#000000; stroke-width:98.4252; stroke-opacity:1; 
stroke-linecap:round; stroke-linejoin:round;">
<path d="M52300 26821
L55821 26821
" />
<path d="M57811 28811
L58755 28811
" />
<path d="M55821 26821
L57811 28811
" />
<path d="M52300 26821
L52300 25807
" />
<path d="M52300 25807
L52307 25800
" />
<path d="M55292 23000
L56000 23000
" />
<path d="M58117 28417
L58755 28417
" />
<path d="M58100 28400
L58117 28417
" />
<path d="M58100 25100
L58100 28400
" />
<path d="M56000 23000
L58100 25100
" />
<path d="M54292 24900
L56000 24900
" />
<path d="M56000 24900
L56000 24000
" />
<path d="M56000 24000
L56500 24000
" />
<path d="M57914 28614
L58755 28614
" />
<path d="M57900 28600
L57914 28614
" />
<path d="M57900 25400
L57900 28600
" />
<path d="M56500 24000
L57900 25400
" />
<path d="M64200 38800
L64200 35800
" />
<path d="M61098 34498
L61098 31744
" />
<path d="M61100 34500
L61098 34498
" />
<path d="M62900 34500
L61100 34500
" />
<path d="M64200 35800
L62900 34500
" />
<path d="M63200 38800
L63200 35300
" />
<path d="M60901 34898
L60901 31744
" />
<path d="M60900 34900
L60901 34898
" />
<path d="M62800 34900
L60900 34900
" />
<path d="M63200 35300
L62800 34900
" />
<path d="M65500 19800
L65500 21800
" />
<path d="M61688 25611
L61688 27255
" />
<path d="M65500 21800
L61688 25611
" />
<path d="M66500 19800
L66500 21300
" />
<path d="M61885 25914
L61885 27255
" />
<path d="M66500 21300
L61885 25914
" />
<path d="M67500 19800
L67500 20800
" />
<path d="M62082 26217
L62082 27255
" />
<path d="M67500 20800
L62082 26217
" />
<path d="M58755 29992
L57907 29992
" />
<path d="M52200 37800
L52200 38800
" />
<path d="M57300 32700
L52200 37800
" />
<path d="M57300 30600
L57300 32700
" />
<path d="M57907 29992
L57300 30600
" />
<path d="M58755 29795
L57704 29795
" />
<path d="M51200 38000
L51200 38800
" />
<path d="M51600 38000
L51200 38000
" />
<path d="M57000 32600
L51600 38000
" />
<path d="M57000 30500
L57000 32600
" />
<path d="M57704 29795
L57000 30500
" />
<path d="M58755 29598
L57501 29598
" />
<path d="M50200 38000
L50200 38800
" />
<path d="M50600 37600
L50200 38000
" />
<path d="M51300 37600
L50600 37600
" />
<path d="M56600 32300
L51300 37600
" />
<path d="M56600 30500
L56600 32300
" />
<path d="M57501 29598
L56600 30500
" />
<path d="M58755 29401
L57298 29401
" />
<path d="M49200 38000
L49200 38800
" />
<path d="M49700 38000
L49200 38000
" />
<path d="M50400 37300
L49700 38000
" />
<path d="M51100 37300
L50400 37300
" />
<path d="M56300 32100
L51100 37300
" />
<path d="M56300 30400
L56300 32100
" />
<path d="M57298 29401
L56300 30400
" />
<path d="M63244 29598
L66601 29598
" />
<path d="M66950 29250
L70500 29250
" />
<path d="M66601 29598
L66950 29250
" />
<path d="M63244 29795
L66595 29795
" />
<path d="M67050 30250
L70500 30250
" />
<path d="M66595 29795
L67050 30250
" />
<path d="M63244 29992
L66192 29992
" />
<path d="M67450 31250
L70500 31250
" />
<path d="M66192 29992
L67450 31250
" />
<path d="M63244 30188
L65988 30188
" />
<path d="M68050 32250
L70500 32250
" />
<path d="M65988 30188
L68050 32250
" />
<path d="M54900 19800
L54900 20900
" />
<path d="M58755 24755
L58755 28023
" />
<path d="M54900 20900
L58755 24755
" />
<path d="M58755 30582
L58217 30582
" />
<path d="M54000 38000
L54000 38800
" />
<path d="M57900 34100
L54000 38000
" />
<path d="M57900 30900
L57900 34100
" />
<path d="M58217 30582
L57900 30900
" />
<path d="M58755 30779
L58320 30779
" />
<path d="M55000 38100
L55000 38800
" />
<path d="M58300 34800
L55000 38100
" />
<path d="M58300 30800
L58300 34800
" />
<path d="M58320 30779
L58300 30800
" />
<path d="M58755 30976
L58755 34744
" />
<path d="M56000 37500
L56000 38800
" />
<path d="M58755 34744
L56000 37500
" />
<path d="M59523 31744
L59523 34476
" />
<path d="M57000 37000
L57000 38800
" />
<path d="M59523 34476
L57000 37000
" />
<path d="M63244 29401
L65998 29401
" />
<path d="M67850 27750
L70500 27750
" />
<path d="M66200 29400
L67850 27750
" />
<path d="M66000 29400
L66200 29400
" />
<path d="M65998 29401
L66000 29400
" />
<path d="M63244 29204
L65995 29204
" />
<path d="M68450 26750
L70500 26750
" />
<path d="M65995 29204
L68450 26750
" />
<path d="M63244 29007
L65592 29007
" />
<path d="M68850 25750
L70500 25750
" />
<path d="M65592 29007
L68850 25750
" />
<path d="M61885 31744
L61885 32885
" />
<path d="M69150 38750
L70500 38750
" />
<path d="M63400 33000
L69150 38750
" />
<path d="M62000 33000
L63400 33000
" />
<path d="M61885 32885
L62000 33000
" />
<path d="M70500 37750
L69050 37750
" />
<path d="M62082 32582
L62082 31744
" />
<path d="M62100 32600
L62082 32582
" />
<path d="M63900 32600
L62100 32600
" />
<path d="M69050 37750
L63900 32600
" />
<path d="M63244 30976
L64726 30976
" />
<path d="M64726 30976
L70500 36750
" />
<path d="M63244 30779
L65379 30779
" />
<path d="M70150 35400
L70500 35750
" />
<path d="M70000 35400
L70150 35400
" />
<path d="M65379 30779
L70000 35400
" />
<path d="M63244 30582
L65582 30582
" />
<path d="M69600 34600
L70350 34600
" />
<path d="M65582 30582
L69600 34600
" />
<path d="M70350 34600
L70500 34750
" />
<path d="M63244 30385
L65785 30385
" />
<path d="M69150 33750
L70500 33750
" />
<path d="M65785 30385
L69150 33750
" />
<path d="M62700 19800
L62700 23000
" />
<path d="M61295 24404
L61295 27255
" />
<path d="M62700 23000
L61295 24404
" />
<path d="M61700 19800
L61700 23600
" />
<path d="M61098 24201
L61098 27255
" />
<path d="M61700 23600
L61098 24201
" />
<path d="M60700 19800
L60700 24000
" />
<path d="M60901 24201
L60901 27255
" />
<path d="M60700 24000
L60901 24201
" />
<path d="M59700 19800
L59700 23400
" />
<path d="M60700 24400
L60700 27200
" />
<path d="M59700 23400
L60700 24400
" />
<path d="M60700 27200
L60704 27255
" />
<path d="M60507 27255
L60507 24607
" />
<path d="M58700 22800
L58700 19800
" />
<path d="M60507 24607
L58700 22800
" />
<path d="M57700 19800
L57700 22300
" />
<path d="M60114 24714
L60114 27255
" />
<path d="M57700 22300
L60114 24714
" />
<path d="M59917 27255
L59917 24917
" />
<path d="M56700 21700
L56700 19800
" />
<path d="M59917 24917
L56700 21700
" />
<path d="M60114 31744
L60114 34585
" />
<path d="M58800 35900
L58800 38800
" />
<path d="M60114 34585
L58800 35900
" />
<path d="M60311 31744
L60311 34888
" />
<path d="M59800 35400
L59800 38800
" />
<path d="M60311 34888
L59800 35400
" />
<path d="M60507 31744
L60507 38507
" />
<path d="M60507 38507
L60800 38800
" />
<path d="M60704 31744
L60704 35104
" />
<path d="M61800 36200
L61800 38800
" />
<path d="M60704 35104
L61800 36200
" />
<path d="M63244 28417
L64482 28417
" />
<path d="M69200 21800
L70900 21800
" />
<path d="M69200 23700
L69200 21800
" />
<path d="M64482 28417
L69200 23700
" />
<path d="M70900 21800
L70900 22100
" />
<path d="M63244 28437
L63244 28417
" />
<path d="M65600 38800
L65600 36700
" />
<path d="M61295 34095
L61295 31744
" />
<path d="M61300 34100
L61295 34095
" />
<path d="M63000 34100
L61300 34100
" />
<path d="M65600 36700
L63000 34100
" />
<path d="M66600 38800
L66600 37200
" />
<path d="M61492 33692
L61492 31744
" />
<path d="M61500 33700
L61492 33692
" />
<path d="M63100 33700
L61500 33700
" />
<path d="M66600 37200
L63100 33700
" />
<path d="M67600 38800
L67600 37700
" />
<path d="M61688 33288
L61688 31744
" />
<path d="M61700 33300
L61688 33288
" />
<path d="M63200 33300
L61700 33300
" />
<path d="M67600 37700
L63200 33300
" />
<path d="M72000 28100
L73592 28100
" />
<path d="M73592 28100
L74000 28507
" />
</g>
<g style="fill:#000000; fill-opacity:0.0; 
stroke:#000000; stroke-width:393.701; stroke-opacity:1; 
stroke-linecap:round; stroke-linejoin:round;">
<path d="M71900 28000
L71900 29365
" />
</g>
<g style="fill:#000000; fill-opacity:0.0; 
stroke:#000000; stroke-width:98.4252; stroke-opacity:1; 
stroke-linecap:round; stroke-linejoin:round;">
<path d="M71900 29365
L72009 29474
" />
<path d="M71900 27300
L71900 28000
" />
<path d="M71900 28000
L72000 28100
" />
<path d="M72000 28100
L72050 28150
" />
<path d="M73000 27300
L72900 27300
" />
<path d="M72900 27300
L72050 28150
" />
<path d="M72050 28150
L72009 28191
" />
</g>
<g style="fill:#000000; fill-opacity:0.0; 
stroke:#000000; stroke-width:393.701; stroke-opacity:1; 
stroke-linecap:round; stroke-linejoin:round;">
<path d="M72009 28191
L72009 29474
" />
</g>
<g style="fill:#000000; fill-opacity:0.0; 
stroke:#000000; stroke-width:98.4252; stroke-opacity:1; 
stroke-linecap:round; stroke-linejoin:round;">
<path d="M73000 27300
L73000 27507
" />
<path d="M73000 27507
L74000 28507
" />
<path d="M72892 24630
L71970 24630
" />
<path d="M71900 27300
L73000 27300
" />
</g>
<g style="fill:#000000; fill-opacity:0.0; 
stroke:#000000; stroke-width:393.701; stroke-opacity:1; 
stroke-linecap:round; stroke-linejoin:round;">
<path d="M71900 24700
L71900 27300
" />
</g>
<g style="fill:#000000; fill-opacity:0.0; 
stroke:#000000; stroke-width:98.4252; stroke-opacity:1; 
stroke-linecap:round; stroke-linejoin:round;">
<path d="M71970 24630
L71900 24700
" />
<path d="M72892 24315
L69685 24315
" />
<path d="M65188 28811
L63244 28811
" />
<path d="M69685 24315
L65188 28811
" />
<path d="M72892 24000
L69500 24000
" />
<path d="M64885 28614
L63244 28614
" />
<path d="M69500 24000
L64885 28614
" />
<path d="M52400 32600
L49200 32600
" />
<path d="M59523 27255
L59523 27023
" />
<path d="M63876 28023
L63244 28023
" />
<path d="M64000 27900
L63876 28023
" />
<path d="M64000 27400
L64000 27900
" />
<path d="M64700 26700
L64000 27400
" />
<path d="M59200 26700
L59200 25500
" />
<path d="M59523 27023
L59200 26700
" />
</g>
<g style="fill:#000000; fill-opacity:0.0; 
stroke:#000000; stroke-width:393.701; stroke-opacity:1; 
stroke-linecap:round; stroke-linejoin:round;">
<path d="M49200 29800
L49200 28400
" />
<path d="M49200 31200
L49200 29800
" />
<path d="M49200 32600
L49200 31200
" />
<path d="M49200 34000
L49200 32600
" />
<path d="M49200 35400
L49200 34000
" />
<path d="M49200 36800
L49200 35400
" />
<path d="M72100 35800
L72100 39100
" />
<path d="M71200 40000
L57900 40000
" />
<path d="M72100 39100
L71200 40000
" />
<path d="M72107 32400
L72107 35792
" />
</g>
<g style="fill:#000000; fill-opacity:0.0; 
stroke:#000000; stroke-width:98.4252; stroke-opacity:1; 
stroke-linecap:round; stroke-linejoin:round;">
<path d="M72107 35792
L72100 35800
" />
</g>
<g style="fill:#000000; fill-opacity:0.0; 
stroke:#000000; stroke-width:393.701; stroke-opacity:1; 
stroke-linecap:round; stroke-linejoin:round;">
<path d="M72600 31030
L72600 31907
" />
<path d="M72600 31907
L72107 32400
" />
</g>
<g style="fill:#000000; fill-opacity:0.0; 
stroke:#000000; stroke-width:98.4252; stroke-opacity:1; 
stroke-linecap:round; stroke-linejoin:round;">
<path d="M72600 29474
L72600 31030
" />
<path d="M72600 31030
L72600 30105
" />
</g>
<g style="fill:#000000; fill-opacity:0.0; 
stroke:#000000; stroke-width:393.701; stroke-opacity:1; 
stroke-linecap:round; stroke-linejoin:round;">
<path d="M49200 36800
L48200 36800
" />
<path d="M48200 38100
L48200 40000
" />
<path d="M48200 36800
L48200 38100
" />
<path d="M48200 40000
L53200 40000
" />
</g>
<g style="fill:#000000; fill-opacity:0.0; 
stroke:#000000; stroke-width:98.4252; stroke-opacity:1; 
stroke-linecap:round; stroke-linejoin:round;">
<path d="M63244 28023
L63376 28023
" />
<path d="M59917 31744
L59917 34482
" />
<path d="M57900 36500
L57900 40000
" />
<path d="M59917 34482
L57900 36500
" />
</g>
<g style="fill:#000000; fill-opacity:0.0; 
stroke:#000000; stroke-width:393.701; stroke-opacity:1; 
stroke-linecap:round; stroke-linejoin:round;">
<path d="M57900 40000
L53200 40000
" />
</g>
<g style="fill:#000000; fill-opacity:0.0; 
stroke:#000000; stroke-width:98.4252; stroke-opacity:1; 
stroke-linecap:round; stroke-linejoin:round;">
<path d="M58755 30385
L57914 30385
" />
<path d="M53200 37900
L53200 40000
" />
<path d="M57600 33500
L53200 37900
" />
<path d="M57600 30700
L57600 33500
" />
<path d="M57914 30385
L57600 30700
" />
<path d="M59917 31744
L59917 31317
" />
<path d="M62476 31223
L62476 31744
" />
<path d="M62500 31200
L62476 31223
" />
<path d="M60034 31200
L62500 31200
" />
<path d="M59917 31317
L60034 31200
" />
<path d="M58755 29204
L57095 29204
" />
<path d="M55585 31385
L54264 31385
" />
<path d="M55600 31400
L55585 31385
" />
<path d="M55600 30700
L55600 31400
" />
<path d="M57095 29204
L55600 30700
" />
<path d="M53500 19800
L53500 19900
" />
<path d="M53500 19900
L58300 24700
" />
<path d="M58300 24700
L58300 28200
" />
<path d="M58300 28200
L58320 28220
" />
<path d="M58320 28220
L58755 28220
" />
<path d="M64100 19800
L64100 22700
" />
<path d="M61492 25307
L61492 27255
" />
<path d="M64100 22700
L61492 25307
" />
<path d="M68900 19800
L68900 19900
" />
<path d="M68900 19900
L62279 26520
" />
<path d="M62279 26520
L62279 27255
" />
<path d="M70900 20800
L71907 20800
" />
<path d="M71907 20800
L72007 20900
" />
<path d="M70900 20800
L68932 20800
" />
<path d="M68932 20800
L62476 27255
" />
</g>
<g style="fill:#000000; fill-opacity:0.0; 
stroke:#000000; stroke-width:393.701; stroke-opacity:1; 
stroke-linecap:round; stroke-linejoin:round;">
<path d="M73200 34133
L73200 35700
" />
</g>
<g style="fill:#000000; fill-opacity:0.0; 
stroke:#000000; stroke-width:98.4252; stroke-opacity:1; 
stroke-linecap:round; stroke-linejoin:round;">
<path d="M73200 35700
L73100 35800
" />
</g>
<g style="fill:#000000; fill-opacity:1.0; 
stroke:#000000; stroke-width:100; stroke-opacity:1; 
stroke-linecap:round; stroke-linejoin:round;">
<polyline style="fill-rule:evenodd;"
points="74550,28650
74496,28650
74496,28620
74433,28557
74050,28557
74050,28565
73950,28565
73950,28557
73566,28557
73503,28620
73503,28650
71750,28650
71750,28162
73503,28162
73503,28395
73566,28457
73950,28457
73950,28025
74050,28025
74050,28457
74433,28457
74496,28395
74496,28162
74458,28070
74387,28000
74295,27962
74112,27962
74050,28025
73950,28025
73887,27962
73704,27962
73612,28000
73541,28070
73503,28162
71750,28162
71750,27412
72310,27412
72310,27789
72348,27881
72418,27951
72510,27990
72887,27990
72950,27927
72950,27350
73050,27350
73050,27927
73112,27990
73489,27990
73581,27951
73651,27881
73690,27789
73690,27412
73627,27350
73050,27350
72950,27350
72372,27350
72310,27412
71750,27412
71750,26810
72310,26810
72310,27187
72372,27250
72950,27250
72950,26672
73050,26672
73050,27250
73627,27250
73690,27187
73690,26810
73651,26718
73581,26648
73489,26610
73112,26610
73050,26672
72950,26672
72887,26610
72510,26610
72418,26648
72348,26718
72310,26810
71750,26810
71750,26550
74550,26550
74550,28650
" /> 
</g>
<g style="fill:#000000; fill-opacity:1.0; 
stroke:#000000; stroke-width:157.48; stroke-opacity:1; 
stroke-linecap:round; stroke-linejoin:round;">
<polyline style="fill-rule:evenodd;"
points="75921,40921
47478,40921
47478,36800
47609,36800
47609,40000
47654,40225
47782,40417
47974,40545
48200,40590
71200,40590
71425,40545
71617,40417
72517,39517
72645,39325
72690,39100
72690,36591
72706,36595
73493,36595
73639,36567
73773,36481
73863,36349
73895,36193
73895,35406
73867,35260
73790,35140
73790,34133
73778,34072
73778,33896
73751,33750
73664,33616
73639,33599
73655,33558
73655,33357
73586,33288
73221,33288
73221,33296
73178,33296
73178,33288
72813,33288
72744,33357
72744,33558
72760,33597
72742,33609
72698,33674
72698,32911
72700,32907
72741,32924
72764,32924
72744,32975
72744,33175
72813,33245
73178,33245
73178,33237
73221,33237
73221,33245
73586,33245
73655,33175
73655,32975
73613,32872
73584,32843
73623,32803
73666,32701
73666,32490
73596,32421
73113,32421
73113,32429
73070,32429
73070,32421
73062,32421
73062,32378
73070,32378
73070,32370
73113,32370
73113,32378
73596,32378
73666,32309
73666,32098
73623,31996
73545,31917
73442,31875
73383,31875
73394,31817
73394,30245
73443,30245
73545,30202
73624,30124
73655,30048
73698,30066
73909,30066
73978,29996
73978,29513
74021,29513
74021,29996
74090,30066
74301,30066
74403,30023
74482,29945
74524,29842
74524,29583
74455,29513
74021,29513
73978,29513
73615,29513
73597,29495
73212,29495
73212,29503
73198,29503
73198,28981
73170,28835
73169,28833
73169,28772
73100,28702
73085,28702
73084,28701
72953,28611
72797,28580
72599,28580
72599,28542
73352,28542
73352,28702
73281,28702
73212,28772
73212,29452
73526,29452
73544,29470
73978,29470
73978,29462
74021,29462
74021,29470
74455,29470
74524,29401
74524,29141
74508,29102
74525,29090
74615,28959
74647,28803
74647,28212
74620,28066
74533,27932
74402,27842
74246,27811
73929,27811
73841,27722
73841,26860
73813,26714
73727,26580
73604,26496
73702,26433
73792,26301
73824,26145
73824,25842
74325,25842
74325,26200
74367,26303
74446,26381
74548,26424
75005,26424
75074,26354
75074,25773
75117,25773
75117,26354
75186,26424
75643,26424
75745,26381
75824,26303
75866,26200
75866,25842
75797,25773
75117,25773
75074,25773
74394,25773
74325,25842
73824,25842
73824,25436
74028,25436
74237,25350
74353,25234
74325,25303
74325,25661
74394,25730
75074,25730
75074,25149
75117,25149
75117,25730
75797,25730
75866,25661
75866,25303
75824,25200
75745,25122
75643,25079
75186,25079
75117,25149
75074,25149
75005,25079
74548,25079
74446,25122
74412,25155
74485,24980
74485,24752
74399,24543
74238,24382
74029,24295
73801,24295
73746,24318
73746,24216
73734,24155
73746,24098
73746,23901
73718,23755
73673,23685
73691,23659
73800,23704
74028,23704
74237,23618
74398,23457
74485,23248
74485,23020
74412,22844
74446,22877
74548,22920
75005,22920
75074,22850
75074,22269
75117,22269
75117,22850
75186,22920
75643,22920
75745,22877
75824,22799
75866,22696
75866,22338
75797,22269
75117,22269
75074,22269
74394,22269
74325,22338
74325,22696
74353,22765
74238,22650
74029,22563
73824,22563
73824,21854
73813,21799
74325,21799
74325,22157
74394,22226
75074,22226
75074,21645
75117,21645
75117,22226
75797,22226
75866,22157
75866,21799
75824,21696
75745,21618
75643,21575
75186,21575
75117,21645
75074,21645
75005,21575
74548,21575
74446,21618
74367,21696
74325,21799
73813,21799
73796,21708
73710,21574
73579,21484
73423,21453
72553,21453
72583,21433
72600,21407
72641,21424
72901,21424
72970,21355
72970,20921
73013,20921
73013,21355
73083,21424
73342,21424
73445,21382
73523,21303
73566,21201
73566,20990
73496,20921
73013,20921
72970,20921
72962,20921
72962,20878
72970,20878
72970,20870
73013,20870
73013,20878
73496,20878
73566,20809
73566,20598
73523,20496
73445,20417
73342,20375
73185,20375
73218,20295
73218,19890
73149,19821
72521,19821
72521,19829
72478,19829
72478,19821
71850,19821
71781,19890
71781,20252
71712,20252
71566,20279
71515,20312
71494,20281
71409,20224
71412,20222
71539,20017
71567,19917
71508,19821
70921,19821
70921,19829
70878,19829
70878,19821
70291,19821
70232,19917
70260,20017
70387,20222
70390,20224
70305,20281
70254,20357
69717,20357
69741,20240
69741,19682
70232,19682
70291,19778
70878,19778
70878,19181
70921,19181
70921,19778
71508,19778
71567,19682
71539,19582
71412,19377
71311,19304
71781,19304
71781,19709
71850,19778
72478,19778
72478,19150
72521,19150
72521,19778
73149,19778
73218,19709
73218,19304
73176,19202
73097,19123
72995,19081
72590,19081
72521,19150
72478,19150
72409,19081
72004,19081
71902,19123
71823,19202
71781,19304
71311,19304
71216,19236
70981,19181
70921,19181
70878,19181
70818,19181
70583,19236
70387,19377
70260,19582
70232,19682
69741,19682
69741,19360
69713,19214
69627,19080
69496,18990
69340,18958
68460,18958
68314,18986
68180,19072
68090,19203
68073,19287
68018,19205
67780,19046
67500,18990
67219,19046
67000,19193
66780,19046
66500,18990
66219,19046
66118,19113
65996,19030
65840,18998
65160,18998
65014,19026
64880,19112
64863,19136
64827,19080
64696,18990
64540,18958
63660,18958
63514,18986
63380,19072
63337,19134
63327,19120
63196,19030
63040,18998
62360,18998
62214,19026
62080,19112
62079,19112
61980,19046
61700,18990
61419,19046
61200,19193
60980,19046
60700,18990
60419,19046
60200,19193
59980,19046
59700,18990
59419,19046
59200,19193
58980,19046
58700,18990
58419,19046
58200,19193
57980,19046
57700,18990
57419,19046
57200,19193
56980,19046
56700,18990
56419,19046
56181,19205
56022,19443
55966,19724
55966,19875
56022,20156
56181,20394
56257,20445
56257,21630
55342,20716
55342,20640
55485,20613
55619,20527
55709,20396
55741,20240
55741,19360
55713,19214
55627,19080
55496,18990
55340,18958
54460,18958
54314,18986
54198,19060
54096,18990
53940,18958
53060,18958
52914,18986
52780,19072
52690,19203
52685,19225
52676,19202
52597,19123
52495,19081
52090,19081
52021,19150
52021,19778
52029,19778
52029,19821
52021,19821
52021,20449
52090,20518
52495,20518
52597,20476
52676,20397
52684,20377
52686,20385
52772,20519
52903,20609
53060,20641
53615,20641
55326,22352
54996,22352
54850,22379
54716,22466
54699,22492
54658,22475
54398,22475
54329,22544
54329,22978
54337,22978
54337,23021
54329,23021
54329,23455
54398,23524
54658,23524
54697,23508
54709,23525
54840,23615
54996,23647
55449,23647
55356,23871
55356,24127
55453,24364
55546,24457
54928,24457
54875,24374
54743,24284
54587,24252
53996,24252
53850,24279
53716,24366
53699,24392
53658,24375
53398,24375
53329,24444
53329,24878
53337,24878
53337,24921
53329,24921
53329,25329
53313,25344
53313,25778
53796,25778
53866,25709
53866,25521
53996,25547
54587,25547
54733,25520
54867,25433
54929,25342
56000,25342
56169,25309
56313,25213
56409,25069
56442,24900
56442,24569
57457,25583
57457,27830
56134,26507
56098,26483
55990,26411
55821,26378
53075,26378
53053,26324
53201,26324
53270,26255
53270,25821
53313,25821
53313,26255
53383,26324
53642,26324
53745,26282
53823,26203
53866,26101
53866,25890
53796,25821
53313,25821
53270,25821
53262,25821
53262,25778
53270,25778
53270,25370
53286,25355
53286,24921
52803,24921
52733,24990
52733,25178
52603,25152
52012,25152
51866,25179
51742,25259
51742,24598
52733,24598
52733,24809
52803,24878
53286,24878
53286,24444
53216,24375
52957,24375
52854,24417
52776,24496
52733,24598
51742,24598
51742,23538
51856,23615
52012,23647
52603,23647
52749,23620
52883,23533
52900,23507
52941,23524
53201,23524
53270,23455
53270,23021
53313,23021
53313,23455
53383,23524
53642,23524
53745,23482
53800,23427
53854,23482
53957,23524
54216,23524
54286,23455
54286,23021
53803,23021
53800,23024
53796,23021
53313,23021
53270,23021
53262,23021
53262,22978
53270,22978
53270,22544
53313,22544
53313,22978
53796,22978
53800,22975
53803,22978
54286,22978
54286,22544
54216,22475
53957,22475
53854,22517
53800,22572
53745,22517
53642,22475
53383,22475
53313,22544
53270,22544
53201,22475
53052,22475
53185,22155
53185,21803
53051,21477
52802,21228
52476,21093
52124,21093
51798,21227
51549,21476
51524,21536
51321,21536
51151,21569
51007,21665
50986,21686
50890,21830
50857,22000
50857,27100
50890,27269
50957,27369
50986,27413
51986,28413
52130,28509
52300,28542
56516,28542
56831,28858
56782,28891
55286,30386
55190,30530
55157,30700
55157,30942
54917,30942
54857,30850
54726,30760
54570,30728
53959,30728
53813,30755
53679,30842
53590,30973
53558,31129
53558,31641
53585,31787
53672,31921
53803,32011
53959,32043
54570,32043
54715,32015
54849,31929
54918,31828
55528,31828
55600,31842
55769,31809
55857,31750
55857,31916
50916,36857
50400,36857
50230,36890
50086,36986
50041,37032
50041,36360
50013,36214
49939,36098
50009,35996
50041,35840
50041,34960
50013,34814
49939,34698
50009,34596
50041,34440
50041,33560
50013,33414
49939,33298
50009,33196
50040,33042
51868,33042
52009,33183
52262,33288
52536,33289
52789,33184
52983,32990
53088,32737
53089,32463
52984,32210
52790,32016
52537,31911
52263,31910
52010,32015
51868,32157
50040,32157
50013,32014
49939,31898
50009,31796
50041,31640
50041,31129
50428,31129
50428,31641
50455,31787
50542,31921
50673,32011
50829,32043
51440,32043
51586,32015
51720,31929
51809,31797
51841,31641
51841,31129
51814,30984
51727,30850
51596,30760
51440,30728
50829,30728
50684,30755
50550,30842
50460,30973
50428,31129
50041,31129
50041,30760
50013,30614
49939,30498
50009,30396
50041,30240
50041,29360
50041,29358
50428,29358
50428,29870
50455,30015
50542,30149
50673,30239
50829,30271
51440,30271
51586,30244
51720,30157
51809,30026
51841,29870
51841,29705
53681,29705
53681,29925
53723,30027
53801,30106
53904,30148
54174,30148
54243,30079
54243,29635
54286,29635
54286,30079
54355,30148
54625,30148
54727,30106
54806,30027
54848,29925
54848,29705
54779,29635
54286,29635
54243,29635
53750,29635
53681,29705
51841,29705
51841,29358
51831,29302
53681,29302
53681,29523
53750,29592
54243,29592
54243,29149
54286,29149
54286,29592
54779,29592
54848,29523
54848,29302
54806,29200
54727,29121
54625,29079
54355,29079
54286,29149
54243,29149
54174,29079
53904,29079
53801,29121
53723,29200
53681,29302
51831,29302
51814,29212
51727,29078
51596,28988
51440,28956
50829,28956
50684,28984
50550,29070
50460,29202
50428,29358
50041,29358
50013,29214
49939,29098
50009,28996
50041,28840
50041,27960
50013,27814
49927,27680
49796,27590
49640,27558
48760,27558
48614,27586
48480,27672
48390,27803
48358,27960
48358,28840
48386,28985
48460,29101
48390,29203
48358,29360
48358,30240
48386,30385
48460,30501
48390,30603
48358,30760
48358,31640
48386,31785
48460,31901
48390,32003
48358,32160
48358,33040
48386,33185
48460,33301
48390,33403
48358,33560
48358,34440
48386,34585
48460,34701
48390,34803
48358,34960
48358,35840
48386,35985
48460,36101
48390,36203
48389,36209
48200,36209
47974,36254
47782,36382
47654,36574
47609,36800
47478,36800
47478,26890
48481,26890
48481,27295
48523,27397
48602,27476
48704,27518
49109,27518
49178,27449
49178,26821
49221,26821
49221,27449
49290,27518
49695,27518
49797,27476
49876,27397
49918,27295
49918,26890
49849,26821
49221,26821
49178,26821
48550,26821
48481,26890
47478,26890
47478,25490
48481,25490
48481,25895
48523,25997
48602,26076
48659,26100
48602,26123
48523,26202
48481,26304
48481,26709
48550,26778
49178,26778
49178,26150
49127,26100
49178,26049
49178,25421
49221,25421
49221,26049
49272,26100
49221,26150
49221,26778
49849,26778
49918,26709
49918,26304
49876,26202
49797,26123
49740,26100
49797,26076
49876,25997
49918,25895
49918,25490
49849,25421
49221,25421
49178,25421
48550,25421
48481,25490
47478,25490
47478,24090
48481,24090
48481,24495
48523,24597
48602,24676
48659,24700
48602,24723
48523,24802
48481,24904
48481,25309
48550,25378
49178,25378
49178,24750
49127,24700
49178,24649
49178,24021
49221,24021
49221,24649
49272,24700
49221,24750
49221,25378
49849,25378
49918,25309
49918,24904
49876,24802
49797,24723
49740,24700
49797,24676
49876,24597
49918,24495
49918,24090
49849,24021
49221,24021
49178,24021
48550,24021
48481,24090
47478,24090
47478,22690
48481,22690
48481,23095
48523,23197
48602,23276
48659,23300
48602,23323
48523,23402
48481,23504
48481,23909
48550,23978
49178,23978
49178,23350
49127,23300
49178,23249
49178,22621
49221,22621
49221,23249
49272,23300
49221,23350
49221,23978
49849,23978
49918,23909
49918,23504
49876,23402
49797,23323
49740,23300
49797,23276
49876,23197
49918,23095
49918,22690
49849,22621
49221,22621
49178,22621
48550,22621
48481,22690
47478,22690
47478,21290
48481,21290
48481,21695
48523,21797
48602,21876
48659,21900
48602,21923
48523,22002
48481,22104
48481,22509
48550,22578
49178,22578
49178,21950
49127,21900
49178,21849
49178,21221
49221,21221
49221,21849
49272,21900
49221,21950
49221,22578
49849,22578
49918,22509
49918,22104
49876,22002
49797,21923
49740,21900
49797,21876
49876,21797
49918,21695
49918,21290
49849,21221
49221,21221
49178,21221
48550,21221
48481,21290
47478,21290
47478,19890
48481,19890
48481,20295
48523,20397
48602,20476
48659,20500
48602,20523
48523,20602
48481,20704
48481,21109
48550,21178
49178,21178
49178,20550
49127,20500
49178,20449
49178,19821
49221,19821
49221,20449
49272,20500
49221,20550
49221,21178
49849,21178
49918,21109
49918,20704
49876,20602
49797,20523
49740,20500
49797,20476
49876,20397
49900,20340
49923,20397
50002,20476
50104,20518
50509,20518
50578,20449
50578,19821
50621,19821
50621,20449
50690,20518
51095,20518
51197,20476
51276,20397
51300,20340
51323,20397
51402,20476
51504,20518
51909,20518
51978,20449
51978,19821
51350,19821
51300,19872
51249,19821
50621,19821
50578,19821
49950,19821
49900,19872
49849,19821
49221,19821
49178,19821
48550,19821
48481,19890
47478,19890
47478,19304
48481,19304
48481,19709
48550,19778
49178,19778
49178,19150
49221,19150
49221,19778
49849,19778
49900,19727
49950,19778
50578,19778
50578,19150
50621,19150
50621,19778
51249,19778
51300,19727
51350,19778
51978,19778
51978,19150
51909,19081
51504,19081
51402,19123
51323,19202
51300,19259
51276,19202
51197,19123
51095,19081
50690,19081
50621,19150
50578,19150
50509,19081
50104,19081
50002,19123
49923,19202
49900,19259
49876,19202
49797,19123
49695,19081
49290,19081
49221,19150
49178,19150
49109,19081
48704,19081
48602,19123
48523,19202
48481,19304
47478,19304
47478,17878
75921,17878
75921,40921
" /> 
<polyline style="fill-rule:evenodd;"
points="63047,31427
63440,31427
63481,31419
64542,31419
69721,36597
69690,36750
69746,37030
69893,37250
69854,37307
69233,37307
64213,32286
64168,32257
64069,32190
63900,32157
62854,32157
62895,32097
62927,31940
62927,31547
62919,31506
62919,31401
63047,31427
" /> 
<polyline style="fill-rule:evenodd;"
points="62645,27974
62645,28072
62673,28218
62675,28222
62645,28368
62645,28466
62655,28517
62645,28564
62645,28663
62655,28714
62645,28761
62645,28860
62655,28911
62645,28958
62645,29057
62655,29108
62645,29155
62645,29253
62655,29304
62645,29352
62645,29450
62655,29501
62645,29549
62645,29647
62655,29698
62645,29746
62645,29844
62655,29895
62645,29942
62645,30041
62655,30092
62645,30139
62645,30238
62655,30289
62645,30336
62645,30435
62655,30486
62645,30533
62645,30631
62655,30682
62645,30730
62645,30786
62500,30757
60034,30757
59865,30790
59776,30850
59721,30886
59604,31004
59509,31145
59474,31145
59328,31173
59323,31176
59354,31025
59354,30927
59344,30876
59354,30828
59354,30730
59344,30679
59354,30631
59354,30533
59344,30482
59354,30435
59354,30336
59326,30190
59324,30187
59354,30041
59354,29942
59344,29891
59354,29844
59354,29746
59344,29695
59354,29647
59354,29549
59344,29498
59354,29450
59354,29352
59344,29301
59354,29253
59354,29155
59344,29104
59354,29057
59354,28958
59344,28907
59354,28860
59354,28761
59344,28710
59354,28663
59354,28564
59344,28513
59354,28466
59354,28368
59344,28317
59354,28269
59354,28171
59344,28120
59354,28072
59354,27974
59326,27828
59323,27823
59474,27854
59572,27854
59718,27826
59722,27824
59868,27854
59966,27854
60017,27844
60064,27854
60163,27854
60309,27826
60312,27824
60458,27854
60557,27854
60608,27844
60655,27854
60753,27854
60804,27844
60852,27854
60950,27854
61001,27844
61049,27854
61147,27854
61198,27844
61246,27854
61344,27854
61395,27844
61442,27854
61541,27854
61592,27844
61639,27854
61738,27854
61789,27844
61836,27854
61935,27854
61986,27844
62033,27854
62131,27854
62182,27844
62230,27854
62328,27854
62379,27844
62427,27854
62525,27854
62671,27826
62676,27823
62645,27974
" /> 
<polyline style="fill-rule:evenodd;"
points="70130,21303
70119,21357
69200,21357
69030,21390
68886,21486
68790,21630
68757,21800
68757,23516
65355,26918
65388,26837
65389,26563
65284,26310
65090,26116
64837,26011
64563,26010
64310,26115
64116,26309
64011,26562
64010,26762
63686,27086
63590,27230
63557,27400
63557,27580
63479,27580
63440,27572
63047,27572
62901,27600
62896,27603
62927,27452
62927,27431
69115,21242
70171,21242
70130,21303
" /> 
<polyline style="fill-rule:evenodd;"
points="71712,21547
72189,21547
72159,21566
72069,21698
72037,21854
72037,22641
72065,22787
72151,22921
72202,22956
72159,22983
72069,23115
72037,23271
72037,23468
72054,23557
69642,23557
69642,22242
70117,22242
70126,22285
70212,22419
70343,22509
70500,22541
70892,22541
70900,22542
70907,22541
71300,22541
71445,22513
71579,22427
71669,22296
71701,22140
71701,21545
71712,21547
" /> 
</g> 
</svg>
