<?xml version="1.0" standalone="no"?>
 <!DOCTYPE svg PUBLIC "-//W3C//DTD SVG 1.1//EN" 
 "http://www.w3.org/Graphics/SVG/1.1/DTD/svg11.dtd"> 
<svg xmlns="http://www.w3.org/2000/svg" version="1.1" 
    width="29.7002cm" height="21.0007cm" viewBox="0 0 116930 82680 ">
<title>SVG Picture created as simple_lqfp64-F.SilkS.svg date 2016/03/30 22:23:49 </title>
  <desc>Picture generated by PCBNEW </desc>
<g style="fill:#000000; fill-opacity:1;stroke:#000000; stroke-opacity:1;
stroke-linecap:round; stroke-linejoin:round; "
 transform="translate(0 0) scale(1 1)">
</g>
<g style="fill:#000000; fill-opacity:0.0; 
stroke:#000000; stroke-width:-0.000393701; stroke-opacity:1; 
stroke-linecap:round; stroke-linejoin:round;">
</g>
<g style="fill:#000000; fill-opacity:0.0; 
stroke:#000000; stroke-width:59.0551; stroke-opacity:1; 
stroke-linecap:round; stroke-linejoin:round;">
<path d="M43782 34521
L43880 34639
" />
<path d="M43880 34639
L43920 34698
" />
<path d="M43920 34698
L43920 34364
" />
<path d="M43644 35112
L43644 34403
" />
<path d="M43644 35112
L43900 35112
" />
<path d="M45416 35112
L45416 34403
" />
<path d="M45416 35112
L45160 35112
" />
<path d="M65230 38300
L68230 38300
" />
<path d="M65230 39300
L68230 39300
" />
<path d="M64119 39410
L64730 39410
" />
<path d="M68230 38300
L68230 39300
" />
<path d="M65230 39300
L65230 38300
" />
<path d="M64730 38189
L64119 38189
" />
<path d="M64119 38189
L64119 39410
" />
<path d="M67119 20589
L67119 21200
" />
<path d="M68340 21200
L68340 20589
" />
<path d="M68340 20589
L67119 20589
" />
<path d="M68230 21700
L67230 21700
" />
<path d="M62733 22965
L63126 22965
" />
<path d="M63126 23634
L62733 23634
" />
<path d="M62683 26865
L63076 26865
" />
<path d="M63076 27534
L62683 27534
" />
<path d="M62126 24884
L61733 24884
" />
<path d="M61733 24215
L62126 24215
" />
<path d="M62126 26084
L61733 26084
" />
<path d="M61733 25415
L62126 25415
" />
<path d="M53230 39300
L54230 39300
" />
<path d="M52119 39410
L52730 39410
" />
<path d="M53230 39300
L53230 38300
" />
<path d="M52730 38189
L52119 38189
" />
<path d="M52119 38189
L52119 39410
" />
<path d="M53230 38300
L54230 38300
" />
<path d="M54230 38300
L54230 39300
" />
<path d="M50930 20300
L48930 20300
" />
<path d="M48930 20300
L48930 19300
" />
<path d="M48930 19300
L50930 19300
" />
<path d="M52040 19189
L51430 19189
" />
<path d="M50930 19300
L50930 20300
" />
<path d="M51430 20410
L52040 20410
" />
<path d="M52040 20410
L52040 19189
" />
<path d="M46930 29750
L46930 32750
" />
<path d="M45930 29750
L45930 32750
" />
<path d="M45819 28639
L45819 29250
" />
<path d="M46930 32750
L45930 32750
" />
<path d="M45930 29750
L46930 29750
" />
<path d="M47040 29250
L47040 28639
" />
<path d="M47040 28639
L45819 28639
" />
<path d="M61419 19189
L61419 19800
" />
<path d="M62640 19800
L62640 19189
" />
<path d="M62640 19189
L61419 19189
" />
<path d="M62530 20300
L61530 20300
" />
<path d="M62430 39300
L59430 39300
" />
<path d="M62430 38300
L59430 38300
" />
<path d="M63540 38189
L62930 38189
" />
<path d="M59430 39300
L59430 38300
" />
<path d="M62430 38300
L62430 39300
" />
<path d="M62930 39410
L63540 39410
" />
<path d="M63540 39410
L63540 38189
" />
<path d="M45930 27250
L45930 25250
" />
<path d="M45930 25250
L46930 25250
" />
<path d="M46930 25250
L46930 27250
" />
<path d="M47040 28360
L47040 27750
" />
<path d="M46930 27250
L45930 27250
" />
<path d="M45819 27750
L45819 28360
" />
<path d="M45819 28360
L47040 28360
" />
<path d="M46930 38250
L46930 33250
" />
<path d="M46930 33250
L45930 33250
" />
<path d="M45930 33250
L45930 38250
" />
<path d="M47040 39360
L47040 38750
" />
<path d="M46930 38250
L45930 38250
" />
<path d="M45819 38750
L45819 39360
" />
<path d="M45819 39360
L47040 39360
" />
<path d="M54730 20300
L60730 20300
" />
<path d="M60730 20300
L60730 19300
" />
<path d="M60730 19300
L54730 19300
" />
<path d="M53619 20410
L54230 20410
" />
<path d="M54730 20300
L54730 19300
" />
<path d="M54230 19189
L53619 19189
" />
<path d="M53619 19189
L53619 20410
" />
<path d="M57630 39300
L54630 39300
" />
<path d="M57630 38300
L54630 38300
" />
<path d="M58740 38189
L58130 38189
" />
<path d="M54630 39300
L54630 38300
" />
<path d="M57630 38300
L57630 39300
" />
<path d="M58130 39410
L58740 39410
" />
<path d="M58740 39410
L58740 38189
" />
<path d="M45530 21300
L45530 19300
" />
<path d="M45530 19300
L46530 19300
" />
<path d="M46530 19300
L46530 21300
" />
<path d="M46640 22410
L46640 21800
" />
<path d="M46530 21300
L45530 21300
" />
<path d="M45419 21800
L45419 22410
" />
<path d="M45419 22410
L46640 22410
" />
<path d="M50830 39300
L48830 39300
" />
<path d="M48830 39300
L48830 38300
" />
<path d="M48830 38300
L50830 38300
" />
<path d="M51940 38189
L51330 38189
" />
<path d="M50830 38300
L50830 39300
" />
<path d="M51330 39410
L51940 39410
" />
<path d="M51940 39410
L51940 38189
" />
<path d="M41263 25516
L41263 22484
" />
<path d="M40869 25516
L40869 22484
" />
<path d="M40869 22484
L44491 22484
" />
<path d="M44491 22484
L44491 25516
" />
<path d="M44491 25516
L40869 25516
" />
<path d="M65719 19189
L65719 19800
" />
<path d="M66940 19800
L66940 19189
" />
<path d="M66940 19189
L65719 19189
" />
<path d="M66830 20300
L65830 20300
" />
<path d="M43819 19189
L43819 19800
" />
<path d="M45040 19800
L45040 19189
" />
<path d="M45040 19189
L43819 19189
" />
<path d="M44930 20300
L43930 20300
" />
<path d="M67119 19189
L67119 19800
" />
<path d="M68340 19800
L68340 19189
" />
<path d="M68340 19189
L67119 19189
" />
<path d="M68230 20300
L67230 20300
" />
<path d="M64319 19189
L64319 19800
" />
<path d="M65540 19800
L65540 19189
" />
<path d="M65540 19189
L64319 19189
" />
<path d="M65430 20300
L64430 20300
" />
<path d="M67119 21989
L67119 22600
" />
<path d="M68340 22600
L68340 21989
" />
<path d="M68340 21989
L67119 21989
" />
<path d="M68230 23100
L67230 23100
" />
<path d="M67119 31989
L67119 32600
" />
<path d="M68340 32600
L68340 31989
" />
<path d="M68340 31989
L67119 31989
" />
<path d="M68230 33100
L67230 33100
" />
<path d="M67119 36189
L67119 36800
" />
<path d="M68340 36800
L68340 36189
" />
<path d="M68340 36189
L67119 36189
" />
<path d="M68230 37300
L67230 37300
" />
<path d="M67119 34789
L67119 35400
" />
<path d="M68340 35400
L68340 34789
" />
<path d="M68340 34789
L67119 34789
" />
<path d="M68230 35900
L67230 35900
" />
<path d="M67119 30589
L67119 31200
" />
<path d="M68340 31200
L68340 30589
" />
<path d="M68340 30589
L67119 30589
" />
<path d="M68230 31700
L67230 31700
" />
<path d="M67119 33389
L67119 34000
" />
<path d="M68340 34000
L68340 33389
" />
<path d="M68340 33389
L67119 33389
" />
<path d="M68230 34500
L67230 34500
" />
<path d="M43319 26689
L43319 27300
" />
<path d="M44540 27300
L44540 26689
" />
<path d="M44540 26689
L43319 26689
" />
<path d="M44430 27800
L43430 27800
" />
<path d="M57967 27462
L57967 27885
" />
<path d="M53892 27462
L53892 27885
" />
<path d="M53892 31537
L53892 31114
" />
<path d="M57967 31537
L57967 31114
" />
<path d="M57967 27462
L57544 27462
" />
<path d="M57967 31537
L57544 31537
" />
<path d="M53892 31537
L54315 31537
" />
<path d="M53892 27462
L54315 27462
" />
<path d="M57967 27885
L58370 27885
" />
<path d="M62819 19189
L62819 19800
" />
<path d="M64040 19800
L64040 19189
" />
<path d="M64040 19189
L62819 19189
" />
<path d="M63930 20300
L62930 20300
" />
<path d="M52219 19189
L52219 19800
" />
<path d="M53440 19800
L53440 19189
" />
<path d="M53440 19189
L52219 19189
" />
<path d="M53330 20300
L52330 20300
" />
<path d="M47819 19189
L47819 19800
" />
<path d="M49040 19800
L49040 19189
" />
<path d="M49040 19189
L47819 19189
" />
<path d="M48930 20300
L47930 20300
" />
<path d="M43333 32265
L43726 32265
" />
<path d="M43726 32934
L43333 32934
" />
<path d="M43933 36265
L44326 36265
" />
<path d="M44326 36934
L43933 36934
" />
<path d="M44626 21234
L44233 21234
" />
<path d="M44233 20565
L44626 20565
" />
<path d="M67119 23389
L67119 24000
" />
<path d="M68340 24000
L68340 23389
" />
<path d="M68340 23389
L67119 23389
" />
<path d="M68230 24500
L67230 24500
" />
<path d="M67119 26189
L67119 26800
" />
<path d="M68340 26800
L68340 26189
" />
<path d="M68340 26189
L67119 26189
" />
<path d="M68230 27300
L67230 27300
" />
<path d="M67119 24789
L67119 25400
" />
<path d="M68340 25400
L68340 24789
" />
<path d="M68340 24789
L67119 24789
" />
<path d="M68230 25900
L67230 25900
" />
<path d="M67119 27789
L67119 28400
" />
<path d="M68340 28400
L68340 27789
" />
<path d="M68340 27789
L67119 27789
" />
<path d="M68230 28900
L67230 28900
" />
<path d="M67119 29189
L67119 29800
" />
<path d="M68340 29800
L68340 29189
" />
<path d="M68340 29189
L67119 29189
" />
<path d="M68230 30300
L67230 30300
" />
<path d="M43651 37482
L43651 37561
" />
<path d="M43651 38503
L43651 38433
" />
<path d="M43651.7 38506.3 A786.653 786.653 0.0 0 0 44922.4 38381.7 " />
<path d="M43828.4 38433.1 A608.718 608.718 0.0 0 0 44656.4 38432.7 " />
<path d="M44931.2 37608.7 A782.385 782.385 0.0 0 0 43656.7 37472.2 " />
<path d="M44649.3 37569.3 A582.991 582.991 0.0 0 0 43843 37561.7 " />
<path d="M42464 37403
L42464 37796
" />
<path d="M42995 37796
L42995 37403
" />
<path d="M62986 27100
L63144 27179
" />
<path d="M63144 27179
L63380 27219
" />
<path d="M63380 27219
L63577 27179
" />
<path d="M63577 27179
L63852 27022
" />
<path d="M63852 27022
L64010 26785
" />
<path d="M64010 26785
L64089 26549
" />
<path d="M64089 26549
L64089 23951
" />
<path d="M64089 23951
L64010 23675
" />
<path d="M64010 23675
L63892 23518
" />
<path d="M63892 23518
L63695 23360
" />
<path d="M63695 23360
L63459 23281
" />
<path d="M63459 23281
L63262 23281
" />
<path d="M63262 23281
L63065 23360
" />
<path d="M63065 23360
L62829 23557
" />
<path d="M62829 23557
L62711 23754
" />
<path d="M62711 23754
L62671 23951
" />
<path d="M62671 23990
L62671 26589
" />
<path d="M62671 26589
L62711 26746
" />
<path d="M62711 26746
L62829 26943
" />
<path d="M62829 26943
L63026 27140
" />
<path d="M62463 23994
L62482 23813
" />
<path d="M62482 23813
L62526 23656
" />
<path d="M62526 23656
L62612 23486
" />
<path d="M62612 23486
L62703 23372
" />
<path d="M62703 23372
L62841 23242
" />
<path d="M62841 23242
L63053 23128
" />
<path d="M63053 23128
L63289 23077
" />
<path d="M63289 23077
L63490 23077
" />
<path d="M63490 23077
L63766 23144
" />
<path d="M63766 23144
L63998 23301
" />
<path d="M63998 23301
L64144 23482
" />
<path d="M64144 23482
L64226 23648
" />
<path d="M64226 23648
L64289 23825
" />
<path d="M64289 23825
L64301 23998
" />
<path d="M64215 26888
L64128 27037
" />
<path d="M64128 27037
L64018 27163
" />
<path d="M64018 27163
L63888 27262
" />
<path d="M63888 27262
L63671 27380
" />
<path d="M63671 27380
L63486 27423
" />
<path d="M63486 27423
L63305 27431
" />
<path d="M63305 27431
L63124 27396
" />
<path d="M63124 27396
L62947 27321
" />
<path d="M62947 27321
L62762 27179
" />
<path d="M62762 27179
L62636 27041
" />
<path d="M62636 27041
L62545 26888
" />
<path d="M62545 26888
L62490 26719
" />
<path d="M62490 26719
L62463 26545
" />
<path d="M64297 23990
L64297 26530
" />
<path d="M64297 26530
L64282 26695
" />
<path d="M64282 26695
L64215 26888
" />
<path d="M62463 23990
L62463 26530
" />
<circle cx="63980" cy="30000" r="1000" /> 
<path d="M65480 28500
L62480 28500
" />
<path d="M62480 28500
L62480 31500
" />
<path d="M62480 31500
L65480 31500
" />
<path d="M65480 28500
L65480 31500
" />
<path d="M52452 26399
L52730 26677
" />
<path d="M52257 27150
L51979 26872
" />
<path d="M51854 32127
L52132 31849
" />
<path d="M52605 32322
L52327 32600
" />
<path d="M66614 30303
L66614 30696
" />
<path d="M65945 30696
L65945 30303
" />
<path d="M45131 29699
L45131 29149
" />
<path d="M45131 31449
L45131 32049
" />
<path d="M45431 31299
L44831 31299
" />
<path d="M45431 31399
L44831 31399
" />
<path d="M45131 31499
L44831 31499
" />
<path d="M44831 31499
L44831 29699
" />
<path d="M44831 29699
L45431 29699
" />
<path d="M45431 29699
L45431 31499
" />
<path d="M45431 31499
L45131 31499
" />
<path d="M44230 28500
L44230 30500
" />
<path d="M44340 31610
L44340 31000
" />
<path d="M43230 31500
L43230 30500
" />
<path d="M43230 30500
L44230 30500
" />
<path d="M44230 28500
L42230 28500
" />
<path d="M42230 28500
L42230 30500
" />
<path d="M44340 31610
L43730 31610
" />
<path d="M42230 31500
L43230 31500
" />
<path d="M42230 30500
L42230 31500
" />
</g>
<g style="fill:#000000; fill-opacity:0.0; 
stroke:#000000; stroke-width:39.3701; stroke-opacity:1; 
stroke-linecap:round; stroke-linejoin:round;">
<polyline fill="none;"
points="65050,38419
64409,38419
64409,39180
65050,39180
65050,38419
" /> 
<path d="M66050 38740
L66050 38860
" />
<path d="M65409 38740
L65409 38860
" />
<path d="M65409.7 38860 A320.315 320.315 0.0 0 0 66050.3 38860 " />
<path d="M66050.3 38740 A320.315 320.315 0.0 0 0 65409.7 38740 " />
<path d="M67050 38740
L67050 38860
" />
<path d="M66409 38740
L66409 38860
" />
<path d="M66409.7 38860 A320.315 320.315 0.0 0 0 67050.3 38860 " />
<path d="M67050.3 38740 A320.315 320.315 0.0 0 0 66409.7 38740 " />
<path d="M68050 38740
L68050 38860
" />
<path d="M67409 38740
L67409 38860
" />
<path d="M67409.7 38860 A320.315 320.315 0.0 0 0 68050.3 38860 " />
<path d="M68050.3 38740 A320.315 320.315 0.0 0 0 67409.7 38740 " />
<polyline fill="none;"
points="68150,21620
68150,20779
67309,20779
67309,21620
68150,21620
" /> 
<polyline fill="none;"
points="53110,38419
52349,38419
52349,39180
53110,39180
53110,38419
" /> 
<path d="M53730 38419
L53730 38419
" />
<path d="M53730 39180
L53730 39180
" />
<path d="M53730 39180.3 A380.315 380.315 0.0 0 0 53730 38419.7 " />
<path d="M53730 38419.7 A380.315 380.315 0.0 0 0 53730 39180.3 " />
<polyline fill="none;"
points="51109,20180
51750,20180
51750,19419
51109,19419
51109,20180
" /> 
<path d="M50109 19860
L50109 19740
" />
<path d="M50750 19860
L50750 19740
" />
<path d="M50750.3 19740 A320.315 320.315 0.0 0 0 50109.7 19740 " />
<path d="M50109.7 19860 A320.315 320.315 0.0 0 0 50750.3 19860 " />
<path d="M49109 19860
L49109 19740
" />
<path d="M49750 19860
L49750 19740
" />
<path d="M49750.3 19740 A320.315 320.315 0.0 0 0 49109.7 19740 " />
<path d="M49109.7 19860 A320.315 320.315 0.0 0 0 49750.3 19860 " />
<polyline fill="none;"
points="46810,29570
46810,28929
46049,28929
46049,29570
46810,29570
" /> 
<path d="M46490 30570
L46370 30570
" />
<path d="M46490 29929
L46370 29929
" />
<path d="M46370 29929.7 A320.315 320.315 0.0 0 0 46370 30570.3 " />
<path d="M46490 30570.3 A320.315 320.315 0.0 0 0 46490 29929.7 " />
<path d="M46490 31570
L46370 31570
" />
<path d="M46490 30929
L46370 30929
" />
<path d="M46370 30929.7 A320.315 320.315 0.0 0 0 46370 31570.3 " />
<path d="M46490 31570.3 A320.315 320.315 0.0 0 0 46490 30929.7 " />
<path d="M46490 32570
L46370 32570
" />
<path d="M46490 31929
L46370 31929
" />
<path d="M46370 31929.7 A320.315 320.315 0.0 0 0 46370 32570.3 " />
<path d="M46490 32570.3 A320.315 320.315 0.0 0 0 46490 31929.7 " />
<polyline fill="none;"
points="62450,20220
62450,19379
61609,19379
61609,20220
62450,20220
" /> 
<polyline fill="none;"
points="62609,39180
63250,39180
63250,38419
62609,38419
62609,39180
" /> 
<path d="M61609 38860
L61609 38740
" />
<path d="M62250 38860
L62250 38740
" />
<path d="M62250.3 38740 A320.315 320.315 0.0 0 0 61609.7 38740 " />
<path d="M61609.7 38860 A320.315 320.315 0.0 0 0 62250.3 38860 " />
<path d="M60609 38860
L60609 38740
" />
<path d="M61250 38860
L61250 38740
" />
<path d="M61250.3 38740 A320.315 320.315 0.0 0 0 60609.7 38740 " />
<path d="M60609.7 38860 A320.315 320.315 0.0 0 0 61250.3 38860 " />
<path d="M59609 38860
L59609 38740
" />
<path d="M60250 38860
L60250 38740
" />
<path d="M60250.3 38740 A320.315 320.315 0.0 0 0 59609.7 38740 " />
<path d="M59609.7 38860 A320.315 320.315 0.0 0 0 60250.3 38860 " />
<polyline fill="none;"
points="46049,27429
46049,28070
46810,28070
46810,27429
46049,27429
" /> 
<path d="M46370 26429
L46490 26429
" />
<path d="M46370 27070
L46490 27070
" />
<path d="M46490 27070.3 A320.315 320.315 0.0 0 0 46490 26429.7 " />
<path d="M46370 26429.7 A320.315 320.315 0.0 0 0 46370 27070.3 " />
<path d="M46370 25429
L46490 25429
" />
<path d="M46370 26070
L46490 26070
" />
<path d="M46490 26070.3 A320.315 320.315 0.0 0 0 46490 25429.7 " />
<path d="M46370 25429.7 A320.315 320.315 0.0 0 0 46370 26070.3 " />
<polyline fill="none;"
points="46049,38429
46049,39070
46810,39070
46810,38429
46049,38429
" /> 
<path d="M46370 37429
L46490 37429
" />
<path d="M46370 38070
L46490 38070
" />
<path d="M46490 38070.3 A320.315 320.315 0.0 0 0 46490 37429.7 " />
<path d="M46370 37429.7 A320.315 320.315 0.0 0 0 46370 38070.3 " />
<path d="M46370 36429
L46490 36429
" />
<path d="M46370 37070
L46490 37070
" />
<path d="M46490 37070.3 A320.315 320.315 0.0 0 0 46490 36429.7 " />
<path d="M46370 36429.7 A320.315 320.315 0.0 0 0 46370 37070.3 " />
<path d="M46370 35429
L46490 35429
" />
<path d="M46370 36070
L46490 36070
" />
<path d="M46490 36070.3 A320.315 320.315 0.0 0 0 46490 35429.7 " />
<path d="M46370 35429.7 A320.315 320.315 0.0 0 0 46370 36070.3 " />
<path d="M46370 34429
L46490 34429
" />
<path d="M46370 35070
L46490 35070
" />
<path d="M46490 35070.3 A320.315 320.315 0.0 0 0 46490 34429.7 " />
<path d="M46370 34429.7 A320.315 320.315 0.0 0 0 46370 35070.3 " />
<path d="M46370 33429
L46490 33429
" />
<path d="M46370 34070
L46490 34070
" />
<path d="M46490 34070.3 A320.315 320.315 0.0 0 0 46490 33429.7 " />
<path d="M46370 33429.7 A320.315 320.315 0.0 0 0 46370 34070.3 " />
<polyline fill="none;"
points="54550,19419
53909,19419
53909,20180
54550,20180
54550,19419
" /> 
<path d="M55550 19740
L55550 19860
" />
<path d="M54909 19740
L54909 19860
" />
<path d="M54909.7 19860 A320.315 320.315 0.0 0 0 55550.3 19860 " />
<path d="M55550.3 19740 A320.315 320.315 0.0 0 0 54909.7 19740 " />
<path d="M56550 19740
L56550 19860
" />
<path d="M55909 19740
L55909 19860
" />
<path d="M55909.7 19860 A320.315 320.315 0.0 0 0 56550.3 19860 " />
<path d="M56550.3 19740 A320.315 320.315 0.0 0 0 55909.7 19740 " />
<path d="M57550 19740
L57550 19860
" />
<path d="M56909 19740
L56909 19860
" />
<path d="M56909.7 19860 A320.315 320.315 0.0 0 0 57550.3 19860 " />
<path d="M57550.3 19740 A320.315 320.315 0.0 0 0 56909.7 19740 " />
<path d="M58550 19740
L58550 19860
" />
<path d="M57909 19740
L57909 19860
" />
<path d="M57909.7 19860 A320.315 320.315 0.0 0 0 58550.3 19860 " />
<path d="M58550.3 19740 A320.315 320.315 0.0 0 0 57909.7 19740 " />
<path d="M59550 19740
L59550 19860
" />
<path d="M58909 19740
L58909 19860
" />
<path d="M58909.7 19860 A320.315 320.315 0.0 0 0 59550.3 19860 " />
<path d="M59550.3 19740 A320.315 320.315 0.0 0 0 58909.7 19740 " />
<path d="M60550 19740
L60550 19860
" />
<path d="M59909 19740
L59909 19860
" />
<path d="M59909.7 19860 A320.315 320.315 0.0 0 0 60550.3 19860 " />
<path d="M60550.3 19740 A320.315 320.315 0.0 0 0 59909.7 19740 " />
<polyline fill="none;"
points="57809,39180
58450,39180
58450,38419
57809,38419
57809,39180
" /> 
<path d="M56809 38860
L56809 38740
" />
<path d="M57450 38860
L57450 38740
" />
<path d="M57450.3 38740 A320.315 320.315 0.0 0 0 56809.7 38740 " />
<path d="M56809.7 38860 A320.315 320.315 0.0 0 0 57450.3 38860 " />
<path d="M55809 38860
L55809 38740
" />
<path d="M56450 38860
L56450 38740
" />
<path d="M56450.3 38740 A320.315 320.315 0.0 0 0 55809.7 38740 " />
<path d="M55809.7 38860 A320.315 320.315 0.0 0 0 56450.3 38860 " />
<path d="M54809 38860
L54809 38740
" />
<path d="M55450 38860
L55450 38740
" />
<path d="M55450.3 38740 A320.315 320.315 0.0 0 0 54809.7 38740 " />
<path d="M54809.7 38860 A320.315 320.315 0.0 0 0 55450.3 38860 " />
<polyline fill="none;"
points="45649,21479
45649,22120
46410,22120
46410,21479
45649,21479
" /> 
<path d="M45970 20479
L46090 20479
" />
<path d="M45970 21120
L46090 21120
" />
<path d="M46090 21120.3 A320.315 320.315 0.0 0 0 46090 20479.7 " />
<path d="M45970 20479.7 A320.315 320.315 0.0 0 0 45970 21120.3 " />
<path d="M45970 19479
L46090 19479
" />
<path d="M45970 20120
L46090 20120
" />
<path d="M46090 20120.3 A320.315 320.315 0.0 0 0 46090 19479.7 " />
<path d="M45970 19479.7 A320.315 320.315 0.0 0 0 45970 20120.3 " />
<polyline fill="none;"
points="51009,39180
51650,39180
51650,38419
51009,38419
51009,39180
" /> 
<path d="M50009 38860
L50009 38740
" />
<path d="M50650 38860
L50650 38740
" />
<path d="M50650.3 38740 A320.315 320.315 0.0 0 0 50009.7 38740 " />
<path d="M50009.7 38860 A320.315 320.315 0.0 0 0 50650.3 38860 " />
<path d="M49009 38860
L49009 38740
" />
<path d="M49650 38860
L49650 38740
" />
<path d="M49650.3 38740 A320.315 320.315 0.0 0 0 49009.7 38740 " />
<path d="M49009.7 38860 A320.315 320.315 0.0 0 0 49650.3 38860 " />
<circle cx="43015" cy="24866" r="157.315" /> 
<circle cx="43015" cy="23134" r="157.315" /> 
<polyline fill="none;"
points="66750,20220
66750,19379
65909,19379
65909,20220
66750,20220
" /> 
<polyline fill="none;"
points="44850,20220
44850,19379
44009,19379
44009,20220
44850,20220
" /> 
<polyline fill="none;"
points="68150,20220
68150,19379
67309,19379
67309,20220
68150,20220
" /> 
<polyline fill="none;"
points="65350,20220
65350,19379
64509,19379
64509,20220
65350,20220
" /> 
<polyline fill="none;"
points="68150,23020
68150,22179
67309,22179
67309,23020
68150,23020
" /> 
<polyline fill="none;"
points="68150,33020
68150,32179
67309,32179
67309,33020
68150,33020
" /> 
<polyline fill="none;"
points="68150,37220
68150,36379
67309,36379
67309,37220
68150,37220
" /> 
<polyline fill="none;"
points="68150,35820
68150,34979
67309,34979
67309,35820
68150,35820
" /> 
<polyline fill="none;"
points="68150,31620
68150,30779
67309,30779
67309,31620
68150,31620
" /> 
<polyline fill="none;"
points="68150,34420
68150,33579
67309,33579
67309,34420
68150,34420
" /> 
<polyline fill="none;"
points="44350,27720
44350,26879
43509,26879
43509,27720
44350,27720
" /> 
<polyline fill="none;"
points="63850,20220
63850,19379
63009,19379
63009,20220
63850,20220
" /> 
<polyline fill="none;"
points="53250,20220
53250,19379
52409,19379
52409,20220
53250,20220
" /> 
<polyline fill="none;"
points="48850,20220
48850,19379
48009,19379
48009,20220
48850,20220
" /> 
<polyline fill="none;"
points="68150,24420
68150,23579
67309,23579
67309,24420
68150,24420
" /> 
<polyline fill="none;"
points="68150,27220
68150,26379
67309,26379
67309,27220
68150,27220
" /> 
<polyline fill="none;"
points="68150,25820
68150,24979
67309,24979
67309,25820
68150,25820
" /> 
<polyline fill="none;"
points="68150,28820
68150,27979
67309,27979
67309,28820
68150,28820
" /> 
<polyline fill="none;"
points="68150,30220
68150,29379
67309,29379
67309,30220
68150,30220
" /> 
<polyline fill="none;"
points="44104,37625
43355,37625
43355,38374
44104,38374
44104,37625
" /> 
<circle cx="44730" cy="38000" r="374.016" /> 
<circle cx="63380" cy="24289" r="275.815" /> 
<circle cx="63380" cy="26211" r="275.815" /> 
<circle cx="62480" cy="29000" r="255.315" /> 
<circle cx="62480" cy="31000" r="255.315" /> 
<circle cx="65480" cy="29000" r="255.315" /> 
<circle cx="65480" cy="31000" r="255.315" /> 
<circle cx="45131" cy="28599.8" r="314.815" /> 
<polyline fill="none;"
points="45445,32284
44816,32284
44816,32914
45445,32914
45445,32284
" /> 
<polyline fill="none;"
points="43409,31320
44050,31320
44050,30679
43409,30679
43409,31320
" /> 
<path d="M42730 31320
L42730 31320
" />
<path d="M42730 30679
L42730 30679
" />
<path d="M42730 30679.7 A320.315 320.315 0.0 0 0 42730 31320.3 " />
<path d="M42730 31320.3 A320.315 320.315 0.0 0 0 42730 30679.7 " />
<path d="M43730 30320
L43730 30320
" />
<path d="M43730 29679
L43730 29679
" />
<path d="M43730 29679.7 A320.315 320.315 0.0 0 0 43730 30320.3 " />
<path d="M43730 30320.3 A320.315 320.315 0.0 0 0 43730 29679.7 " />
<path d="M42730 30320
L42730 30320
" />
<path d="M42730 29679
L42730 29679
" />
<path d="M42730 29679.7 A320.315 320.315 0.0 0 0 42730 30320.3 " />
<path d="M42730 30320.3 A320.315 320.315 0.0 0 0 42730 29679.7 " />
<path d="M43730 29320
L43730 29320
" />
<path d="M43730 28679
L43730 28679
" />
<path d="M43730 28679.7 A320.315 320.315 0.0 0 0 43730 29320.3 " />
<path d="M43730 29320.3 A320.315 320.315 0.0 0 0 43730 28679.7 " />
<path d="M42730 29320
L42730 29320
" />
<path d="M42730 28679
L42730 28679
" />
<path d="M42730 28679.7 A320.315 320.315 0.0 0 0 42730 29320.3 " />
<path d="M42730 29320.3 A320.315 320.315 0.0 0 0 42730 28679.7 " />
</g>
<g style="fill:#000000; fill-opacity:0.0; 
stroke:#000000; stroke-width:59.0551; stroke-opacity:1; 
stroke-linecap:round; stroke-linejoin:round;">
<path d="M44809 36353
L44809 36672
L44791 36709
L44772 36728
L44734 36747
L44659 36747
L44622 36728
L44603 36709
L44584 36672
L44584 36353
" />
<path d="M44416 36390
L44397 36372
L44360 36353
L44266 36353
L44228 36372
L44210 36390
L44191 36428
L44191 36465
L44210 36522
L44435 36747
L44191 36747
" />
<path d="M62544 39090
L62937 39090
L62937 38940
L62918 38903
L62900 38884
L62862 38865
L62806 38865
L62768 38884
L62750 38903
L62731 38940
L62731 39090
" />
<path d="M62937 38734
L62937 38490
L62787 38621
L62787 38565
L62768 38528
L62750 38509
L62712 38490
L62619 38490
L62581 38509
L62562 38528
L62544 38565
L62544 38678
L62562 38715
L62581 38734
" />
<path d="M68208 19370
L68208 18976
L68058 18976
L68020 18995
L68001 19014
L67983 19051
L67983 19107
L68001 19145
L68020 19164
L68058 19182
L68208 19182
" />
<path d="M67608 19370
L67833 19370
" />
<path d="M67720 19370
L67720 18976
L67758 19032
L67795 19070
L67833 19089
" />
<path d="M67251 18976
L67439 18976
L67458 19164
L67439 19145
L67401 19126
L67308 19126
L67270 19145
L67251 19164
L67233 19201
L67233 19295
L67251 19332
L67270 19351
L67308 19370
L67401 19370
L67439 19351
L67458 19332
" />
<path d="M62995 22613
L63014 22632
L63070 22651
L63108 22651
L63164 22632
L63201 22595
L63220 22557
L63239 22482
L63239 22426
L63220 22351
L63201 22313
L63164 22276
L63108 22257
L63070 22257
L63014 22276
L62995 22295
" />
<path d="M62620 22651
L62845 22651
" />
<path d="M62733 22651
L62733 22257
L62770 22313
L62808 22351
L62845 22370
" />
<path d="M62945 26513
L62964 26532
L63020 26551
L63058 26551
L63114 26532
L63151 26495
L63170 26457
L63189 26382
L63189 26326
L63170 26251
L63151 26213
L63114 26176
L63058 26157
L63020 26157
L62964 26176
L62945 26195
" />
<path d="M62795 26195
L62776 26176
L62739 26157
L62645 26157
L62608 26176
L62589 26195
L62570 26232
L62570 26270
L62589 26326
L62814 26551
L62570 26551
" />
<path d="M61995 25517
L62014 25536
L62070 25554
L62108 25554
L62164 25536
L62201 25498
L62220 25461
L62239 25386
L62239 25329
L62220 25254
L62201 25217
L62164 25179
L62108 25161
L62070 25161
L62014 25179
L61995 25198
" />
<path d="M61864 25161
L61620 25161
L61751 25311
L61695 25311
L61658 25329
L61639 25348
L61620 25386
L61620 25479
L61639 25517
L61658 25536
L61695 25554
L61808 25554
L61845 25536
L61864 25517
" />
<path d="M61995 26717
L62014 26736
L62070 26754
L62108 26754
L62164 26736
L62201 26698
L62220 26661
L62239 26586
L62239 26529
L62220 26454
L62201 26417
L62164 26379
L62108 26361
L62070 26361
L62014 26379
L61995 26398
" />
<path d="M61658 26492
L61658 26754
" />
<path d="M61751 26342
L61845 26623
L61601 26623
" />
<path d="M50544 39090
L50937 39090
L50937 38940
L50918 38903
L50900 38884
L50862 38865
L50806 38865
L50768 38884
L50750 38903
L50731 38940
L50731 39090
" />
<path d="M50544 38490
L50544 38715
" />
<path d="M50544 38603
L50937 38603
L50881 38640
L50843 38678
L50825 38715
" />
<path d="M53259 20090
L53653 20090
L53653 19940
L53634 19903
L53615 19884
L53578 19865
L53522 19865
L53484 19884
L53465 19903
L53447 19940
L53447 20090
" />
<path d="M53615 19715
L53634 19696
L53653 19659
L53653 19565
L53634 19528
L53615 19509
L53578 19490
L53540 19490
L53484 19509
L53259 19734
L53259 19490
" />
<path d="M46720 27420
L46720 27026
L46570 27026
L46533 27045
L46514 27064
L46495 27101
L46495 27157
L46514 27195
L46533 27214
L46570 27232
L46720 27232
" />
<path d="M46158 27157
L46158 27420
" />
<path d="M46251 27007
L46345 27288
L46101 27288
" />
<path d="M62320 17970
L62320 17576
L62170 17576
L62133 17595
L62114 17614
L62095 17651
L62095 17707
L62114 17745
L62133 17764
L62170 17782
L62320 17782
" />
<path d="M61739 17576
L61926 17576
L61945 17764
L61926 17745
L61889 17726
L61795 17726
L61758 17745
L61739 17764
L61720 17801
L61720 17895
L61739 17932
L61758 17951
L61795 17970
L61889 17970
L61926 17951
L61945 17932
" />
<path d="M64759 39090
L65153 39090
L65153 38940
L65134 38903
L65115 38884
L65078 38865
L65022 38865
L64984 38884
L64965 38903
L64947 38940
L64947 39090
" />
<path d="M65153 38528
L65153 38603
L65134 38640
L65115 38659
L65059 38696
L64984 38715
L64834 38715
L64797 38696
L64778 38678
L64759 38640
L64759 38565
L64778 38528
L64797 38509
L64834 38490
L64928 38490
L64965 38509
L64984 38528
L65003 38565
L65003 38640
L64984 38678
L64965 38696
L64928 38715
" />
<path d="M46720 29935
L46720 29542
L46570 29542
L46533 29561
L46514 29579
L46495 29617
L46495 29673
L46514 29711
L46533 29729
L46570 29748
L46720 29748
" />
<path d="M46364 29542
L46101 29542
L46270 29935
" />
<path d="M46720 40935
L46720 40542
L46570 40542
L46533 40561
L46514 40579
L46495 40617
L46495 40673
L46514 40711
L46533 40729
L46570 40748
L46720 40748
" />
<path d="M46270 40711
L46308 40692
L46326 40673
L46345 40636
L46345 40617
L46326 40579
L46308 40561
L46270 40542
L46195 40542
L46158 40561
L46139 40579
L46120 40617
L46120 40636
L46139 40673
L46158 40692
L46195 40711
L46270 40711
L46308 40729
L46326 40748
L46345 40785
L46345 40860
L46326 40898
L46308 40917
L46270 40935
L46195 40935
L46158 40917
L46139 40898
L46120 40860
L46120 40785
L46139 40748
L46158 40729
L46195 40711
" />
<path d="M52044 20090
L52437 20090
L52437 19940
L52418 19903
L52400 19884
L52362 19865
L52306 19865
L52268 19884
L52250 19903
L52231 19940
L52231 20090
" />
<path d="M52044 19678
L52044 19603
L52062 19565
L52081 19546
L52137 19509
L52212 19490
L52362 19490
L52400 19509
L52418 19528
L52437 19565
L52437 19640
L52418 19678
L52400 19696
L52362 19715
L52268 19715
L52231 19696
L52212 19678
L52194 19640
L52194 19565
L52212 19528
L52231 19509
L52268 19490
" />
<path d="M59959 39278
L60353 39278
L60353 39128
L60334 39090
L60315 39071
L60278 39053
L60222 39053
L60184 39071
L60165 39090
L60147 39128
L60147 39278
" />
<path d="M59959 38678
L59959 38903
" />
<path d="M59959 38790
L60353 38790
L60297 38828
L60259 38865
L60240 38903
" />
<path d="M60353 38434
L60353 38396
L60334 38359
L60315 38340
L60278 38321
L60203 38303
L60109 38303
L60034 38321
L59997 38340
L59978 38359
L59959 38396
L59959 38434
L59978 38471
L59997 38490
L60034 38509
L60109 38528
L60203 38528
L60278 38509
L60315 38490
L60334 38471
L60353 38434
" />
<path d="M46508 23985
L46508 23592
L46358 23592
L46320 23611
L46301 23629
L46283 23667
L46283 23723
L46301 23761
L46320 23779
L46358 23798
L46508 23798
" />
<path d="M45908 23985
L46133 23985
" />
<path d="M46020 23985
L46020 23592
L46058 23648
L46095 23686
L46133 23704
" />
<path d="M45533 23985
L45758 23985
" />
<path d="M45645 23985
L45645 23592
L45683 23648
L45720 23686
L45758 23704
" />
<path d="M53159 39278
L53553 39278
L53553 39128
L53534 39090
L53515 39071
L53478 39053
L53422 39053
L53384 39071
L53365 39090
L53347 39128
L53347 39278
" />
<path d="M53159 38678
L53159 38903
" />
<path d="M53159 38790
L53553 38790
L53497 38828
L53459 38865
L53440 38903
" />
<path d="M53515 38528
L53534 38509
L53553 38471
L53553 38378
L53534 38340
L53515 38321
L53478 38303
L53440 38303
L53384 38321
L53159 38546
L53159 38303
" />
<path d="M43158 21461
L43158 21067
L43008 21067
L42970 21086
L42951 21104
L42933 21142
L42933 21198
L42951 21236
L42970 21254
L43008 21273
L43158 21273
" />
<path d="M42558 21461
L42783 21461
" />
<path d="M42670 21461
L42670 21067
L42708 21123
L42745 21161
L42783 21179
" />
<path d="M42426 21067
L42183 21067
L42314 21217
L42258 21217
L42220 21236
L42201 21254
L42183 21292
L42183 21386
L42201 21423
L42220 21442
L42258 21461
L42370 21461
L42408 21442
L42426 21423
" />
<path d="M66808 17970
L66808 17576
L66658 17576
L66620 17595
L66601 17614
L66583 17651
L66583 17707
L66601 17745
L66620 17764
L66658 17782
L66808 17782
" />
<path d="M66208 17970
L66433 17970
" />
<path d="M66320 17970
L66320 17576
L66358 17632
L66395 17670
L66433 17689
" />
<path d="M65870 17707
L65870 17970
" />
<path d="M65964 17557
L66058 17838
L65814 17838
" />
<path d="M44908 17970
L44908 17576
L44758 17576
L44720 17595
L44701 17614
L44683 17651
L44683 17707
L44701 17745
L44720 17764
L44758 17782
L44908 17782
" />
<path d="M44308 17970
L44533 17970
" />
<path d="M44420 17970
L44420 17576
L44458 17632
L44495 17670
L44533 17689
" />
<path d="M43970 17576
L44045 17576
L44083 17595
L44101 17614
L44139 17670
L44158 17745
L44158 17895
L44139 17932
L44120 17951
L44083 17970
L44008 17970
L43970 17951
L43951 17932
L43933 17895
L43933 17801
L43951 17764
L43970 17745
L44008 17726
L44083 17726
L44120 17745
L44139 17764
L44158 17801
" />
<path d="M68208 17970
L68208 17576
L68058 17576
L68020 17595
L68001 17614
L67983 17651
L67983 17707
L68001 17745
L68020 17764
L68058 17782
L68208 17782
" />
<path d="M67608 17970
L67833 17970
" />
<path d="M67720 17970
L67720 17576
L67758 17632
L67795 17670
L67833 17689
" />
<path d="M67476 17576
L67214 17576
L67383 17970
" />
<path d="M65408 17970
L65408 17576
L65258 17576
L65220 17595
L65201 17614
L65183 17651
L65183 17707
L65201 17745
L65220 17764
L65258 17782
L65408 17782
" />
<path d="M64808 17970
L65033 17970
" />
<path d="M64920 17970
L64920 17576
L64958 17632
L64995 17670
L65033 17689
" />
<path d="M64583 17745
L64620 17726
L64639 17707
L64658 17670
L64658 17651
L64639 17614
L64620 17595
L64583 17576
L64508 17576
L64470 17595
L64451 17614
L64433 17651
L64433 17670
L64451 17707
L64470 17726
L64508 17745
L64583 17745
L64620 17764
L64639 17782
L64658 17820
L64658 17895
L64639 17932
L64620 17951
L64583 17970
L64508 17970
L64470 17951
L64451 17932
L64433 17895
L64433 17820
L64451 17782
L64470 17764
L64508 17745
" />
<path d="M68208 20770
L68208 20376
L68058 20376
L68020 20395
L68001 20414
L67983 20451
L67983 20507
L68001 20545
L68020 20564
L68058 20582
L68208 20582
" />
<path d="M67608 20770
L67833 20770
" />
<path d="M67720 20770
L67720 20376
L67758 20432
L67795 20470
L67833 20489
" />
<path d="M67420 20770
L67345 20770
L67308 20751
L67289 20732
L67251 20676
L67233 20601
L67233 20451
L67251 20414
L67270 20395
L67308 20376
L67383 20376
L67420 20395
L67439 20414
L67458 20451
L67458 20545
L67439 20582
L67420 20601
L67383 20620
L67308 20620
L67270 20601
L67251 20582
L67233 20545
" />
<path d="M68208 30770
L68208 30376
L68058 30376
L68020 30395
L68001 30414
L67983 30451
L67983 30507
L68001 30545
L68020 30564
L68058 30582
L68208 30582
" />
<path d="M67833 30414
L67814 30395
L67776 30376
L67683 30376
L67645 30395
L67626 30414
L67608 30451
L67608 30489
L67626 30545
L67851 30770
L67608 30770
" />
<path d="M67364 30376
L67326 30376
L67289 30395
L67270 30414
L67251 30451
L67233 30526
L67233 30620
L67251 30695
L67270 30732
L67289 30751
L67326 30770
L67364 30770
L67401 30751
L67420 30732
L67439 30695
L67458 30620
L67458 30526
L67439 30451
L67420 30414
L67401 30395
L67364 30376
" />
<path d="M68208 34970
L68208 34576
L68058 34576
L68020 34595
L68001 34614
L67983 34651
L67983 34707
L68001 34745
L68020 34764
L68058 34782
L68208 34782
" />
<path d="M67833 34614
L67814 34595
L67776 34576
L67683 34576
L67645 34595
L67626 34614
L67608 34651
L67608 34689
L67626 34745
L67851 34970
L67608 34970
" />
<path d="M67233 34970
L67458 34970
" />
<path d="M67345 34970
L67345 34576
L67383 34632
L67420 34670
L67458 34689
" />
<path d="M68208 33570
L68208 33176
L68058 33176
L68020 33195
L68001 33214
L67983 33251
L67983 33307
L68001 33345
L68020 33364
L68058 33382
L68208 33382
" />
<path d="M67833 33214
L67814 33195
L67776 33176
L67683 33176
L67645 33195
L67626 33214
L67608 33251
L67608 33289
L67626 33345
L67851 33570
L67608 33570
" />
<path d="M67458 33214
L67439 33195
L67401 33176
L67308 33176
L67270 33195
L67251 33214
L67233 33251
L67233 33289
L67251 33345
L67476 33570
L67233 33570
" />
<path d="M68208 29370
L68208 28976
L68058 28976
L68020 28995
L68001 29014
L67983 29051
L67983 29107
L68001 29145
L68020 29164
L68058 29182
L68208 29182
" />
<path d="M67833 29014
L67814 28995
L67776 28976
L67683 28976
L67645 28995
L67626 29014
L67608 29051
L67608 29089
L67626 29145
L67851 29370
L67608 29370
" />
<path d="M67476 28976
L67233 28976
L67364 29126
L67308 29126
L67270 29145
L67251 29164
L67233 29201
L67233 29295
L67251 29332
L67270 29351
L67308 29370
L67420 29370
L67458 29351
L67476 29332
" />
<path d="M68208 32170
L68208 31776
L68058 31776
L68020 31795
L68001 31814
L67983 31851
L67983 31907
L68001 31945
L68020 31964
L68058 31982
L68208 31982
" />
<path d="M67833 31814
L67814 31795
L67776 31776
L67683 31776
L67645 31795
L67626 31814
L67608 31851
L67608 31889
L67626 31945
L67851 32170
L67608 32170
" />
<path d="M67270 31907
L67270 32170
" />
<path d="M67364 31757
L67458 32038
L67214 32038
" />
<path d="M44408 25470
L44408 25076
L44258 25076
L44220 25095
L44201 25114
L44183 25151
L44183 25207
L44201 25245
L44220 25264
L44258 25282
L44408 25282
" />
<path d="M44033 25114
L44014 25095
L43976 25076
L43883 25076
L43845 25095
L43826 25114
L43808 25151
L43808 25189
L43826 25245
L44051 25470
L43808 25470
" />
<path d="M43451 25076
L43639 25076
L43658 25264
L43639 25245
L43601 25226
L43508 25226
L43470 25245
L43451 25264
L43433 25301
L43433 25395
L43451 25432
L43470 25451
L43508 25470
L43601 25470
L43639 25451
L43658 25432
" />
<path d="M56229 26449
L56229 26768
L56211 26805
L56192 26824
L56154 26843
L56079 26843
L56042 26824
L56023 26805
L56004 26768
L56004 26449
" />
<path d="M55611 26843
L55836 26843
" />
<path d="M55723 26843
L55723 26449
L55761 26505
L55798 26543
L55836 26562
" />
<path d="M63908 17970
L63908 17576
L63758 17576
L63720 17595
L63701 17614
L63683 17651
L63683 17707
L63701 17745
L63720 17764
L63758 17782
L63908 17782
" />
<path d="M63533 17614
L63514 17595
L63476 17576
L63383 17576
L63345 17595
L63326 17614
L63308 17651
L63308 17689
L63326 17745
L63551 17970
L63308 17970
" />
<path d="M62970 17576
L63045 17576
L63083 17595
L63101 17614
L63139 17670
L63158 17745
L63158 17895
L63139 17932
L63120 17951
L63083 17970
L63008 17970
L62970 17951
L62951 17932
L62933 17895
L62933 17801
L62951 17764
L62970 17745
L63008 17726
L63083 17726
L63120 17745
L63139 17764
L63158 17801
" />
<path d="M53308 17970
L53308 17576
L53158 17576
L53120 17595
L53101 17614
L53083 17651
L53083 17707
L53101 17745
L53120 17764
L53158 17782
L53308 17782
" />
<path d="M52933 17614
L52914 17595
L52876 17576
L52783 17576
L52745 17595
L52726 17614
L52708 17651
L52708 17689
L52726 17745
L52951 17970
L52708 17970
" />
<path d="M52576 17576
L52314 17576
L52483 17970
" />
<path d="M48908 17970
L48908 17576
L48758 17576
L48720 17595
L48701 17614
L48683 17651
L48683 17707
L48701 17745
L48720 17764
L48758 17782
L48908 17782
" />
<path d="M48533 17614
L48514 17595
L48476 17576
L48383 17576
L48345 17595
L48326 17614
L48308 17651
L48308 17689
L48326 17745
L48551 17970
L48308 17970
" />
<path d="M48083 17745
L48120 17726
L48139 17707
L48158 17670
L48158 17651
L48139 17614
L48120 17595
L48083 17576
L48008 17576
L47970 17595
L47951 17614
L47933 17651
L47933 17670
L47951 17707
L47970 17726
L48008 17745
L48083 17745
L48120 17764
L48139 17782
L48158 17820
L48158 17895
L48139 17932
L48120 17951
L48083 17970
L48008 17970
L47970 17951
L47951 17932
L47933 17895
L47933 17820
L47951 17782
L47970 17764
L48008 17745
" />
<path d="M43595 31913
L43614 31932
L43670 31951
L43708 31951
L43764 31932
L43801 31895
L43820 31857
L43839 31782
L43839 31726
L43820 31651
L43801 31613
L43764 31576
L43708 31557
L43670 31557
L43614 31576
L43595 31595
" />
<path d="M43239 31557
L43426 31557
L43445 31745
L43426 31726
L43389 31707
L43295 31707
L43258 31726
L43239 31745
L43220 31782
L43220 31876
L43239 31913
L43258 31932
L43295 31951
L43389 31951
L43426 31932
L43445 31913
" />
<path d="M44195 35913
L44214 35932
L44270 35951
L44308 35951
L44364 35932
L44401 35895
L44420 35857
L44439 35782
L44439 35726
L44420 35651
L44401 35613
L44364 35576
L44308 35557
L44270 35557
L44214 35576
L44195 35595
" />
<path d="M43858 35557
L43933 35557
L43970 35576
L43989 35595
L44026 35651
L44045 35726
L44045 35876
L44026 35913
L44008 35932
L43970 35951
L43895 35951
L43858 35932
L43839 35913
L43820 35876
L43820 35782
L43839 35745
L43858 35726
L43895 35707
L43970 35707
L44008 35726
L44026 35745
L44045 35782
" />
<path d="M44495 21867
L44514 21886
L44570 21904
L44608 21904
L44664 21886
L44701 21848
L44720 21811
L44739 21736
L44739 21679
L44720 21604
L44701 21567
L44664 21529
L44608 21511
L44570 21511
L44514 21529
L44495 21548
" />
<path d="M44364 21511
L44101 21511
L44270 21904
" />
<path d="M68208 22170
L68208 21776
L68058 21776
L68020 21795
L68001 21814
L67983 21851
L67983 21907
L68001 21945
L68020 21964
L68058 21982
L68208 21982
" />
<path d="M67833 21814
L67814 21795
L67776 21776
L67683 21776
L67645 21795
L67626 21814
L67608 21851
L67608 21889
L67626 21945
L67851 22170
L67608 22170
" />
<path d="M67420 22170
L67345 22170
L67308 22151
L67289 22132
L67251 22076
L67233 22001
L67233 21851
L67251 21814
L67270 21795
L67308 21776
L67383 21776
L67420 21795
L67439 21814
L67458 21851
L67458 21945
L67439 21982
L67420 22001
L67383 22020
L67308 22020
L67270 22001
L67251 21982
L67233 21945
" />
<path d="M68208 24970
L68208 24576
L68058 24576
L68020 24595
L68001 24614
L67983 24651
L67983 24707
L68001 24745
L68020 24764
L68058 24782
L68208 24782
" />
<path d="M67851 24576
L67608 24576
L67739 24726
L67683 24726
L67645 24745
L67626 24764
L67608 24801
L67608 24895
L67626 24932
L67645 24951
L67683 24970
L67795 24970
L67833 24951
L67851 24932
" />
<path d="M67364 24576
L67326 24576
L67289 24595
L67270 24614
L67251 24651
L67233 24726
L67233 24820
L67251 24895
L67270 24932
L67289 24951
L67326 24970
L67364 24970
L67401 24951
L67420 24932
L67439 24895
L67458 24820
L67458 24726
L67439 24651
L67420 24614
L67401 24595
L67364 24576
" />
<path d="M68208 23570
L68208 23176
L68058 23176
L68020 23195
L68001 23214
L67983 23251
L67983 23307
L68001 23345
L68020 23364
L68058 23382
L68208 23382
" />
<path d="M67851 23176
L67608 23176
L67739 23326
L67683 23326
L67645 23345
L67626 23364
L67608 23401
L67608 23495
L67626 23532
L67645 23551
L67683 23570
L67795 23570
L67833 23551
L67851 23532
" />
<path d="M67233 23570
L67458 23570
" />
<path d="M67345 23570
L67345 23176
L67383 23232
L67420 23270
L67458 23289
" />
<path d="M68208 26570
L68208 26176
L68058 26176
L68020 26195
L68001 26214
L67983 26251
L67983 26307
L68001 26345
L68020 26364
L68058 26382
L68208 26382
" />
<path d="M67851 26176
L67608 26176
L67739 26326
L67683 26326
L67645 26345
L67626 26364
L67608 26401
L67608 26495
L67626 26532
L67645 26551
L67683 26570
L67795 26570
L67833 26551
L67851 26532
" />
<path d="M67458 26214
L67439 26195
L67401 26176
L67308 26176
L67270 26195
L67251 26214
L67233 26251
L67233 26289
L67251 26345
L67476 26570
L67233 26570
" />
<path d="M68208 27970
L68208 27576
L68058 27576
L68020 27595
L68001 27614
L67983 27651
L67983 27707
L68001 27745
L68020 27764
L68058 27782
L68208 27782
" />
<path d="M67851 27576
L67608 27576
L67739 27726
L67683 27726
L67645 27745
L67626 27764
L67608 27801
L67608 27895
L67626 27932
L67645 27951
L67683 27970
L67795 27970
L67833 27951
L67851 27932
" />
<path d="M67476 27576
L67233 27576
L67364 27726
L67308 27726
L67270 27745
L67251 27764
L67233 27801
L67233 27895
L67251 27932
L67270 27951
L67308 27970
L67420 27970
L67458 27951
L67476 27932
" />
<path d="M44772 36973
L44772 36579
L44678 36579
L44622 36598
L44585 36635
L44566 36673
L44547 36748
L44547 36804
L44566 36879
L44585 36917
L44622 36954
L44678 36973
L44772 36973
" />
<path d="M44172 36973
L44397 36973
" />
<path d="M44285 36973
L44285 36579
L44322 36635
L44360 36673
L44397 36692
" />
<path d="M43167 37493
L43167 37099
" />
<path d="M42942 37493
L43111 37268
" />
<path d="M42942 37099
L43167 37324
" />
<path d="M43299 37665
L43487 37796
" />
<path d="M43299 37890
L43693 37890
L43693 37740
L43674 37703
L43656 37684
L43618 37665
L43562 37665
L43524 37684
L43506 37703
L43487 37740
L43487 37890
" />
<path d="M43299 37290
L43299 37515
" />
<path d="M43299 37403
L43693 37403
L43637 37440
L43599 37478
L43581 37515
" />
<path d="M61889 25437
L61701 25437
" />
<path d="M62095 25568
L61889 25437
L62095 25306
" />
<path d="M61701 24968
L61701 25193
" />
<path d="M61701 25081
L62095 25081
L62039 25118
L62001 25156
L61983 25193
" />
<path d="M64504 29859
L64448 29878
L64354 29878
L64317 29859
L64298 29840
L64279 29803
L64279 29765
L64298 29728
L64317 29709
L64354 29690
L64429 29671
L64467 29653
L64486 29634
L64504 29596
L64504 29559
L64486 29521
L64467 29503
L64429 29484
L64336 29484
L64279 29503
" />
<path d="M64148 29484
L64054 29878
L63979 29596
L63905 29878
L63811 29484
" />
<path d="M63455 29878
L63680 29878
" />
<path d="M63567 29878
L63567 29484
L63605 29540
L63642 29578
L63680 29596
" />
<path d="M52886 26336
L52886 26362
L52913 26415
L52939 26442
L52992 26468
L53045 26468
L53085 26455
L53151 26415
L53191 26375
L53231 26309
L53244 26269
L53244 26216
L53218 26163
L53191 26137
L53138 26110
L53111 26110
" />
<path d="M52860 26044
L52899 26057
L52926 26057
L52966 26044
L52979 26031
L52992 25991
L52992 25965
L52979 25925
L52926 25872
L52886 25858
L52860 25858
L52820 25872
L52807 25885
L52793 25925
L52793 25951
L52807 25991
L52860 26044
L52873 26084
L52873 26110
L52860 26150
L52807 26203
L52767 26216
L52740 26216
L52700 26203
L52647 26150
L52634 26110
L52634 26084
L52647 26044
L52700 25991
L52740 25978
L52767 25978
L52807 25991
" />
<path d="M51791 31693
L51817 31693
L51870 31666
L51897 31640
L51923 31587
L51923 31534
L51910 31494
L51870 31428
L51830 31388
L51764 31348
L51724 31335
L51671 31335
L51618 31361
L51592 31388
L51565 31441
L51565 31468
" />
<path d="M51685 31852
L51632 31905
L51592 31918
L51565 31918
L51499 31905
L51433 31865
L51327 31759
L51313 31719
L51313 31693
L51327 31653
L51380 31600
L51420 31587
L51446 31587
L51486 31600
L51552 31666
L51565 31706
L51565 31733
L51552 31772
L51499 31825
L51459 31839
L51433 31839
L51393 31825
" />
<path d="M66966 30753
L66947 30771
L66928 30828
L66928 30865
L66947 30921
L66984 30959
L67022 30978
L67097 30996
L67153 30996
L67228 30978
L67266 30959
L67303 30921
L67322 30865
L67322 30828
L67303 30771
L67284 30753
" />
<path d="M66928 30378
L66928 30603
" />
<path d="M66928 30490
L67322 30490
L67266 30528
L67228 30565
L67209 30603
" />
<path d="M67322 30134
L67322 30096
L67303 30059
L67284 30040
L67247 30021
L67172 30003
L67078 30003
L67003 30021
L66966 30040
L66947 30059
L66928 30096
L66928 30134
L66947 30171
L66966 30190
L67003 30209
L67078 30228
L67172 30228
L67247 30209
L67284 30190
L67303 30171
L67322 30134
" />
<path d="M43952 30752
L44346 30752
L44346 30658
L44327 30602
L44290 30565
L44252 30546
L44177 30527
L44121 30527
L44046 30546
L44009 30565
L43971 30602
L43952 30658
L43952 30752
" />
<path d="M44309 30377
L44327 30358
L44346 30321
L44346 30227
L44327 30190
L44309 30171
L44271 30152
L44234 30152
L44177 30171
L43952 30396
L43952 30152
" />
<path d="M45559 31478
L45953 31478
L45953 31328
L45934 31290
L45915 31271
L45878 31253
L45822 31253
L45784 31271
L45765 31290
L45747 31328
L45747 31478
" />
<path d="M45953 31121
L45953 30878
L45803 31009
L45803 30953
L45784 30915
L45765 30896
L45728 30878
L45634 30878
L45597 30896
L45578 30915
L45559 30953
L45559 31065
L45578 31103
L45597 31121
" />
<path d="M45822 30540
L45559 30540
" />
<path d="M45972 30634
L45691 30728
L45691 30484
" />
</g> 
</svg>
