<?xml version="1.0" standalone="no"?>
 <!DOCTYPE svg PUBLIC "-//W3C//DTD SVG 1.1//EN" 
 "http://www.w3.org/Graphics/SVG/1.1/DTD/svg11.dtd"> 
<svg xmlns="http://www.w3.org/2000/svg" version="1.1" 
    width="29.7002cm" height="21.0007cm" viewBox="0 0 116930 82680 ">
<title>SVG Picture created as simple_lqfp64-F.SilkS.svg date 2016/03/26 22:23:07 </title>
  <desc>Picture generated by PCBNEW </desc>
<g style="fill:#000000; fill-opacity:1;stroke:#000000; stroke-opacity:1;
stroke-linecap:round; stroke-linejoin:round; "
 transform="translate(0 0) scale(1 1)">
</g>
<g style="fill:#000000; fill-opacity:0.0; 
stroke:#000000; stroke-width:-0.000393701; stroke-opacity:1; 
stroke-linecap:round; stroke-linejoin:round;">
</g>
<g style="fill:#000000; fill-opacity:0.0; 
stroke:#000000; stroke-width:59.0551; stroke-opacity:1; 
stroke-linecap:round; stroke-linejoin:round;">
<path d="M49810 20589
L49810 21200
" />
<path d="M48589 21200
L48589 20589
" />
<path d="M48589 20589
L49810 20589
" />
<path d="M48700 21700
L49700 21700
" />
<path d="M54196 22965
L53803 22965
" />
<path d="M53803 23634
L54196 23634
" />
<path d="M54246 26865
L53853 26865
" />
<path d="M53853 27534
L54246 27534
" />
<path d="M54803 24884
L55196 24884
" />
<path d="M55196 24215
L54803 24215
" />
<path d="M54803 26084
L55196 26084
" />
<path d="M55196 25415
L54803 25415
" />
<path d="M63700 39300
L62700 39300
" />
<path d="M64810 39410
L64200 39410
" />
<path d="M63700 39300
L63700 38300
" />
<path d="M64200 38189
L64810 38189
" />
<path d="M64810 38189
L64810 39410
" />
<path d="M63700 38300
L62700 38300
" />
<path d="M62700 38300
L62700 39300
" />
<path d="M66000 20300
L68000 20300
" />
<path d="M68000 20300
L68000 19300
" />
<path d="M68000 19300
L66000 19300
" />
<path d="M64889 19189
L65500 19189
" />
<path d="M66000 19300
L66000 20300
" />
<path d="M65500 20410
L64889 20410
" />
<path d="M64889 20410
L64889 19189
" />
<path d="M51700 38300
L48700 38300
" />
<path d="M51700 39300
L48700 39300
" />
<path d="M52810 39410
L52200 39410
" />
<path d="M48700 38300
L48700 39300
" />
<path d="M51700 39300
L51700 38300
" />
<path d="M52200 38189
L52810 38189
" />
<path d="M52810 38189
L52810 39410
" />
<path d="M70000 29750
L70000 32750
" />
<path d="M71000 29750
L71000 32750
" />
<path d="M71110 28639
L71110 29250
" />
<path d="M70000 32750
L71000 32750
" />
<path d="M71000 29750
L70000 29750
" />
<path d="M69889 29250
L69889 28639
" />
<path d="M69889 28639
L71110 28639
" />
<path d="M55510 19189
L55510 19800
" />
<path d="M54289 19800
L54289 19189
" />
<path d="M54289 19189
L55510 19189
" />
<path d="M54400 20300
L55400 20300
" />
<path d="M54500 39300
L57500 39300
" />
<path d="M54500 38300
L57500 38300
" />
<path d="M53389 38189
L54000 38189
" />
<path d="M57500 39300
L57500 38300
" />
<path d="M54500 38300
L54500 39300
" />
<path d="M54000 39410
L53389 39410
" />
<path d="M53389 39410
L53389 38189
" />
<path d="M71000 27250
L71000 25250
" />
<path d="M71000 25250
L70000 25250
" />
<path d="M70000 25250
L70000 27250
" />
<path d="M69889 28360
L69889 27750
" />
<path d="M70000 27250
L71000 27250
" />
<path d="M71110 27750
L71110 28360
" />
<path d="M71110 28360
L69889 28360
" />
<path d="M70000 38250
L70000 33250
" />
<path d="M70000 33250
L71000 33250
" />
<path d="M71000 33250
L71000 38250
" />
<path d="M69889 39360
L69889 38750
" />
<path d="M70000 38250
L71000 38250
" />
<path d="M71110 38750
L71110 39360
" />
<path d="M71110 39360
L69889 39360
" />
<path d="M62200 20300
L56200 20300
" />
<path d="M56200 20300
L56200 19300
" />
<path d="M56200 19300
L62200 19300
" />
<path d="M63310 20410
L62700 20410
" />
<path d="M62200 20300
L62200 19300
" />
<path d="M62700 19189
L63310 19189
" />
<path d="M63310 19189
L63310 20410
" />
<path d="M59300 39300
L62300 39300
" />
<path d="M59300 38300
L62300 38300
" />
<path d="M58189 38189
L58800 38189
" />
<path d="M62300 39300
L62300 38300
" />
<path d="M59300 38300
L59300 39300
" />
<path d="M58800 39410
L58189 39410
" />
<path d="M58189 39410
L58189 38189
" />
<path d="M71400 21300
L71400 19300
" />
<path d="M71400 19300
L70400 19300
" />
<path d="M70400 19300
L70400 21300
" />
<path d="M70289 22410
L70289 21800
" />
<path d="M70400 21300
L71400 21300
" />
<path d="M71510 21800
L71510 22410
" />
<path d="M71510 22410
L70289 22410
" />
<path d="M66100 39300
L68100 39300
" />
<path d="M68100 39300
L68100 38300
" />
<path d="M68100 38300
L66100 38300
" />
<path d="M64989 38189
L65600 38189
" />
<path d="M66100 38300
L66100 39300
" />
<path d="M65600 39410
L64989 39410
" />
<path d="M64989 39410
L64989 38189
" />
<path d="M75667 25516
L75667 22484
" />
<path d="M76061 25516
L76061 22484
" />
<path d="M76061 22484
L72439 22484
" />
<path d="M72439 22484
L72439 25516
" />
<path d="M72439 25516
L76061 25516
" />
<path d="M51210 19189
L51210 19800
" />
<path d="M49989 19800
L49989 19189
" />
<path d="M49989 19189
L51210 19189
" />
<path d="M50100 20300
L51100 20300
" />
<path d="M73110 19189
L73110 19800
" />
<path d="M71889 19800
L71889 19189
" />
<path d="M71889 19189
L73110 19189
" />
<path d="M72000 20300
L73000 20300
" />
<path d="M49810 19189
L49810 19800
" />
<path d="M48589 19800
L48589 19189
" />
<path d="M48589 19189
L49810 19189
" />
<path d="M48700 20300
L49700 20300
" />
<path d="M52610 19189
L52610 19800
" />
<path d="M51389 19800
L51389 19189
" />
<path d="M51389 19189
L52610 19189
" />
<path d="M51500 20300
L52500 20300
" />
<path d="M49810 21989
L49810 22600
" />
<path d="M48589 22600
L48589 21989
" />
<path d="M48589 21989
L49810 21989
" />
<path d="M48700 23100
L49700 23100
" />
<path d="M49810 31989
L49810 32600
" />
<path d="M48589 32600
L48589 31989
" />
<path d="M48589 31989
L49810 31989
" />
<path d="M48700 33100
L49700 33100
" />
<path d="M49810 36189
L49810 36800
" />
<path d="M48589 36800
L48589 36189
" />
<path d="M48589 36189
L49810 36189
" />
<path d="M48700 37300
L49700 37300
" />
<path d="M49810 34789
L49810 35400
" />
<path d="M48589 35400
L48589 34789
" />
<path d="M48589 34789
L49810 34789
" />
<path d="M48700 35900
L49700 35900
" />
<path d="M49810 30589
L49810 31200
" />
<path d="M48589 31200
L48589 30589
" />
<path d="M48589 30589
L49810 30589
" />
<path d="M48700 31700
L49700 31700
" />
<path d="M49810 33389
L49810 34000
" />
<path d="M48589 34000
L48589 33389
" />
<path d="M48589 33389
L49810 33389
" />
<path d="M48700 34500
L49700 34500
" />
<path d="M73610 26689
L73610 27300
" />
<path d="M72389 27300
L72389 26689
" />
<path d="M72389 26689
L73610 26689
" />
<path d="M72500 27800
L73500 27800
" />
<path d="M58962 27462
L58962 27885
" />
<path d="M63037 27462
L63037 27885
" />
<path d="M63037 31537
L63037 31114
" />
<path d="M58962 31537
L58962 31114
" />
<path d="M58962 27462
L59385 27462
" />
<path d="M58962 31537
L59385 31537
" />
<path d="M63037 31537
L62614 31537
" />
<path d="M63037 27462
L62614 27462
" />
<path d="M58962 27885
L58559 27885
" />
<path d="M54110 19189
L54110 19800
" />
<path d="M52889 19800
L52889 19189
" />
<path d="M52889 19189
L54110 19189
" />
<path d="M53000 20300
L54000 20300
" />
<path d="M64710 19189
L64710 19800
" />
<path d="M63489 19800
L63489 19189
" />
<path d="M63489 19189
L64710 19189
" />
<path d="M63600 20300
L64600 20300
" />
<path d="M69110 19189
L69110 19800
" />
<path d="M67889 19800
L67889 19189
" />
<path d="M67889 19189
L69110 19189
" />
<path d="M68000 20300
L69000 20300
" />
<path d="M74334 29196
L74334 28803
" />
<path d="M73665 28803
L73665 29196
" />
<path d="M72796 32065
L72403 32065
" />
<path d="M72403 32734
L72796 32734
" />
<path d="M72303 21234
L72696 21234
" />
<path d="M72696 20565
L72303 20565
" />
<path d="M73348 30321
L73250 30439
" />
<path d="M73250 30439
L73210 30498
" />
<path d="M73210 30498
L73210 30164
" />
<path d="M73486 30912
L73486 30203
" />
<path d="M73486 30912
L73230 30912
" />
<path d="M71714 30912
L71714 30203
" />
<path d="M71714 30912
L71970 30912
" />
<path d="M49810 23389
L49810 24000
" />
<path d="M48589 24000
L48589 23389
" />
<path d="M48589 23389
L49810 23389
" />
<path d="M48700 24500
L49700 24500
" />
<path d="M49810 26189
L49810 26800
" />
<path d="M48589 26800
L48589 26189
" />
<path d="M48589 26189
L49810 26189
" />
<path d="M48700 27300
L49700 27300
" />
<path d="M49810 24789
L49810 25400
" />
<path d="M48589 25400
L48589 24789
" />
<path d="M48589 24789
L49810 24789
" />
<path d="M48700 25900
L49700 25900
" />
<path d="M49810 27789
L49810 28400
" />
<path d="M48589 28400
L48589 27789
" />
<path d="M48589 27789
L49810 27789
" />
<path d="M48700 28900
L49700 28900
" />
<path d="M49810 29189
L49810 29800
" />
<path d="M48589 29800
L48589 29189
" />
<path d="M48589 29189
L49810 29189
" />
<path d="M48700 30300
L49700 30300
" />
<path d="M73178 35282
L73178 35361
" />
<path d="M73178 36303
L73178 36233
" />
<path d="M71907.6 36181.7 A786.653 786.653 0.0 0 0 73178.3 36306.3 " />
<path d="M72173.6 36232.7 A608.718 608.718 0.0 0 0 73001.6 36233.1 " />
<path d="M73173.3 35272.2 A782.385 782.385 0.0 0 0 71898.8 35408.7 " />
<path d="M72987 35361.7 A582.991 582.991 0.0 0 0 72180.7 35369.3 " />
<path d="M73465 33503
L73465 33896
" />
<path d="M72934 33896
L72934 33503
" />
<path d="M53944 27100
L53786 27179
" />
<path d="M53786 27179
L53550 27219
" />
<path d="M53550 27219
L53353 27179
" />
<path d="M53353 27179
L53078 27022
" />
<path d="M53078 27022
L52920 26785
" />
<path d="M52920 26785
L52841 26549
" />
<path d="M52841 26549
L52841 23951
" />
<path d="M52841 23951
L52920 23675
" />
<path d="M52920 23675
L53038 23518
" />
<path d="M53038 23518
L53235 23360
" />
<path d="M53235 23360
L53471 23281
" />
<path d="M53471 23281
L53668 23281
" />
<path d="M53668 23281
L53865 23360
" />
<path d="M53865 23360
L54101 23557
" />
<path d="M54101 23557
L54219 23754
" />
<path d="M54219 23754
L54259 23951
" />
<path d="M54259 23990
L54259 26589
" />
<path d="M54259 26589
L54219 26746
" />
<path d="M54219 26746
L54101 26943
" />
<path d="M54101 26943
L53904 27140
" />
<path d="M54467 23994
L54448 23813
" />
<path d="M54448 23813
L54404 23656
" />
<path d="M54404 23656
L54318 23486
" />
<path d="M54318 23486
L54227 23372
" />
<path d="M54227 23372
L54089 23242
" />
<path d="M54089 23242
L53877 23128
" />
<path d="M53877 23128
L53641 23077
" />
<path d="M53641 23077
L53440 23077
" />
<path d="M53440 23077
L53164 23144
" />
<path d="M53164 23144
L52932 23301
" />
<path d="M52932 23301
L52786 23482
" />
<path d="M52786 23482
L52704 23648
" />
<path d="M52704 23648
L52641 23825
" />
<path d="M52641 23825
L52629 23998
" />
<path d="M52715 26888
L52802 27037
" />
<path d="M52802 27037
L52912 27163
" />
<path d="M52912 27163
L53042 27262
" />
<path d="M53042 27262
L53259 27380
" />
<path d="M53259 27380
L53444 27423
" />
<path d="M53444 27423
L53625 27431
" />
<path d="M53625 27431
L53806 27396
" />
<path d="M53806 27396
L53983 27321
" />
<path d="M53983 27321
L54168 27179
" />
<path d="M54168 27179
L54294 27041
" />
<path d="M54294 27041
L54385 26888
" />
<path d="M54385 26888
L54440 26719
" />
<path d="M54440 26719
L54467 26545
" />
<path d="M52633 23990
L52633 26530
" />
<path d="M52633 26530
L52648 26695
" />
<path d="M52648 26695
L52715 26888
" />
<path d="M54467 23990
L54467 26530
" />
<circle cx="52950" cy="30000" r="1000" /> 
<path d="M51450 28500
L54450 28500
" />
<path d="M54450 28500
L54450 31500
" />
<path d="M54450 31500
L51450 31500
" />
<path d="M51450 28500
L51450 31500
" />
</g>
<g style="fill:#000000; fill-opacity:0.0; 
stroke:#000000; stroke-width:39.3701; stroke-opacity:1; 
stroke-linecap:round; stroke-linejoin:round;">
<polyline fill="none;"
points="48779,21620
48779,20779
49620,20779
49620,21620
48779,21620
" /> 
<polyline fill="none;"
points="63819,38419
64580,38419
64580,39180
63819,39180
63819,38419
" /> 
<path d="M63200 38419
L63200 38419
" />
<path d="M63200 39180
L63200 39180
" />
<path d="M63200 38419.7 A380.315 380.315 0.0 0 0 63200 39180.3 " />
<path d="M63200 39180.3 A380.315 380.315 0.0 0 0 63200 38419.7 " />
<polyline fill="none;"
points="65820,20180
65179,20180
65179,19419
65820,19419
65820,20180
" /> 
<path d="M66820 19860
L66820 19740
" />
<path d="M66179 19860
L66179 19740
" />
<path d="M66820.3 19740 A320.315 320.315 0.0 0 0 66179.7 19740 " />
<path d="M66179.7 19860 A320.315 320.315 0.0 0 0 66820.3 19860 " />
<path d="M67820 19860
L67820 19740
" />
<path d="M67179 19860
L67179 19740
" />
<path d="M67820.3 19740 A320.315 320.315 0.0 0 0 67179.7 19740 " />
<path d="M67179.7 19860 A320.315 320.315 0.0 0 0 67820.3 19860 " />
<polyline fill="none;"
points="51879,38419
52520,38419
52520,39180
51879,39180
51879,38419
" /> 
<path d="M50879 38740
L50879 38860
" />
<path d="M51520 38740
L51520 38860
" />
<path d="M50879.7 38860 A320.315 320.315 0.0 0 0 51520.3 38860 " />
<path d="M51520.3 38740 A320.315 320.315 0.0 0 0 50879.7 38740 " />
<path d="M49879 38740
L49879 38860
" />
<path d="M50520 38740
L50520 38860
" />
<path d="M49879.7 38860 A320.315 320.315 0.0 0 0 50520.3 38860 " />
<path d="M50520.3 38740 A320.315 320.315 0.0 0 0 49879.7 38740 " />
<path d="M48879 38740
L48879 38860
" />
<path d="M49520 38740
L49520 38860
" />
<path d="M48879.7 38860 A320.315 320.315 0.0 0 0 49520.3 38860 " />
<path d="M49520.3 38740 A320.315 320.315 0.0 0 0 48879.7 38740 " />
<polyline fill="none;"
points="70119,29570
70119,28929
70880,28929
70880,29570
70119,29570
" /> 
<path d="M70440 30570
L70560 30570
" />
<path d="M70440 29929
L70560 29929
" />
<path d="M70560 30570.3 A320.315 320.315 0.0 0 0 70560 29929.7 " />
<path d="M70440 29929.7 A320.315 320.315 0.0 0 0 70440 30570.3 " />
<path d="M70440 31570
L70560 31570
" />
<path d="M70440 30929
L70560 30929
" />
<path d="M70560 31570.3 A320.315 320.315 0.0 0 0 70560 30929.7 " />
<path d="M70440 30929.7 A320.315 320.315 0.0 0 0 70440 31570.3 " />
<path d="M70440 32570
L70560 32570
" />
<path d="M70440 31929
L70560 31929
" />
<path d="M70560 32570.3 A320.315 320.315 0.0 0 0 70560 31929.7 " />
<path d="M70440 31929.7 A320.315 320.315 0.0 0 0 70440 32570.3 " />
<polyline fill="none;"
points="54479,20220
54479,19379
55320,19379
55320,20220
54479,20220
" /> 
<polyline fill="none;"
points="54320,39180
53679,39180
53679,38419
54320,38419
54320,39180
" /> 
<path d="M55320 38860
L55320 38740
" />
<path d="M54679 38860
L54679 38740
" />
<path d="M55320.3 38740 A320.315 320.315 0.0 0 0 54679.7 38740 " />
<path d="M54679.7 38860 A320.315 320.315 0.0 0 0 55320.3 38860 " />
<path d="M56320 38860
L56320 38740
" />
<path d="M55679 38860
L55679 38740
" />
<path d="M56320.3 38740 A320.315 320.315 0.0 0 0 55679.7 38740 " />
<path d="M55679.7 38860 A320.315 320.315 0.0 0 0 56320.3 38860 " />
<path d="M57320 38860
L57320 38740
" />
<path d="M56679 38860
L56679 38740
" />
<path d="M57320.3 38740 A320.315 320.315 0.0 0 0 56679.7 38740 " />
<path d="M56679.7 38860 A320.315 320.315 0.0 0 0 57320.3 38860 " />
<polyline fill="none;"
points="70880,27429
70880,28070
70119,28070
70119,27429
70880,27429
" /> 
<path d="M70560 26429
L70440 26429
" />
<path d="M70560 27070
L70440 27070
" />
<path d="M70440 26429.7 A320.315 320.315 0.0 0 0 70440 27070.3 " />
<path d="M70560 27070.3 A320.315 320.315 0.0 0 0 70560 26429.7 " />
<path d="M70560 25429
L70440 25429
" />
<path d="M70560 26070
L70440 26070
" />
<path d="M70440 25429.7 A320.315 320.315 0.0 0 0 70440 26070.3 " />
<path d="M70560 26070.3 A320.315 320.315 0.0 0 0 70560 25429.7 " />
<polyline fill="none;"
points="70880,38429
70880,39070
70119,39070
70119,38429
70880,38429
" /> 
<path d="M70560 37429
L70440 37429
" />
<path d="M70560 38070
L70440 38070
" />
<path d="M70440 37429.7 A320.315 320.315 0.0 0 0 70440 38070.3 " />
<path d="M70560 38070.3 A320.315 320.315 0.0 0 0 70560 37429.7 " />
<path d="M70560 36429
L70440 36429
" />
<path d="M70560 37070
L70440 37070
" />
<path d="M70440 36429.7 A320.315 320.315 0.0 0 0 70440 37070.3 " />
<path d="M70560 37070.3 A320.315 320.315 0.0 0 0 70560 36429.7 " />
<path d="M70560 35429
L70440 35429
" />
<path d="M70560 36070
L70440 36070
" />
<path d="M70440 35429.7 A320.315 320.315 0.0 0 0 70440 36070.3 " />
<path d="M70560 36070.3 A320.315 320.315 0.0 0 0 70560 35429.7 " />
<path d="M70560 34429
L70440 34429
" />
<path d="M70560 35070
L70440 35070
" />
<path d="M70440 34429.7 A320.315 320.315 0.0 0 0 70440 35070.3 " />
<path d="M70560 35070.3 A320.315 320.315 0.0 0 0 70560 34429.7 " />
<path d="M70560 33429
L70440 33429
" />
<path d="M70560 34070
L70440 34070
" />
<path d="M70440 33429.7 A320.315 320.315 0.0 0 0 70440 34070.3 " />
<path d="M70560 34070.3 A320.315 320.315 0.0 0 0 70560 33429.7 " />
<polyline fill="none;"
points="62379,19419
63020,19419
63020,20180
62379,20180
62379,19419
" /> 
<path d="M61379 19740
L61379 19860
" />
<path d="M62020 19740
L62020 19860
" />
<path d="M61379.7 19860 A320.315 320.315 0.0 0 0 62020.3 19860 " />
<path d="M62020.3 19740 A320.315 320.315 0.0 0 0 61379.7 19740 " />
<path d="M60379 19740
L60379 19860
" />
<path d="M61020 19740
L61020 19860
" />
<path d="M60379.7 19860 A320.315 320.315 0.0 0 0 61020.3 19860 " />
<path d="M61020.3 19740 A320.315 320.315 0.0 0 0 60379.7 19740 " />
<path d="M59379 19740
L59379 19860
" />
<path d="M60020 19740
L60020 19860
" />
<path d="M59379.7 19860 A320.315 320.315 0.0 0 0 60020.3 19860 " />
<path d="M60020.3 19740 A320.315 320.315 0.0 0 0 59379.7 19740 " />
<path d="M58379 19740
L58379 19860
" />
<path d="M59020 19740
L59020 19860
" />
<path d="M58379.7 19860 A320.315 320.315 0.0 0 0 59020.3 19860 " />
<path d="M59020.3 19740 A320.315 320.315 0.0 0 0 58379.7 19740 " />
<path d="M57379 19740
L57379 19860
" />
<path d="M58020 19740
L58020 19860
" />
<path d="M57379.7 19860 A320.315 320.315 0.0 0 0 58020.3 19860 " />
<path d="M58020.3 19740 A320.315 320.315 0.0 0 0 57379.7 19740 " />
<path d="M56379 19740
L56379 19860
" />
<path d="M57020 19740
L57020 19860
" />
<path d="M56379.7 19860 A320.315 320.315 0.0 0 0 57020.3 19860 " />
<path d="M57020.3 19740 A320.315 320.315 0.0 0 0 56379.7 19740 " />
<polyline fill="none;"
points="59120,39180
58479,39180
58479,38419
59120,38419
59120,39180
" /> 
<path d="M60120 38860
L60120 38740
" />
<path d="M59479 38860
L59479 38740
" />
<path d="M60120.3 38740 A320.315 320.315 0.0 0 0 59479.7 38740 " />
<path d="M59479.7 38860 A320.315 320.315 0.0 0 0 60120.3 38860 " />
<path d="M61120 38860
L61120 38740
" />
<path d="M60479 38860
L60479 38740
" />
<path d="M61120.3 38740 A320.315 320.315 0.0 0 0 60479.7 38740 " />
<path d="M60479.7 38860 A320.315 320.315 0.0 0 0 61120.3 38860 " />
<path d="M62120 38860
L62120 38740
" />
<path d="M61479 38860
L61479 38740
" />
<path d="M62120.3 38740 A320.315 320.315 0.0 0 0 61479.7 38740 " />
<path d="M61479.7 38860 A320.315 320.315 0.0 0 0 62120.3 38860 " />
<polyline fill="none;"
points="71280,21479
71280,22120
70519,22120
70519,21479
71280,21479
" /> 
<path d="M70960 20479
L70840 20479
" />
<path d="M70960 21120
L70840 21120
" />
<path d="M70840 20479.7 A320.315 320.315 0.0 0 0 70840 21120.3 " />
<path d="M70960 21120.3 A320.315 320.315 0.0 0 0 70960 20479.7 " />
<path d="M70960 19479
L70840 19479
" />
<path d="M70960 20120
L70840 20120
" />
<path d="M70840 19479.7 A320.315 320.315 0.0 0 0 70840 20120.3 " />
<path d="M70960 20120.3 A320.315 320.315 0.0 0 0 70960 19479.7 " />
<polyline fill="none;"
points="65920,39180
65279,39180
65279,38419
65920,38419
65920,39180
" /> 
<path d="M66920 38860
L66920 38740
" />
<path d="M66279 38860
L66279 38740
" />
<path d="M66920.3 38740 A320.315 320.315 0.0 0 0 66279.7 38740 " />
<path d="M66279.7 38860 A320.315 320.315 0.0 0 0 66920.3 38860 " />
<path d="M67920 38860
L67920 38740
" />
<path d="M67279 38860
L67279 38740
" />
<path d="M67920.3 38740 A320.315 320.315 0.0 0 0 67279.7 38740 " />
<path d="M67279.7 38860 A320.315 320.315 0.0 0 0 67920.3 38860 " />
<circle cx="73915" cy="24866" r="157.315" /> 
<circle cx="73915" cy="23134" r="157.315" /> 
<polyline fill="none;"
points="50179,20220
50179,19379
51020,19379
51020,20220
50179,20220
" /> 
<polyline fill="none;"
points="72079,20220
72079,19379
72920,19379
72920,20220
72079,20220
" /> 
<polyline fill="none;"
points="48779,20220
48779,19379
49620,19379
49620,20220
48779,20220
" /> 
<polyline fill="none;"
points="51579,20220
51579,19379
52420,19379
52420,20220
51579,20220
" /> 
<polyline fill="none;"
points="48779,23020
48779,22179
49620,22179
49620,23020
48779,23020
" /> 
<polyline fill="none;"
points="48779,33020
48779,32179
49620,32179
49620,33020
48779,33020
" /> 
<polyline fill="none;"
points="48779,37220
48779,36379
49620,36379
49620,37220
48779,37220
" /> 
<polyline fill="none;"
points="48779,35820
48779,34979
49620,34979
49620,35820
48779,35820
" /> 
<polyline fill="none;"
points="48779,31620
48779,30779
49620,30779
49620,31620
48779,31620
" /> 
<polyline fill="none;"
points="48779,34420
48779,33579
49620,33579
49620,34420
48779,34420
" /> 
<polyline fill="none;"
points="72579,27720
72579,26879
73420,26879
73420,27720
72579,27720
" /> 
<polyline fill="none;"
points="53079,20220
53079,19379
53920,19379
53920,20220
53079,20220
" /> 
<polyline fill="none;"
points="63679,20220
63679,19379
64520,19379
64520,20220
63679,20220
" /> 
<polyline fill="none;"
points="68079,20220
68079,19379
68920,19379
68920,20220
68079,20220
" /> 
<polyline fill="none;"
points="48779,24420
48779,23579
49620,23579
49620,24420
48779,24420
" /> 
<polyline fill="none;"
points="48779,27220
48779,26379
49620,26379
49620,27220
48779,27220
" /> 
<polyline fill="none;"
points="48779,25820
48779,24979
49620,24979
49620,25820
48779,25820
" /> 
<polyline fill="none;"
points="48779,28820
48779,27979
49620,27979
49620,28820
48779,28820
" /> 
<polyline fill="none;"
points="48779,30220
48779,29379
49620,29379
49620,30220
48779,30220
" /> 
<polyline fill="none;"
points="72725,35425
73474,35425
73474,36174
72725,36174
72725,35425
" /> 
<circle cx="72100" cy="35800" r="374.016" /> 
<circle cx="53550" cy="24289" r="275.815" /> 
<circle cx="53550" cy="26211" r="275.815" /> 
<circle cx="54450" cy="29000" r="255.315" /> 
<circle cx="54450" cy="31000" r="255.315" /> 
<circle cx="51450" cy="29000" r="255.315" /> 
<circle cx="51450" cy="31000" r="255.315" /> 
</g>
<g style="fill:#000000; fill-opacity:0.0; 
stroke:#000000; stroke-width:59.0551; stroke-opacity:1; 
stroke-linecap:round; stroke-linejoin:round;">
<path d="M48721 19370
L48721 18976
L48871 18976
L48909 18995
L48928 19014
L48946 19051
L48946 19107
L48928 19145
L48909 19164
L48871 19182
L48721 19182
" />
<path d="M49321 19370
L49096 19370
" />
<path d="M49209 19370
L49209 18976
L49171 19032
L49134 19070
L49096 19089
" />
<path d="M49678 18976
L49490 18976
L49471 19164
L49490 19145
L49528 19126
L49621 19126
L49659 19145
L49678 19164
L49696 19201
L49696 19295
L49678 19332
L49659 19351
L49621 19370
L49528 19370
L49490 19351
L49471 19332
" />
<path d="M53934 22613
L53915 22632
L53859 22651
L53821 22651
L53765 22632
L53728 22595
L53709 22557
L53690 22482
L53690 22426
L53709 22351
L53728 22313
L53765 22276
L53821 22257
L53859 22257
L53915 22276
L53934 22295
" />
<path d="M54309 22651
L54084 22651
" />
<path d="M54196 22651
L54196 22257
L54159 22313
L54121 22351
L54084 22370
" />
<path d="M53984 26513
L53965 26532
L53909 26551
L53871 26551
L53815 26532
L53778 26495
L53759 26457
L53740 26382
L53740 26326
L53759 26251
L53778 26213
L53815 26176
L53871 26157
L53909 26157
L53965 26176
L53984 26195
" />
<path d="M54134 26195
L54153 26176
L54190 26157
L54284 26157
L54321 26176
L54340 26195
L54359 26232
L54359 26270
L54340 26326
L54115 26551
L54359 26551
" />
<path d="M54934 25517
L54915 25536
L54859 25554
L54821 25554
L54765 25536
L54728 25498
L54709 25461
L54690 25386
L54690 25329
L54709 25254
L54728 25217
L54765 25179
L54821 25161
L54859 25161
L54915 25179
L54934 25198
" />
<path d="M55065 25161
L55309 25161
L55178 25311
L55234 25311
L55271 25329
L55290 25348
L55309 25386
L55309 25479
L55290 25517
L55271 25536
L55234 25554
L55121 25554
L55084 25536
L55065 25517
" />
<path d="M54934 26717
L54915 26736
L54859 26754
L54821 26754
L54765 26736
L54728 26698
L54709 26661
L54690 26586
L54690 26529
L54709 26454
L54728 26417
L54765 26379
L54821 26361
L54859 26361
L54915 26379
L54934 26398
" />
<path d="M55271 26492
L55271 26754
" />
<path d="M55178 26342
L55084 26623
L55328 26623
" />
<path d="M66385 39090
L65992 39090
L65992 38940
L66011 38903
L66029 38884
L66067 38865
L66123 38865
L66161 38884
L66179 38903
L66198 38940
L66198 39090
" />
<path d="M66385 38490
L66385 38715
" />
<path d="M66385 38603
L65992 38603
L66048 38640
L66086 38678
L66104 38715
" />
<path d="M63670 20090
L63276 20090
L63276 19940
L63295 19903
L63314 19884
L63351 19865
L63407 19865
L63445 19884
L63464 19903
L63482 19940
L63482 20090
" />
<path d="M63314 19715
L63295 19696
L63276 19659
L63276 19565
L63295 19528
L63314 19509
L63351 19490
L63389 19490
L63445 19509
L63670 19734
L63670 19490
" />
<path d="M54385 39090
L53992 39090
L53992 38940
L54011 38903
L54029 38884
L54067 38865
L54123 38865
L54161 38884
L54179 38903
L54198 38940
L54198 39090
" />
<path d="M53992 38734
L53992 38490
L54142 38621
L54142 38565
L54161 38528
L54179 38509
L54217 38490
L54310 38490
L54348 38509
L54367 38528
L54385 38565
L54385 38678
L54367 38715
L54348 38734
" />
<path d="M70209 27420
L70209 27026
L70359 27026
L70396 27045
L70415 27064
L70434 27101
L70434 27157
L70415 27195
L70396 27214
L70359 27232
L70209 27232
" />
<path d="M70771 27157
L70771 27420
" />
<path d="M70678 27007
L70584 27288
L70828 27288
" />
<path d="M54609 17970
L54609 17576
L54759 17576
L54796 17595
L54815 17614
L54834 17651
L54834 17707
L54815 17745
L54796 17764
L54759 17782
L54609 17782
" />
<path d="M55190 17576
L55003 17576
L54984 17764
L55003 17745
L55040 17726
L55134 17726
L55171 17745
L55190 17764
L55209 17801
L55209 17895
L55190 17932
L55171 17951
L55134 17970
L55040 17970
L55003 17951
L54984 17932
" />
<path d="M52170 39090
L51776 39090
L51776 38940
L51795 38903
L51814 38884
L51851 38865
L51907 38865
L51945 38884
L51964 38903
L51982 38940
L51982 39090
" />
<path d="M51776 38528
L51776 38603
L51795 38640
L51814 38659
L51870 38696
L51945 38715
L52095 38715
L52132 38696
L52151 38678
L52170 38640
L52170 38565
L52151 38528
L52132 38509
L52095 38490
L52001 38490
L51964 38509
L51945 38528
L51926 38565
L51926 38640
L51945 38678
L51964 38696
L52001 38715
" />
<path d="M70209 29935
L70209 29542
L70359 29542
L70396 29561
L70415 29579
L70434 29617
L70434 29673
L70415 29711
L70396 29729
L70359 29748
L70209 29748
" />
<path d="M70565 29542
L70828 29542
L70659 29935
" />
<path d="M70209 40935
L70209 40542
L70359 40542
L70396 40561
L70415 40579
L70434 40617
L70434 40673
L70415 40711
L70396 40729
L70359 40748
L70209 40748
" />
<path d="M70659 40711
L70621 40692
L70603 40673
L70584 40636
L70584 40617
L70603 40579
L70621 40561
L70659 40542
L70734 40542
L70771 40561
L70790 40579
L70809 40617
L70809 40636
L70790 40673
L70771 40692
L70734 40711
L70659 40711
L70621 40729
L70603 40748
L70584 40785
L70584 40860
L70603 40898
L70621 40917
L70659 40935
L70734 40935
L70771 40917
L70790 40898
L70809 40860
L70809 40785
L70790 40748
L70771 40729
L70734 40711
" />
<path d="M64885 20090
L64492 20090
L64492 19940
L64511 19903
L64529 19884
L64567 19865
L64623 19865
L64661 19884
L64679 19903
L64698 19940
L64698 20090
" />
<path d="M64885 19678
L64885 19603
L64867 19565
L64848 19546
L64792 19509
L64717 19490
L64567 19490
L64529 19509
L64511 19528
L64492 19565
L64492 19640
L64511 19678
L64529 19696
L64567 19715
L64661 19715
L64698 19696
L64717 19678
L64735 19640
L64735 19565
L64717 19528
L64698 19509
L64661 19490
" />
<path d="M56970 39278
L56576 39278
L56576 39128
L56595 39090
L56614 39071
L56651 39053
L56707 39053
L56745 39071
L56764 39090
L56782 39128
L56782 39278
" />
<path d="M56970 38678
L56970 38903
" />
<path d="M56970 38790
L56576 38790
L56632 38828
L56670 38865
L56689 38903
" />
<path d="M56576 38434
L56576 38396
L56595 38359
L56614 38340
L56651 38321
L56726 38303
L56820 38303
L56895 38321
L56932 38340
L56951 38359
L56970 38396
L56970 38434
L56951 38471
L56932 38490
L56895 38509
L56820 38528
L56726 38528
L56651 38509
L56614 38490
L56595 38471
L56576 38434
" />
<path d="M70421 23985
L70421 23592
L70571 23592
L70609 23611
L70628 23629
L70646 23667
L70646 23723
L70628 23761
L70609 23779
L70571 23798
L70421 23798
" />
<path d="M71021 23985
L70796 23985
" />
<path d="M70909 23985
L70909 23592
L70871 23648
L70834 23686
L70796 23704
" />
<path d="M71396 23985
L71171 23985
" />
<path d="M71284 23985
L71284 23592
L71246 23648
L71209 23686
L71171 23704
" />
<path d="M63770 39278
L63376 39278
L63376 39128
L63395 39090
L63414 39071
L63451 39053
L63507 39053
L63545 39071
L63564 39090
L63582 39128
L63582 39278
" />
<path d="M63770 38678
L63770 38903
" />
<path d="M63770 38790
L63376 38790
L63432 38828
L63470 38865
L63489 38903
" />
<path d="M63414 38528
L63395 38509
L63376 38471
L63376 38378
L63395 38340
L63414 38321
L63451 38303
L63489 38303
L63545 38321
L63770 38546
L63770 38303
" />
<path d="M73771 21461
L73771 21067
L73921 21067
L73959 21086
L73978 21104
L73996 21142
L73996 21198
L73978 21236
L73959 21254
L73921 21273
L73771 21273
" />
<path d="M74371 21461
L74146 21461
" />
<path d="M74259 21461
L74259 21067
L74221 21123
L74184 21161
L74146 21179
" />
<path d="M74503 21067
L74746 21067
L74615 21217
L74671 21217
L74709 21236
L74728 21254
L74746 21292
L74746 21386
L74728 21423
L74709 21442
L74671 21461
L74559 21461
L74521 21442
L74503 21423
" />
<path d="M50121 17970
L50121 17576
L50271 17576
L50309 17595
L50328 17614
L50346 17651
L50346 17707
L50328 17745
L50309 17764
L50271 17782
L50121 17782
" />
<path d="M50721 17970
L50496 17970
" />
<path d="M50609 17970
L50609 17576
L50571 17632
L50534 17670
L50496 17689
" />
<path d="M51059 17707
L51059 17970
" />
<path d="M50965 17557
L50871 17838
L51115 17838
" />
<path d="M72021 17970
L72021 17576
L72171 17576
L72209 17595
L72228 17614
L72246 17651
L72246 17707
L72228 17745
L72209 17764
L72171 17782
L72021 17782
" />
<path d="M72621 17970
L72396 17970
" />
<path d="M72509 17970
L72509 17576
L72471 17632
L72434 17670
L72396 17689
" />
<path d="M72959 17576
L72884 17576
L72846 17595
L72828 17614
L72790 17670
L72771 17745
L72771 17895
L72790 17932
L72809 17951
L72846 17970
L72921 17970
L72959 17951
L72978 17932
L72996 17895
L72996 17801
L72978 17764
L72959 17745
L72921 17726
L72846 17726
L72809 17745
L72790 17764
L72771 17801
" />
<path d="M48721 17970
L48721 17576
L48871 17576
L48909 17595
L48928 17614
L48946 17651
L48946 17707
L48928 17745
L48909 17764
L48871 17782
L48721 17782
" />
<path d="M49321 17970
L49096 17970
" />
<path d="M49209 17970
L49209 17576
L49171 17632
L49134 17670
L49096 17689
" />
<path d="M49453 17576
L49715 17576
L49546 17970
" />
<path d="M51521 17970
L51521 17576
L51671 17576
L51709 17595
L51728 17614
L51746 17651
L51746 17707
L51728 17745
L51709 17764
L51671 17782
L51521 17782
" />
<path d="M52121 17970
L51896 17970
" />
<path d="M52009 17970
L52009 17576
L51971 17632
L51934 17670
L51896 17689
" />
<path d="M52346 17745
L52309 17726
L52290 17707
L52271 17670
L52271 17651
L52290 17614
L52309 17595
L52346 17576
L52421 17576
L52459 17595
L52478 17614
L52496 17651
L52496 17670
L52478 17707
L52459 17726
L52421 17745
L52346 17745
L52309 17764
L52290 17782
L52271 17820
L52271 17895
L52290 17932
L52309 17951
L52346 17970
L52421 17970
L52459 17951
L52478 17932
L52496 17895
L52496 17820
L52478 17782
L52459 17764
L52421 17745
" />
<path d="M48721 20770
L48721 20376
L48871 20376
L48909 20395
L48928 20414
L48946 20451
L48946 20507
L48928 20545
L48909 20564
L48871 20582
L48721 20582
" />
<path d="M49321 20770
L49096 20770
" />
<path d="M49209 20770
L49209 20376
L49171 20432
L49134 20470
L49096 20489
" />
<path d="M49509 20770
L49584 20770
L49621 20751
L49640 20732
L49678 20676
L49696 20601
L49696 20451
L49678 20414
L49659 20395
L49621 20376
L49546 20376
L49509 20395
L49490 20414
L49471 20451
L49471 20545
L49490 20582
L49509 20601
L49546 20620
L49621 20620
L49659 20601
L49678 20582
L49696 20545
" />
<path d="M48721 30770
L48721 30376
L48871 30376
L48909 30395
L48928 30414
L48946 30451
L48946 30507
L48928 30545
L48909 30564
L48871 30582
L48721 30582
" />
<path d="M49096 30414
L49115 30395
L49153 30376
L49246 30376
L49284 30395
L49303 30414
L49321 30451
L49321 30489
L49303 30545
L49078 30770
L49321 30770
" />
<path d="M49565 30376
L49603 30376
L49640 30395
L49659 30414
L49678 30451
L49696 30526
L49696 30620
L49678 30695
L49659 30732
L49640 30751
L49603 30770
L49565 30770
L49528 30751
L49509 30732
L49490 30695
L49471 30620
L49471 30526
L49490 30451
L49509 30414
L49528 30395
L49565 30376
" />
<path d="M48721 34970
L48721 34576
L48871 34576
L48909 34595
L48928 34614
L48946 34651
L48946 34707
L48928 34745
L48909 34764
L48871 34782
L48721 34782
" />
<path d="M49096 34614
L49115 34595
L49153 34576
L49246 34576
L49284 34595
L49303 34614
L49321 34651
L49321 34689
L49303 34745
L49078 34970
L49321 34970
" />
<path d="M49696 34970
L49471 34970
" />
<path d="M49584 34970
L49584 34576
L49546 34632
L49509 34670
L49471 34689
" />
<path d="M48721 33570
L48721 33176
L48871 33176
L48909 33195
L48928 33214
L48946 33251
L48946 33307
L48928 33345
L48909 33364
L48871 33382
L48721 33382
" />
<path d="M49096 33214
L49115 33195
L49153 33176
L49246 33176
L49284 33195
L49303 33214
L49321 33251
L49321 33289
L49303 33345
L49078 33570
L49321 33570
" />
<path d="M49471 33214
L49490 33195
L49528 33176
L49621 33176
L49659 33195
L49678 33214
L49696 33251
L49696 33289
L49678 33345
L49453 33570
L49696 33570
" />
<path d="M48721 29370
L48721 28976
L48871 28976
L48909 28995
L48928 29014
L48946 29051
L48946 29107
L48928 29145
L48909 29164
L48871 29182
L48721 29182
" />
<path d="M49096 29014
L49115 28995
L49153 28976
L49246 28976
L49284 28995
L49303 29014
L49321 29051
L49321 29089
L49303 29145
L49078 29370
L49321 29370
" />
<path d="M49453 28976
L49696 28976
L49565 29126
L49621 29126
L49659 29145
L49678 29164
L49696 29201
L49696 29295
L49678 29332
L49659 29351
L49621 29370
L49509 29370
L49471 29351
L49453 29332
" />
<path d="M48721 32170
L48721 31776
L48871 31776
L48909 31795
L48928 31814
L48946 31851
L48946 31907
L48928 31945
L48909 31964
L48871 31982
L48721 31982
" />
<path d="M49096 31814
L49115 31795
L49153 31776
L49246 31776
L49284 31795
L49303 31814
L49321 31851
L49321 31889
L49303 31945
L49078 32170
L49321 32170
" />
<path d="M49659 31907
L49659 32170
" />
<path d="M49565 31757
L49471 32038
L49715 32038
" />
<path d="M72521 25470
L72521 25076
L72671 25076
L72709 25095
L72728 25114
L72746 25151
L72746 25207
L72728 25245
L72709 25264
L72671 25282
L72521 25282
" />
<path d="M72896 25114
L72915 25095
L72953 25076
L73046 25076
L73084 25095
L73103 25114
L73121 25151
L73121 25189
L73103 25245
L72878 25470
L73121 25470
" />
<path d="M73478 25076
L73290 25076
L73271 25264
L73290 25245
L73328 25226
L73421 25226
L73459 25245
L73478 25264
L73496 25301
L73496 25395
L73478 25432
L73459 25451
L73421 25470
L73328 25470
L73290 25451
L73271 25432
" />
<path d="M60700 26449
L60700 26768
L60718 26805
L60737 26824
L60775 26843
L60850 26843
L60887 26824
L60906 26805
L60925 26768
L60925 26449
" />
<path d="M61318 26843
L61093 26843
" />
<path d="M61206 26843
L61206 26449
L61168 26505
L61131 26543
L61093 26562
" />
<path d="M53021 17970
L53021 17576
L53171 17576
L53209 17595
L53228 17614
L53246 17651
L53246 17707
L53228 17745
L53209 17764
L53171 17782
L53021 17782
" />
<path d="M53396 17614
L53415 17595
L53453 17576
L53546 17576
L53584 17595
L53603 17614
L53621 17651
L53621 17689
L53603 17745
L53378 17970
L53621 17970
" />
<path d="M53959 17576
L53884 17576
L53846 17595
L53828 17614
L53790 17670
L53771 17745
L53771 17895
L53790 17932
L53809 17951
L53846 17970
L53921 17970
L53959 17951
L53978 17932
L53996 17895
L53996 17801
L53978 17764
L53959 17745
L53921 17726
L53846 17726
L53809 17745
L53790 17764
L53771 17801
" />
<path d="M63621 17970
L63621 17576
L63771 17576
L63809 17595
L63828 17614
L63846 17651
L63846 17707
L63828 17745
L63809 17764
L63771 17782
L63621 17782
" />
<path d="M63996 17614
L64015 17595
L64053 17576
L64146 17576
L64184 17595
L64203 17614
L64221 17651
L64221 17689
L64203 17745
L63978 17970
L64221 17970
" />
<path d="M64353 17576
L64615 17576
L64446 17970
" />
<path d="M68021 17970
L68021 17576
L68171 17576
L68209 17595
L68228 17614
L68246 17651
L68246 17707
L68228 17745
L68209 17764
L68171 17782
L68021 17782
" />
<path d="M68396 17614
L68415 17595
L68453 17576
L68546 17576
L68584 17595
L68603 17614
L68621 17651
L68621 17689
L68603 17745
L68378 17970
L68621 17970
" />
<path d="M68846 17745
L68809 17726
L68790 17707
L68771 17670
L68771 17651
L68790 17614
L68809 17595
L68846 17576
L68921 17576
L68959 17595
L68978 17614
L68996 17651
L68996 17670
L68978 17707
L68959 17726
L68921 17745
L68846 17745
L68809 17764
L68790 17782
L68771 17820
L68771 17895
L68790 17932
L68809 17951
L68846 17970
L68921 17970
L68959 17951
L68978 17932
L68996 17895
L68996 17820
L68978 17782
L68959 17764
L68921 17745
" />
<path d="M74967 29065
L74986 29084
L75004 29140
L75004 29178
L74986 29234
L74948 29271
L74911 29290
L74836 29309
L74779 29309
L74704 29290
L74667 29271
L74629 29234
L74611 29178
L74611 29140
L74629 29084
L74648 29065
" />
<path d="M74611 28709
L74611 28896
L74798 28915
L74779 28896
L74761 28859
L74761 28765
L74779 28728
L74798 28709
L74836 28690
L74929 28690
L74967 28709
L74986 28728
L75004 28765
L75004 28859
L74986 28896
L74967 28915
" />
<path d="M72534 31713
L72515 31732
L72459 31751
L72421 31751
L72365 31732
L72328 31695
L72309 31657
L72290 31582
L72290 31526
L72309 31451
L72328 31413
L72365 31376
L72421 31357
L72459 31357
L72515 31376
L72534 31395
" />
<path d="M72871 31357
L72796 31357
L72759 31376
L72740 31395
L72703 31451
L72684 31526
L72684 31676
L72703 31713
L72721 31732
L72759 31751
L72834 31751
L72871 31732
L72890 31713
L72909 31676
L72909 31582
L72890 31545
L72871 31526
L72834 31507
L72759 31507
L72721 31526
L72703 31545
L72684 31582
" />
<path d="M72434 21867
L72415 21886
L72359 21904
L72321 21904
L72265 21886
L72228 21848
L72209 21811
L72190 21736
L72190 21679
L72209 21604
L72228 21567
L72265 21529
L72321 21511
L72359 21511
L72415 21529
L72434 21548
" />
<path d="M72565 21511
L72828 21511
L72659 21904
" />
<path d="M72320 32153
L72320 32472
L72338 32509
L72357 32528
L72395 32547
L72470 32547
L72507 32528
L72526 32509
L72545 32472
L72545 32153
" />
<path d="M72713 32190
L72732 32172
L72769 32153
L72863 32153
L72901 32172
L72919 32190
L72938 32228
L72938 32265
L72919 32322
L72694 32547
L72938 32547
" />
<path d="M48721 22170
L48721 21776
L48871 21776
L48909 21795
L48928 21814
L48946 21851
L48946 21907
L48928 21945
L48909 21964
L48871 21982
L48721 21982
" />
<path d="M49096 21814
L49115 21795
L49153 21776
L49246 21776
L49284 21795
L49303 21814
L49321 21851
L49321 21889
L49303 21945
L49078 22170
L49321 22170
" />
<path d="M49509 22170
L49584 22170
L49621 22151
L49640 22132
L49678 22076
L49696 22001
L49696 21851
L49678 21814
L49659 21795
L49621 21776
L49546 21776
L49509 21795
L49490 21814
L49471 21851
L49471 21945
L49490 21982
L49509 22001
L49546 22020
L49621 22020
L49659 22001
L49678 21982
L49696 21945
" />
<path d="M48721 24970
L48721 24576
L48871 24576
L48909 24595
L48928 24614
L48946 24651
L48946 24707
L48928 24745
L48909 24764
L48871 24782
L48721 24782
" />
<path d="M49078 24576
L49321 24576
L49190 24726
L49246 24726
L49284 24745
L49303 24764
L49321 24801
L49321 24895
L49303 24932
L49284 24951
L49246 24970
L49134 24970
L49096 24951
L49078 24932
" />
<path d="M49565 24576
L49603 24576
L49640 24595
L49659 24614
L49678 24651
L49696 24726
L49696 24820
L49678 24895
L49659 24932
L49640 24951
L49603 24970
L49565 24970
L49528 24951
L49509 24932
L49490 24895
L49471 24820
L49471 24726
L49490 24651
L49509 24614
L49528 24595
L49565 24576
" />
<path d="M48721 23570
L48721 23176
L48871 23176
L48909 23195
L48928 23214
L48946 23251
L48946 23307
L48928 23345
L48909 23364
L48871 23382
L48721 23382
" />
<path d="M49078 23176
L49321 23176
L49190 23326
L49246 23326
L49284 23345
L49303 23364
L49321 23401
L49321 23495
L49303 23532
L49284 23551
L49246 23570
L49134 23570
L49096 23551
L49078 23532
" />
<path d="M49696 23570
L49471 23570
" />
<path d="M49584 23570
L49584 23176
L49546 23232
L49509 23270
L49471 23289
" />
<path d="M48721 26570
L48721 26176
L48871 26176
L48909 26195
L48928 26214
L48946 26251
L48946 26307
L48928 26345
L48909 26364
L48871 26382
L48721 26382
" />
<path d="M49078 26176
L49321 26176
L49190 26326
L49246 26326
L49284 26345
L49303 26364
L49321 26401
L49321 26495
L49303 26532
L49284 26551
L49246 26570
L49134 26570
L49096 26551
L49078 26532
" />
<path d="M49471 26214
L49490 26195
L49528 26176
L49621 26176
L49659 26195
L49678 26214
L49696 26251
L49696 26289
L49678 26345
L49453 26570
L49696 26570
" />
<path d="M48721 27970
L48721 27576
L48871 27576
L48909 27595
L48928 27614
L48946 27651
L48946 27707
L48928 27745
L48909 27764
L48871 27782
L48721 27782
" />
<path d="M49078 27576
L49321 27576
L49190 27726
L49246 27726
L49284 27745
L49303 27764
L49321 27801
L49321 27895
L49303 27932
L49284 27951
L49246 27970
L49134 27970
L49096 27951
L49078 27932
" />
<path d="M49453 27576
L49696 27576
L49565 27726
L49621 27726
L49659 27745
L49678 27764
L49696 27801
L49696 27895
L49678 27932
L49659 27951
L49621 27970
L49509 27970
L49471 27951
L49453 27932
" />
<path d="M72057 34773
L72057 34379
L72151 34379
L72207 34398
L72244 34435
L72263 34473
L72282 34548
L72282 34604
L72263 34679
L72244 34717
L72207 34754
L72151 34773
L72057 34773
" />
<path d="M72657 34773
L72432 34773
" />
<path d="M72544 34773
L72544 34379
L72507 34435
L72469 34473
L72432 34492
" />
<path d="M73662 35293
L73662 34899
" />
<path d="M73887 35293
L73718 35068
" />
<path d="M73887 34899
L73662 35124
" />
<path d="M72630 33765
L72442 33896
" />
<path d="M72630 33990
L72236 33990
L72236 33840
L72255 33803
L72273 33784
L72311 33765
L72367 33765
L72405 33784
L72423 33803
L72442 33840
L72442 33990
" />
<path d="M72630 33390
L72630 33615
" />
<path d="M72630 33503
L72236 33503
L72292 33540
L72330 33578
L72348 33615
" />
<path d="M55040 25437
L55228 25437
" />
<path d="M54834 25568
L55040 25437
L54834 25306
" />
<path d="M55228 24968
L55228 25193
" />
<path d="M55228 25081
L54834 25081
L54890 25118
L54928 25156
L54946 25193
" />
<path d="M52425 29859
L52481 29878
L52575 29878
L52612 29859
L52631 29840
L52650 29803
L52650 29765
L52631 29728
L52612 29709
L52575 29690
L52500 29671
L52462 29653
L52443 29634
L52425 29596
L52425 29559
L52443 29521
L52462 29503
L52500 29484
L52593 29484
L52650 29503
" />
<path d="M52781 29484
L52875 29878
L52950 29596
L53024 29878
L53118 29484
" />
<path d="M53474 29878
L53249 29878
" />
<path d="M53362 29878
L53362 29484
L53324 29540
L53287 29578
L53249 29596
" />
</g> 
</svg>
