<?xml version="1.0" standalone="no"?>
 <!DOCTYPE svg PUBLIC "-//W3C//DTD SVG 1.1//EN" 
 "http://www.w3.org/Graphics/SVG/1.1/DTD/svg11.dtd"> 
<svg xmlns="http://www.w3.org/2000/svg" version="1.1" 
    width="29.7002cm" height="21.0007cm" viewBox="0 0 116930 82680 ">
<title>SVG Picture created as 24cxxx-F.Cu.svg date 2016/04/14 00:24:17 </title>
  <desc>Picture generated by PCBNEW </desc>
<g style="fill:#000000; fill-opacity:1;stroke:#000000; stroke-opacity:1;
stroke-linecap:round; stroke-linejoin:round; "
 transform="translate(0 0) scale(1 1)">
</g>
<g style="fill:#000000; fill-opacity:0.0; 
stroke:#000000; stroke-width:-0.000393701; stroke-opacity:1; 
stroke-linecap:round; stroke-linejoin:round;">
</g>
<g style="fill:#000000; fill-opacity:0.0; 
stroke:#000000; stroke-width:118.11; stroke-opacity:1; 
stroke-linecap:round; stroke-linejoin:round;">
<path d="M66033 39386
L65836 39977
L65639 39386
" />
<path d="M65189 39949
L65245 39977
L65358 39977
L65414 39949
L65442 39921
L65470 39864
L65470 39696
L65442 39639
L65414 39611
L65358 39583
L65245 39583
L65189 39611
" />
<path d="M64683 39949
L64739 39977
L64851 39977
L64908 39949
L64936 39921
L64964 39864
L64964 39696
L64936 39639
L64908 39611
L64851 39583
L64739 39583
L64683 39611
" />
<path d="M65878 40331
L65737 40922
L65625 40500
L65512 40922
L65372 40331
" />
<path d="M65147 40922
L65147 40331
L64922 40331
L64865 40359
L64837 40387
L64809 40444
L64809 40528
L64837 40584
L64865 40612
L64922 40641
L65147 40641
" />
<path d="M66033 41839
L65948 41867
L65808 41867
L65751 41839
L65723 41810
L65695 41754
L65695 41698
L65723 41642
L65751 41614
L65808 41585
L65920 41557
L65976 41529
L66004 41501
L66033 41445
L66033 41389
L66004 41332
L65976 41304
L65920 41276
L65779 41276
L65695 41304
" />
<path d="M65105 41810
L65133 41839
L65217 41867
L65273 41867
L65358 41839
L65414 41782
L65442 41726
L65470 41614
L65470 41529
L65442 41417
L65414 41360
L65358 41304
L65273 41276
L65217 41276
L65133 41304
L65105 41332
" />
<path d="M64570 41867
L64851 41867
L64851 41276
" />
<path d="M66047 42783
L65962 42812
L65822 42812
L65765 42783
L65737 42755
L65709 42699
L65709 42643
L65737 42587
L65765 42558
L65822 42530
L65934 42502
L65990 42474
L66018 42446
L66047 42390
L66047 42333
L66018 42277
L65990 42249
L65934 42221
L65794 42221
L65709 42249
" />
<path d="M65456 42812
L65456 42221
L65315 42221
L65231 42249
L65175 42305
L65147 42362
L65119 42474
L65119 42558
L65147 42671
L65175 42727
L65231 42783
L65315 42812
L65456 42812
" />
<path d="M64894 42643
L64612 42643
" />
<path d="M64950 42812
L64753 42221
L64556 42812
" />
<path d="M65779 43194
L65836 43166
L65920 43166
L66004 43194
L66061 43250
L66089 43306
L66117 43419
L66117 43503
L66089 43616
L66061 43672
L66004 43728
L65920 43756
L65864 43756
L65779 43728
L65751 43700
L65751 43503
L65864 43503
" />
<path d="M65498 43756
L65498 43166
L65161 43756
L65161 43166
" />
<path d="M64880 43756
L64880 43166
L64739 43166
L64655 43194
L64598 43250
L64570 43306
L64542 43419
L64542 43503
L64570 43616
L64598 43672
L64655 43728
L64739 43756
L64880 43756
" />
<path d="M72796 38898
L72515 38898
" />
<path d="M72853 39067
L72656 38476
L72459 39067
" />
<path d="M72346 38476
L72009 38476
" />
<path d="M72178 39067
L72178 38476
" />
<path d="M71840 38532
L71812 38504
L71756 38476
L71615 38476
L71559 38504
L71531 38532
L71503 38589
L71503 38645
L71531 38729
L71868 39067
L71503 39067
" />
<path d="M70997 38673
L70997 39067
" />
<path d="M71137 38448
L71278 38870
L70912 38870
" />
<path d="M70350 39010
L70378 39039
L70462 39067
L70519 39067
L70603 39039
L70659 38982
L70687 38926
L70715 38814
L70715 38729
L70687 38617
L70659 38560
L70603 38504
L70519 38476
L70462 38476
L70378 38504
L70350 38532
" />
<path d="M70125 38532
L70097 38504
L70041 38476
L69900 38476
L69844 38504
L69816 38532
L69787 38589
L69787 38645
L69816 38729
L70153 39067
L69787 39067
" />
<path d="M69253 38476
L69534 38476
L69562 38757
L69534 38729
L69478 38701
L69337 38701
L69281 38729
L69253 38757
L69225 38814
L69225 38954
L69253 39010
L69281 39039
L69337 39067
L69478 39067
L69534 39039
L69562 39010
" />
<path d="M68719 38476
L68831 38476
L68888 38504
L68916 38532
L68972 38617
L69000 38729
L69000 38954
L68972 39010
L68944 39039
L68888 39067
L68775 39067
L68719 39039
L68691 39010
L68663 38954
L68663 38814
L68691 38757
L68719 38729
L68775 38701
L68888 38701
L68944 38729
L68972 38757
L69000 38814
" />
<path d="M72796 38898
L72515 38898
" />
<path d="M72853 39067
L72656 38476
L72459 39067
" />
<path d="M72346 38476
L72009 38476
" />
<path d="M72178 39067
L72178 38476
" />
<path d="M71840 38532
L71812 38504
L71756 38476
L71615 38476
L71559 38504
L71531 38532
L71503 38589
L71503 38645
L71531 38729
L71868 39067
L71503 39067
" />
<path d="M70997 38673
L70997 39067
" />
<path d="M71137 38448
L71278 38870
L70912 38870
" />
<path d="M70350 39010
L70378 39039
L70462 39067
L70519 39067
L70603 39039
L70659 38982
L70687 38926
L70715 38814
L70715 38729
L70687 38617
L70659 38560
L70603 38504
L70519 38476
L70462 38476
L70378 38504
L70350 38532
" />
<path d="M70125 38532
L70097 38504
L70041 38476
L69900 38476
L69844 38504
L69816 38532
L69787 38589
L69787 38645
L69816 38729
L70153 39067
L69787 39067
" />
<path d="M69253 38476
L69534 38476
L69562 38757
L69534 38729
L69478 38701
L69337 38701
L69281 38729
L69253 38757
L69225 38814
L69225 38954
L69253 39010
L69281 39039
L69337 39067
L69478 39067
L69534 39039
L69562 39010
" />
<path d="M68719 38476
L68831 38476
L68888 38504
L68916 38532
L68972 38617
L69000 38729
L69000 38954
L68972 39010
L68944 39039
L68888 39067
L68775 39067
L68719 39039
L68691 39010
L68663 38954
L68663 38814
L68691 38757
L68719 38729
L68775 38701
L68888 38701
L68944 38729
L68972 38757
L69000 38814
" />
</g>
<g style="fill:#000000; fill-opacity:0.0; 
stroke:#000000; stroke-width:0; stroke-opacity:1; 
stroke-linecap:round; stroke-linejoin:round;">
</g>
<g style="fill:#000000; fill-opacity:1.0; 
stroke:#000000; stroke-width:0; stroke-opacity:1; 
stroke-linecap:round; stroke-linejoin:round;">
<polyline style="fill-rule:evenodd;"
points="67330,39940
67330,39260
66530,39260
66530,39940
67330,39940
" /> 
</g>
<g style="fill:#000000; fill-opacity:1.0; 
stroke:#000000; stroke-width:680; stroke-opacity:1; 
stroke-linecap:round; stroke-linejoin:round;">
</g>
<g style="fill:#000000; fill-opacity:0.0; 
stroke:#000000; stroke-width:680; stroke-opacity:1; 
stroke-linecap:round; stroke-linejoin:round;">
<path d="M66990 40600
L66870 40600
" />
<path d="M66990 41600
L66870 41600
" />
<path d="M66990 42600
L66870 42600
" />
<path d="M66990 43600
L66870 43600
" />
</g>
<g style="fill:#000000; fill-opacity:0.0; 
stroke:#000000; stroke-width:0; stroke-opacity:1; 
stroke-linecap:round; stroke-linejoin:round;">
</g>
<g style="fill:#000000; fill-opacity:1.0; 
stroke:#000000; stroke-width:0; stroke-opacity:1; 
stroke-linecap:round; stroke-linejoin:round;">
<polyline style="fill-rule:evenodd;"
points="67330,39940
67330,39260
66530,39260
66530,39940
67330,39940
" /> 
</g>
<g style="fill:#000000; fill-opacity:1.0; 
stroke:#000000; stroke-width:680; stroke-opacity:1; 
stroke-linecap:round; stroke-linejoin:round;">
</g>
<g style="fill:#000000; fill-opacity:0.0; 
stroke:#000000; stroke-width:680; stroke-opacity:1; 
stroke-linecap:round; stroke-linejoin:round;">
<path d="M66990 40600
L66870 40600
" />
<path d="M66990 41600
L66870 41600
" />
<path d="M66990 42600
L66870 42600
" />
<path d="M66990 43600
L66870 43600
" />
</g>
<g style="fill:#000000; fill-opacity:0.0; 
stroke:#000000; stroke-width:0; stroke-opacity:1; 
stroke-linecap:round; stroke-linejoin:round;">
</g>
<g style="fill:#000000; fill-opacity:1.0; 
stroke:#000000; stroke-width:0; stroke-opacity:1; 
stroke-linecap:round; stroke-linejoin:round;">
<polyline style="fill-rule:evenodd;"
points="69260,41022
69260,41377
69733,41377
69733,41022
69260,41022
" /> 
<polyline style="fill-rule:evenodd;"
points="70126,41022
70126,41377
70599,41377
70599,41022
70126,41022
" /> 
<polyline style="fill-rule:evenodd;"
points="69260,40022
69260,40377
69733,40377
69733,40022
69260,40022
" /> 
<polyline style="fill-rule:evenodd;"
points="70126,40022
70126,40377
70599,40377
70599,40022
70126,40022
" /> 
<polyline style="fill-rule:evenodd;"
points="72498,42368
72498,42131
71887,42131
71887,42368
72498,42368
" /> 
<polyline style="fill-rule:evenodd;"
points="72498,42868
72498,42631
71887,42631
71887,42868
72498,42868
" /> 
<polyline style="fill-rule:evenodd;"
points="72498,43368
72498,43131
71887,43131
71887,43368
72498,43368
" /> 
<polyline style="fill-rule:evenodd;"
points="72498,43868
72498,43631
71887,43631
71887,43868
72498,43868
" /> 
<polyline style="fill-rule:evenodd;"
points="70372,43868
70372,43631
69761,43631
69761,43868
70372,43868
" /> 
<polyline style="fill-rule:evenodd;"
points="70372,43368
70372,43131
69761,43131
69761,43368
70372,43368
" /> 
<polyline style="fill-rule:evenodd;"
points="70372,42868
70372,42631
69761,42631
69761,42868
70372,42868
" /> 
<polyline style="fill-rule:evenodd;"
points="70372,42368
70372,42131
69761,42131
69761,42368
70372,42368
" /> 
</g>
<g style="fill:#000000; fill-opacity:1.0; 
stroke:#000000; stroke-width:98.4252; stroke-opacity:1; 
stroke-linecap:round; stroke-linejoin:round;">
</g>
<g style="fill:#000000; fill-opacity:0.0; 
stroke:#000000; stroke-width:98.4252; stroke-opacity:1; 
stroke-linecap:round; stroke-linejoin:round;">
<path d="M73530 44800
L73530 38000
" />
<path d="M64130 44800
L64130 38000
" />
<path d="M64130 38000
L73530 38000
" />
<path d="M73530 44800
L64130 44800
" />
<path d="M70067 42250
L69580 42250
" />
<path d="M69496 42166
L69496 41200
" />
<path d="M69580 42250
L69496 42166
" />
<path d="M69496 40200
L69496 41200
" />
<path d="M66930 39600
L68896 39600
" />
<path d="M68896 39600
L69496 40200
" />
<path d="M70067 42750
L69280 42750
" />
<path d="M68530 40600
L66930 40600
" />
<path d="M68530 42000
L68530 40600
" />
<path d="M69280 42750
L68530 42000
" />
<path d="M70067 43250
L69180 43250
" />
<path d="M68130 41600
L66930 41600
" />
<path d="M68130 42200
L68130 41600
" />
<path d="M69180 43250
L68130 42200
" />
<path d="M70363 41200
L70363 41233
" />
<path d="M70363 41233
L70730 41600
" />
<path d="M70730 41600
L70730 43000
" />
<path d="M70730 43000
L70480 43250
" />
<path d="M70480 43250
L70067 43250
" />
<path d="M66980 41650
L66930 41600
" />
<path d="M66980 41650
L66930 41600
" />
<path d="M70363 40200
L70930 40200
" />
<path d="M71180 43750
L70067 43750
" />
<path d="M71330 43600
L71180 43750
" />
<path d="M71330 40600
L71330 43600
" />
<path d="M70930 40200
L71330 40600
" />
<path d="M70067 43750
L69080 43750
" />
<path d="M67930 42600
L66930 42600
" />
<path d="M69080 43750
L67930 42600
" />
<path d="M72192 42750
L72192 42250
" />
<path d="M72192 43250
L72192 42750
" />
<path d="M72192 43750
L72192 43250
" />
<path d="M72192 43750
L72192 44137
" />
<path d="M67930 43600
L66930 43600
" />
<path d="M68730 44400
L67930 43600
" />
<path d="M71930 44400
L68730 44400
" />
<path d="M72192 44137
L71930 44400
" />
</g>
<g style="fill:#000000; fill-opacity:1.0; 
stroke:#000000; stroke-width:157.48; stroke-opacity:1; 
stroke-linecap:round; stroke-linejoin:round;">
<polyline style="fill-rule:evenodd;"
points="70879,39735
70894,39757
70930,39757
71099,39790
71212,39866
71243,39886
71643,40286
71739,40430
71772,40600
71772,41877
71832,41853
72102,41853
72171,41922
72171,42228
72163,42228
72163,42271
72171,42271
72171,42728
72163,42728
72163,42771
72171,42771
72171,43228
72163,43228
72163,43271
72171,43271
72171,43728
72163,43728
72163,43771
72171,43771
72171,44077
72102,44146
71832,44146
71729,44104
71651,44026
71616,43940
71493,44063
71349,44159
71180,44192
70594,44192
70528,44237
70372,44269
69761,44269
69615,44242
69539,44192
69080,44192
68910,44159
68766,44063
68421,43717
67597,43717
67569,43817
67442,44022
67246,44163
67011,44218
66951,44218
66951,43621
67538,43621
67597,43717
68421,43717
67746,43042
67575,43042
67524,43118
67439,43175
67442,43177
67569,43382
67597,43482
67538,43578
66951,43578
66951,43570
66908,43570
66908,43578
66900,43578
66900,43621
66908,43621
66908,44218
66848,44218
66682,44179
66682,44355
64572,44355
64572,44357
73087,44357
73087,43840
72776,43840
72776,43923
72734,44026
72656,44104
72553,44146
72283,44146
72214,44077
72214,43771
72707,43771
72776,43840
73087,43840
73087,43340
72776,43340
72776,43423
72745,43500
72776,43576
72776,43659
72707,43728
72214,43728
72214,43271
72707,43271
72776,43340
73087,43340
73087,42840
72776,42840
72776,42923
72745,43000
72776,43076
72776,43159
72707,43228
72214,43228
72214,42771
72707,42771
72776,42840
73087,42840
73087,42340
72776,42340
72776,42423
72745,42500
72776,42576
72776,42659
72707,42728
72214,42728
72214,42271
72707,42271
72776,42340
73087,42340
73087,42076
72776,42076
72776,42159
72707,42228
72214,42228
72214,41922
72283,41853
72553,41853
72656,41895
72734,41973
72776,42076
73087,42076
73087,39666
70772,39666
70879,39735
" /> 
</g> 
</svg>
